<svg width="22" height="58" viewBox="0 0 22 58" fill="none" xmlns="http://www.w3.org/2000/svg">
<path d="M0.916535 1.94144C0.910015 1.54472 0.92956 1.07971 1.18708 0.858583C1.33377 0.731761 1.52284 0.725253 1.69887 0.722001C7.80442 0.624445 13.9067 0.526892 20.0123 0.429337C20.3513 0.422833 20.7196 0.429336 20.9902 0.692735C21.339 1.03418 21.3977 1.6683 21.4238 2.23412C21.5574 5.20305 21.2379 54.0913 21.0913 57.0569C17.0394 57.4862 12.9744 56.6407 8.90622 56.6342C7.45562 56.631 6.00504 56.7383 4.56096 56.8976C3.6743 56.9952 1.95965 57.7138 1.20664 56.8716C0.541646 56.1302 1.02083 8.50692 1.00454 7.52161C0.975197 5.66155 0.945873 3.8015 0.916535 1.94144Z" fill="#C3D1DD"/>
</svg>
