<svg width="5" height="5" viewBox="0 0 5 5" fill="none" xmlns="http://www.w3.org/2000/svg">
<path d="M4.18667 2.45005C4.18667 3.30957 3.49781 4.01797 2.6507 4.01797C1.80359 4.01797 1.11473 3.31901 1.11473 2.45005C1.11473 1.58108 1.80359 0.882126 2.6507 0.882126C3.49781 0.891571 4.18667 1.59052 4.18667 2.45005Z" fill="#2BB673"/>
<path d="M2.65082 4.56583C1.50583 4.56583 0.574936 3.6213 0.574936 2.45008C0.574936 1.28831 1.50583 0.334335 2.65082 0.334335C3.79582 0.334335 4.72671 1.27887 4.72671 2.45008C4.72671 3.6213 3.79582 4.56583 2.65082 4.56583ZM2.65082 1.43944C2.1016 1.43944 1.65477 1.89281 1.65477 2.45008C1.65477 3.00736 2.1016 3.46073 2.65082 3.46073C3.20005 3.46073 3.64687 3.00736 3.64687 2.45008C3.64687 1.89281 3.20005 1.43944 2.65082 1.43944Z" fill="#FDBC31"/>
</svg>
