<svg width="5" height="5" viewBox="0 0 5 5" fill="none" xmlns="http://www.w3.org/2000/svg">
<path d="M3.8971 2.41022C3.8971 3.27919 3.20824 3.97814 2.36113 3.97814C1.51402 3.97814 0.825165 3.27919 0.825165 2.41022C0.825165 1.5507 1.51402 0.8423 2.36113 0.8423C3.20824 0.851746 3.8971 1.5507 3.8971 2.41022Z" fill="#2BB673"/>
<path d="M2.36126 4.52601C1.21626 4.52601 0.28537 3.58148 0.28537 2.41026C0.28537 1.23904 1.21626 0.29451 2.36126 0.29451C3.50625 0.29451 4.43714 1.23904 4.43714 2.41026C4.43714 3.58148 3.50625 4.52601 2.36126 4.52601ZM2.36126 1.39961C1.81203 1.39961 1.3652 1.85299 1.3652 2.41026C1.3652 2.96753 1.81203 3.42091 2.36126 3.42091C2.91048 3.42091 3.35731 2.96753 3.35731 2.41026C3.35731 1.85299 2.91048 1.39961 2.36126 1.39961Z" fill="#FDBC31"/>
</svg>
