<svg width="56" height="36" viewBox="0 0 56 36" fill="none" xmlns="http://www.w3.org/2000/svg">
<path d="M39.6615 35.1706C38.2433 35.1706 36.8041 35.1286 35.414 35.0795C34.2275 35.0445 33.0411 35.0095 31.8686 34.9955C29.7343 34.9745 27.565 34.8624 25.4728 34.7504C24.4548 34.6943 23.4439 34.6383 22.4329 34.5963C21.5694 34.5613 20.7269 34.5473 19.9055 34.5333C17.5325 34.4912 15.2929 34.4492 12.8989 33.9099C12.4706 33.8119 11.1086 33.6858 10.0204 33.5878C9.37453 33.5318 8.78478 33.4757 8.42673 33.4267C7.91422 33.5738 7.40876 33.6508 6.91732 33.6508C5.52021 33.6508 4.24244 33.0625 3.11914 31.9069C1.09017 29.8339 -0.0541903 26.178 0.00197476 23.8459C0.0651604 21.3246 3.54738 17.7738 6.0046 16.3451C7.8089 15.3015 10.9331 14.9724 12.3092 14.8743C11.909 12.234 12.8568 9.32752 15.0191 6.63116C18.5084 2.27496 24.4127 -0.477432 29.2008 0.0688439C33.5746 0.566095 37.6185 3.37452 40.0266 7.57664C41.859 10.7843 42.4627 14.251 41.7396 17.1715C42.3574 16.9404 43.1578 16.8283 44.1056 16.8283C45.7414 16.8283 47.5036 17.1715 48.325 17.4936C51.8212 18.8523 53.5202 20.7153 55.4298 23.6708C56.8831 25.9119 55.2965 30.128 53.5975 32.3061C52.2144 34.078 50.0029 34.2951 47.8546 34.5052C47.2298 34.5683 46.5838 34.6313 45.973 34.7294C44.1477 35.0305 42.1468 35.1706 39.6615 35.1706Z" fill="#F1F5F1"/>
</svg>
