<svg width="47" height="46" viewBox="0 0 47 46" fill="none" xmlns="http://www.w3.org/2000/svg">
<path d="M9.779 22.8913C9.46692 27.6831 13.0696 36.3407 23.1704 36.392C33.2713 36.4432 37.6087 28.8495 37.6087 23.4705C37.6087 18.0915 33.3108 9.39055 23.684 9.39055C14.0611 9.39055 10.1938 16.5547 9.779 22.8913Z" fill="#FDBC31"/>
<path d="M23.5101 6.24596C23.5457 3.83034 23.1822 -0.00786921 23.6997 1.21184e-05C24.2172 0.00789344 24.3911 0.153698 24.3358 2.22649C24.2804 4.29928 24.7071 6.72672 24.1856 6.80948C23.6642 6.89223 23.5101 6.24596 23.5101 6.24596Z" fill="#FFD176"/>
<path d="M35.3333 11.0181C37.0714 9.33544 39.5324 6.36418 39.8919 6.73461C40.2513 7.10503 40.2711 7.32965 38.7621 8.75616C37.2531 10.1787 35.835 12.2003 35.4083 11.8929C34.9817 11.5856 35.3333 11.0181 35.3333 11.0181Z" fill="#FFD176"/>
<path d="M40.3106 22.7337C42.7321 22.7691 46.5797 22.4066 46.5718 22.9228C46.5639 23.439 46.4177 23.6124 44.3399 23.5573C42.262 23.5021 39.8287 23.9277 39.7457 23.4075C39.6627 22.8873 40.3106 22.7337 40.3106 22.7337Z" fill="#FFD176"/>
<path d="M35.5229 34.532C37.2096 36.2659 40.1881 38.721 39.8168 39.0796C39.4455 39.4382 39.2203 39.4579 37.7903 37.9525C36.3643 36.4472 34.3378 35.0325 34.6459 34.6069C34.958 34.1813 35.5229 34.532 35.5229 34.532Z" fill="#FFD176"/>
<path d="M23.7788 39.4933C23.7432 41.909 24.1066 45.7472 23.5892 45.7393C23.0717 45.7314 22.8979 45.5856 22.9532 43.5128C23.0085 41.44 22.5819 39.0126 23.1033 38.9298C23.6247 38.8471 23.7788 39.4933 23.7788 39.4933Z" fill="#FFD176"/>
<path d="M11.9555 34.7212C10.2174 36.4038 7.75636 39.3751 7.39688 39.0047C7.03741 38.6343 7.01766 38.4096 8.52667 36.9831C10.0357 35.5605 11.4538 33.539 11.8804 33.8464C12.3031 34.1537 11.9555 34.7212 11.9555 34.7212Z" fill="#FFD176"/>
<path d="M6.9782 23.0056C4.55668 22.9701 0.709122 23.3327 0.717023 22.8165C0.724923 22.3002 0.87108 22.1269 2.94892 22.182C5.02676 22.2372 7.46013 21.8116 7.54308 22.3318C7.62604 22.8519 6.9782 23.0056 6.9782 23.0056Z" fill="#FFD176"/>
<path d="M11.762 11.2112C10.0752 9.47728 7.09672 7.02225 7.46805 6.66365C7.83938 6.30505 8.06455 6.28535 9.49456 7.79068C10.9246 9.29601 12.9471 10.7107 12.639 11.1363C12.3309 11.558 11.762 11.2112 11.762 11.2112Z" fill="#FFD176"/>
</svg>
