<svg width="50" height="37" viewBox="0 0 50 37" fill="none" xmlns="http://www.w3.org/2000/svg">
<path d="M32.6282 36.9864C31.1468 37.014 29.6457 36.9943 28.1881 36.9746C26.9477 36.9589 25.7113 36.9431 24.4827 36.9549C22.2548 36.9746 19.9873 36.8958 17.7989 36.817C16.7363 36.7776 15.6776 36.7421 14.6229 36.7145C13.7222 36.6909 12.8452 36.6909 11.9801 36.6909C9.49936 36.6909 7.16079 36.6909 4.65632 36.1707C4.20599 36.0762 2.78389 35.9698 1.64226 35.887C0.970714 35.8358 0.350521 35.7885 -0.0247545 35.753C-0.554091 35.9185 -1.08342 36.0092 -1.59696 36.017C-3.05461 36.0446 -4.3977 35.4575 -5.59858 34.2713C-7.75148 32.1434 -9.01952 28.3485 -8.99977 25.9092C-8.97607 23.2769 -5.41292 19.5057 -2.86894 17.9609C-1.00442 16.8339 2.25456 16.4359 3.68456 16.3098C3.21842 13.5592 4.15463 10.5091 6.35889 7.6561C9.92203 3.04553 16.0331 0.0585068 21.0381 0.539268C25.6125 0.976681 29.8907 3.82972 32.4781 8.17627C34.4532 11.4864 35.1445 15.104 34.4453 18.1658C35.0892 17.9136 35.9188 17.7757 36.9142 17.76C38.6208 17.7284 40.4655 18.0555 41.3346 18.3747C45.0123 19.7303 46.8215 21.6415 48.8717 24.6916C50.4281 27.0048 48.8559 31.4341 47.1217 33.7393C45.7115 35.6151 43.4045 35.8831 41.1687 36.1431C40.5169 36.218 39.8453 36.2968 39.2054 36.4151C37.3132 36.7539 35.2196 36.9392 32.6282 36.9864Z" fill="#F1F5F1"/>
</svg>
