<svg width="5" height="2" viewBox="0 0 5 2" fill="none" xmlns="http://www.w3.org/2000/svg">
<path d="M2.45036 0.684578C1.86359 0.639053 1.28333 0.476461 0.693302 0.495971C0.588987 0.499223 0.468364 0.518732 0.419467 0.616284C0.393388 0.668312 0.393402 0.730095 0.393402 0.788626C0.393402 0.999989 0.393402 1.21136 0.393402 1.42272C0.393402 1.46824 0.393388 1.51702 0.419467 1.55604C0.461844 1.62433 0.549862 1.62758 0.624838 1.62433C1.17249 1.60156 1.72015 1.5788 2.26455 1.55604C2.63617 1.53978 3.55219 1.68936 3.86188 1.4845C4.19438 1.26989 3.95315 0.947964 3.69889 0.801636C3.33052 0.596776 2.85132 0.717095 2.45036 0.684578Z" fill="#DCE0E2"/>
</svg>
