<svg width="62" height="62" viewBox="0 0 62 62" fill="none" xmlns="http://www.w3.org/2000/svg">
<g opacity="0.5" clip-path="url(#clip0_649_305)">
<path d="M42.2701 0H2.81242V58.7759H42.2701V0Z" fill="white"/>
<path d="M12.3074 4.54662H7.2425V12.9249H12.3074V4.54662Z" fill="#FDBC31"/>
<path d="M20.8179 4.54662H15.753V12.9249H20.8179V4.54662Z" fill="#FDBC31"/>
<path d="M29.3292 4.54662H24.2643V12.9249H29.3292V4.54662Z" fill="#FDBC31"/>
<path d="M37.8424 4.54662H32.7775V12.9249H37.8424V4.54662Z" fill="#FDBC31"/>
<path d="M12.3074 17.7816H7.2425V26.1598H12.3074V17.7816Z" fill="#FDBC31"/>
<path d="M20.8179 17.7816H15.753V26.1598H20.8179V17.7816Z" fill="#FDBC31"/>
<path d="M29.3292 17.7815H24.2643V26.1598H29.3292V17.7815Z" fill="#27A2DB"/>
<path d="M37.8422 17.7815H32.7773V26.1598H37.8422V17.7815Z" fill="#27A2DB"/>
<path d="M29.329 39.3897H24.264L29.329 31.0112V39.3897Z" fill="#2D93BA"/>
<path d="M37.8398 39.3897H32.775L37.8398 31.0112V39.3897Z" fill="#2D93BA"/>
<path d="M12.3074 44.2432H7.2425V52.6215H12.3074V44.2432Z" fill="#FDBC31"/>
<path d="M20.8179 44.2432H15.753V52.6215H20.8179V44.2432Z" fill="#FDBC31"/>
<path d="M29.3292 44.2432H24.2643V52.6215H29.3292V44.2432Z" fill="#27A2DB"/>
<path d="M37.8422 44.2432H32.7773V52.6215H37.8422V44.2432Z" fill="#27A2DB"/>
<path d="M29.329 26.1576H24.264L29.329 17.7792V26.1576Z" fill="#2D93BA"/>
<path d="M37.8398 26.1576H32.775L37.8398 17.7792V26.1576Z" fill="#2D93BA"/>
<path d="M12.3074 31.0083H7.2425V39.3865H12.3074V31.0083Z" fill="#FDBC31"/>
<path d="M20.8179 31.0083H15.753V39.3865H20.8179V31.0083Z" fill="#FDBC31"/>
<path d="M29.3292 31.0083H24.2643V39.3865H29.3292V31.0083Z" fill="#27A2DB"/>
<path d="M37.8422 31.0083H32.7773V39.3865H37.8422V31.0083Z" fill="#27A2DB"/>
<path d="M29.329 52.6218H24.264L29.329 44.2434V52.6218Z" fill="#2D93BA"/>
<path d="M37.8398 52.6218H32.775L37.8398 44.2434V52.6218Z" fill="#2D93BA"/>
<path d="M58.0998 17.6931H24.2643V58.7792H58.0998V17.6931Z" fill="#ECECEC"/>
<path d="M46.825 47.5027H35.5467V58.7792H46.825V47.5027Z" fill="white"/>
<path d="M48.2335 45.6046H34.1306V47.5034H48.2335V45.6046Z" fill="#C2C2C2"/>
<path d="M31.7489 21.5272H27.0815V29.6682H31.7489V21.5272Z" fill="#708F3B"/>
<path d="M39.594 21.5272H34.9267V29.6682H39.594V21.5272Z" fill="#708F3B"/>
<path d="M47.4391 21.5272H42.7718V29.6682H47.4391V21.5272Z" fill="#708F3B"/>
<path d="M55.28 21.5272H50.6126V29.6682H55.28V21.5272Z" fill="#708F3B"/>
<path d="M31.7489 33.6288H27.0815V41.7698H31.7489V33.6288Z" fill="#708F3B"/>
<path d="M39.594 33.6288H34.9267V41.7698H39.594V33.6288Z" fill="#708F3B"/>
<path d="M47.4391 33.6288H42.7718V41.7698H47.4391V33.6288Z" fill="#708F3B"/>
<path d="M55.28 33.6288H50.6126V41.7698H55.28V33.6288Z" fill="#708F3B"/>
<path d="M55.28 45.6046H50.6126V53.7456H55.28V45.6046Z" fill="#708F3B"/>
<path d="M31.7489 45.6046H27.0815V53.7456H31.7489V45.6046Z" fill="#708F3B"/>
<path d="M60.3681 62H1.63188C1.17538 62 0.805199 61.6298 0.805199 61.1733V59.6059C0.805199 59.1494 1.17524 58.7792 1.63188 58.7792H60.3681C60.8246 58.7792 61.1947 59.1492 61.1947 59.6059V61.1733C61.1947 61.6298 60.8246 62 60.3681 62Z" fill="#D8D8D8"/>
</g>
<defs>
<clipPath id="clip0_649_305">
<rect width="62" height="62" fill="white"/>
</clipPath>
</defs>
</svg>
