<svg width="57" height="56" viewBox="0 0 57 56" fill="none" xmlns="http://www.w3.org/2000/svg">
<g opacity="0.5" clip-path="url(#clip0_649_383)">
<path d="M13.6294 7.28054L43.1399 7.26885C44.7839 7.2682 46.1091 6.17735 46.1085 4.83868L46.1076 2.42786C46.1071 1.08313 44.7737 -0.000604201 43.1371 4.44719e-05L13.634 0.0117382C11.99 0.0123898 10.6648 1.10324 10.6654 2.44191L10.6663 4.85273C10.6594 6.19746 11.9928 7.28119 13.6294 7.28054Z" fill="#EF6D69"/>
<path d="M46.1044 4.34211L46.1038 2.76818C46.1032 1.23567 44.7656 0.000530239 43.1239 0.00118094L13.5287 0.0129112C11.8795 0.0135648 10.5503 1.25667 10.5509 2.78227L10.5515 4.3562L46.1044 4.34211Z" fill="#F1F5F1"/>
<path d="M28.2597 37.5036L28.5411 37.5035C36.2945 37.5004 42.5792 31.2107 42.5762 23.4573L42.5697 7.27649L14.1997 7.28774L14.2061 23.4611C14.2092 31.222 20.4988 37.5067 28.2597 37.5036Z" fill="#FF2514"/>
<path d="M28.28 32.7863L28.517 32.7862C35.0634 32.7836 40.3709 27.4719 40.3683 20.9255L40.3629 7.26994L16.4213 7.27942L16.4267 20.935C16.4219 27.4814 21.7337 32.7889 28.28 32.7863Z" fill="#FC7C71"/>
<path d="M20.4301 32.3155C18.941 30.8276 18.5033 28.8579 19.4508 27.9097C20.3984 26.9614 22.3684 27.4049 23.8574 28.8854C25.3465 30.3733 25.7842 32.343 24.8367 33.2913C23.8892 34.2395 21.9192 33.796 20.4301 32.3155Z" fill="white"/>
<path d="M27.1159 10.3188L27.1181 15.8506L25.8888 15.8511L25.8881 14.1997L21.4955 11.2319L21.5008 24.4135L25.891 21.4422L25.8904 19.9537L27.1197 19.9532L27.1208 22.8339L29.6683 22.8329L29.6671 19.7893L30.889 19.7888L30.8896 21.4402L35.2822 24.4081L35.277 11.2264L30.8868 14.1977L30.8873 15.6862L29.6655 15.6867L29.6633 10.3178L37.3131 10.3148L37.3119 7.27115L19.4649 7.27823L19.4661 10.3218L27.1159 10.3188Z" fill="#EB5757"/>
<path d="M28.4036 45.6495C29.1886 45.6492 29.8183 46.2858 29.8186 47.0633L29.8209 52.9432C29.8213 53.7282 29.1846 54.3579 28.4071 54.3582C27.6295 54.3585 26.9924 53.7219 26.9921 52.9443L26.9898 47.0719C26.982 46.2869 27.6186 45.6498 28.4036 45.6495Z" fill="#F2847C"/>
<path d="M12.6794 39.1241C13.0422 39.124 13.4051 39.2646 13.6793 39.5384C14.2349 40.0936 14.2352 40.9897 13.68 41.5453L9.52727 45.7014C8.97208 46.257 8.07603 46.2574 7.5204 45.7022C6.96478 45.147 6.96442 44.2509 7.51961 43.6953L11.6724 39.5392C11.9537 39.2651 12.3165 39.1243 12.6794 39.1241Z" fill="#F2847C"/>
<path d="M1.42433 23.3921L7.2968 23.3898C8.08177 23.3895 8.71149 24.0261 8.7118 24.8037C8.71211 25.5886 8.07549 26.2183 7.29792 26.2186L1.42545 26.221C0.640477 26.2213 0.0107688 25.5847 0.0104606 24.8071C0.0101524 24.0295 0.646761 23.3924 1.42433 23.3921Z" fill="#F2847C"/>
<path d="M44.1375 39.1413C44.5004 39.1411 44.8633 39.2817 45.1374 39.5556L49.2935 43.7084C49.8491 44.2636 49.8495 45.1596 49.2943 45.7152C48.7391 46.2709 47.843 46.2712 47.2874 45.716L43.1313 41.5632C42.5757 41.0081 42.5754 40.112 43.1305 39.5638C43.4118 39.2823 43.7746 39.1414 44.1375 39.1413Z" fill="#F2847C"/>
<path d="M49.5224 23.4175L55.4023 23.4151C56.1798 23.4148 56.817 24.0515 56.8173 24.829C56.8176 25.614 56.181 26.2437 55.4034 26.244L49.5309 26.2463C48.7459 26.2466 48.1162 25.61 48.1159 24.8325C48.1082 24.0549 48.7448 23.4178 49.5224 23.4175Z" fill="#F2847C"/>
</g>
<defs>
<clipPath id="clip0_649_383">
<rect width="56.8068" height="55.97" fill="white" transform="translate(56.829 55.97) rotate(179.977)"/>
</clipPath>
</defs>
</svg>
