<svg width="61" height="61" viewBox="0 0 61 61" fill="none" xmlns="http://www.w3.org/2000/svg">
<g opacity="0.5" clip-path="url(#clip0_649_405)">
<path d="M26.8844 57.362V59.2059C26.8844 60.1311 27.6356 60.8809 28.5626 60.8809H32.563C33.477 60.8809 34.2175 60.1413 34.2175 59.2296V57.362H26.8844Z" fill="#CDCDCD"/>
<path d="M37.662 56.6574V51.9993C37.2647 51.9993 23.7293 51.9993 23.4397 51.9993V56.6435C23.4397 57.174 23.8706 57.6036 24.4017 57.6036H36.7135C37.2376 57.6036 37.662 57.1801 37.662 56.6574Z" fill="#EBF0E6"/>
<path d="M49.3564 27.1185C49.3564 16.8393 41.0772 8.49064 30.811 8.35148C20.425 8.21093 11.9476 16.386 11.749 26.7508C11.6427 32.296 13.9467 37.305 17.6855 40.8066C19.3334 42.3503 20.3425 44.526 20.3425 46.8786H40.7596C40.7596 44.5251 41.7687 42.3498 43.4157 40.8075C47.072 37.3836 49.3564 32.5175 49.3564 27.1185Z" fill="#EFEFEF"/>
<path d="M20.1084 40.8066C16.3696 37.3054 14.0656 32.296 14.1719 26.7513C14.3612 16.8817 22.0571 8.99745 31.759 8.38778C31.4452 8.36824 31.129 8.35567 30.811 8.35148C20.425 8.21093 11.9472 16.3865 11.749 26.7513C11.6427 32.296 13.9467 37.3054 17.685 40.8066C19.3693 42.3838 20.342 44.5735 20.342 46.8786H22.7654C22.7654 44.5735 21.7927 42.3838 20.1084 40.8066Z" fill="#CDCDCD"/>
<path d="M20.3421 46.8786V49.2381C20.3421 50.8968 21.6892 52.2413 23.3511 52.2413H37.7538C39.4139 52.2413 40.7596 50.8982 40.7596 49.2414V46.8786C39.8116 46.8786 21.229 46.8786 20.3421 46.8786Z" fill="#FBFCFA"/>
<path d="M22.7869 49.2381V46.8786H20.3421V49.2381C20.3421 50.8968 21.6892 52.2413 23.3511 52.2413H25.7955C24.134 52.2413 22.7869 50.8968 22.7869 49.2381Z" fill="#D3D3CF"/>
<path d="M6.95999 27.7644H4.4303C3.92809 27.7644 3.52147 27.3586 3.52147 26.8574C3.52147 26.3566 3.92809 25.9503 4.4303 25.9503H6.95999C7.46174 25.9503 7.86882 26.3566 7.86882 26.8574C7.86882 27.3586 7.46174 27.7644 6.95999 27.7644Z" fill="#CDCDCD"/>
<path d="M56.6718 27.7644H54.1421C53.6398 27.7644 53.2332 27.3586 53.2332 26.8574C53.2332 26.3566 53.6398 25.9503 54.1421 25.9503H56.6718C57.1735 25.9503 57.5806 26.3566 57.5806 26.8574C57.5806 27.3586 57.1735 27.7644 56.6718 27.7644Z" fill="#CDCDCD"/>
<path d="M7.14287 40.3459C6.892 39.9121 7.04075 39.3574 7.47534 39.107L9.66604 37.8444C10.1011 37.594 10.6565 37.7424 10.9073 38.1762C11.1587 38.6099 11.0095 39.1647 10.5749 39.4151L8.38417 40.6777C7.94957 40.9281 7.39374 40.7796 7.14287 40.3459Z" fill="#CDCDCD"/>
<path d="M50.1942 15.5385C49.9433 15.1048 50.0921 14.55 50.5267 14.2997L52.7178 13.037C53.1524 12.7867 53.7083 12.9351 53.9591 13.3689C54.21 13.8031 54.0613 14.3574 53.6262 14.6077L51.4355 15.8704C51.0009 16.1207 50.4451 15.9723 50.1942 15.5385Z" fill="#CDCDCD"/>
<path d="M41.8923 7.25224C41.4572 7.00186 41.3085 6.44757 41.5593 6.01336L42.8244 3.82694C43.0753 3.3932 43.6311 3.24427 44.0657 3.49512C44.5003 3.7455 44.6491 4.30025 44.3982 4.734L43.1336 6.92041C42.8822 7.35416 42.3264 7.50308 41.8923 7.25224Z" fill="#CDCDCD"/>
<path d="M30.5507 4.21972C30.049 4.21972 29.6423 3.81343 29.6423 3.31267V0.78791C29.6423 0.286682 30.049 -0.119141 30.5507 -0.119141C31.0529 -0.119141 31.4595 0.286682 31.4595 0.78791V3.31267C31.4595 3.81343 31.0529 4.21972 30.5507 4.21972Z" fill="#CDCDCD"/>
<path d="M17.9684 6.92041L16.7033 4.734C16.4525 4.30025 16.6017 3.7455 17.0363 3.49512C17.4709 3.24427 18.0267 3.3932 18.2776 3.82694L19.5422 6.01336C19.7931 6.44757 19.6443 7.00186 19.2097 7.25224C18.7751 7.50308 18.2193 7.35416 17.9684 6.92041Z" fill="#CDCDCD"/>
<path d="M52.7178 40.6777L50.5267 39.4151C50.0921 39.1647 49.9433 38.6099 50.1942 38.1762C50.4451 37.7424 51.0009 37.594 51.4355 37.8444L53.6262 39.107C54.0613 39.3574 54.21 39.9121 53.9591 40.3459C53.7083 40.7796 53.1524 40.9281 52.7178 40.6777Z" fill="#CDCDCD"/>
<path d="M9.66651 15.8704L7.47534 14.6077C7.04075 14.3574 6.892 13.8031 7.14287 13.3689C7.39374 12.9351 7.94957 12.7867 8.38417 13.037L10.5749 14.2997C11.0099 14.55 11.1587 15.1048 10.9078 15.5385C10.6565 15.9723 10.1011 16.1207 9.66651 15.8704Z" fill="#CDCDCD"/>
<path d="M31.4596 34.9561V29.8219L37.2395 25.3295C37.0003 24.7566 36.7237 24.2037 36.4136 23.6722L31.4596 27.5229V18.6734C30.8963 18.3598 30.2057 18.3598 29.6424 18.6734V27.5499L24.6772 23.6904C24.3681 24.2223 24.0925 24.7761 23.8542 25.3495L29.6424 29.8485V34.978L22.7882 30.6354C22.7878 30.6638 22.7868 30.6917 22.7868 30.7201C22.7868 31.4578 22.8442 32.1824 22.9543 32.8889L29.6424 37.1263V46.8786H31.4596V37.1044L38.1511 32.8651C38.2583 32.1656 38.3152 31.4499 38.3152 30.7201C38.3152 30.6848 38.3138 30.6494 38.3134 30.6136L31.4596 34.9561Z" fill="#708F3B"/>
</g>
<defs>
<clipPath id="clip0_649_405">
<rect width="61" height="61" fill="white"/>
</clipPath>
</defs>
</svg>
