<svg width="33" height="35" viewBox="0 0 33 35" fill="none" xmlns="http://www.w3.org/2000/svg">
<path d="M14.5226 24.5305C17.0683 21.9609 17.0683 17.7946 14.5226 15.225C11.9768 12.6553 7.84925 12.6553 5.30347 15.225C2.75769 17.7946 2.75769 21.9609 5.30347 24.5305C7.84925 27.1002 11.9768 27.1002 14.5226 24.5305Z" fill="#333333"/>
<path d="M5.25381 0.807701L9.91252 19.8801L28.2653 23.9474" stroke="#4D4D4D" stroke-width="6.0141" stroke-miterlimit="10"/>
<path d="M12.7623 22.7538C14.336 21.1654 14.336 18.5901 12.7623 17.0017C11.1887 15.4133 8.63732 15.4133 7.06368 17.0017C5.49004 18.5901 5.49004 21.1654 7.06368 22.7538C8.63732 24.3422 11.1887 24.3422 12.7623 22.7538Z" fill="#666666"/>
<path d="M33 35C26.7848 35.0274 21.7301 29.9691 21.6976 23.7011C21.6651 17.4331 26.6817 12.3256 32.8915 12.2927L33 35Z" fill="#666666"/>
</svg>
