<svg width="59" height="33" viewBox="0 0 59 33" fill="none" xmlns="http://www.w3.org/2000/svg">
<path d="M39.2438 0.706175L18.5101 3.64586L22.2957 30.7982L50.6438 26.7747C56.0781 26.0028 59.6359 19.2968 58.5891 11.8025C57.5424 4.30277 44.6727 -0.0656968 39.2438 0.706175Z" fill="#999999"/>
<path d="M0 6.27351L34.5743 1.36856C42.0043 0.312028 48.8704 5.53996 49.9171 13.0342L15.3428 17.9447C7.91276 18.9957 1.04672 13.7733 0 6.27351Z" fill="#E6E6E6"/>
<path d="M22.2963 30.8023C27.7304 30.0307 31.2883 23.3253 30.2432 15.8252C29.198 8.32519 23.9455 2.87067 18.5114 3.64222C13.0773 4.41378 9.51934 11.1192 10.5645 18.6193C11.6097 26.1193 16.8622 31.5738 22.2963 30.8023Z" fill="#E6E6E6"/>
<path d="M22.0516 29.0793C17.5664 29.7143 13.1789 24.9134 12.2678 18.3771C11.3566 11.8408 14.2636 6.00527 18.7487 5.36478C23.2339 4.72429 27.6214 9.5307 28.5326 16.067C29.4437 22.6087 26.5368 28.4443 22.0516 29.0793Z" fill="#333333"/>
<path d="M21.6937 26.4955C18.727 26.917 15.5164 22.9536 14.8276 18.0158C14.1388 13.078 16.1401 8.37563 19.1067 7.95411C22.0733 7.53259 25.284 11.496 25.9727 16.4338C26.6615 21.3716 24.6603 26.0739 21.6937 26.4955Z" fill="#1A1A1A"/>
<path d="M8.67204 5.0418L43.2463 0.13138C50.6764 -0.925155 57.5424 4.30277 58.5891 11.7971L24.0149 16.7075C16.5848 17.764 9.71334 12.5416 8.67204 5.0418Z" fill="#F2F2F2"/>
<path opacity="0.5" d="M19.6599 22.7839C21.5472 24.2182 22.5614 26.0794 21.9214 26.9389C21.2815 27.7983 19.2314 27.3276 17.3386 25.8933C15.4513 24.459 14.4371 22.5978 15.0771 21.7383C15.7225 20.8789 17.7725 21.3442 19.6599 22.7839Z" fill="white"/>
</svg>
