<svg width="5" height="2" viewBox="0 0 5 2" fill="none" xmlns="http://www.w3.org/2000/svg">
<path d="M0.71613 0.196655C0.683532 0.196655 0.647681 0.196658 0.621603 0.219421C0.595525 0.245436 0.58899 0.287706 0.58573 0.326728C0.562912 0.638908 0.572696 0.954342 0.611814 1.26327C0.618334 1.30229 0.624852 1.34457 0.65093 1.36733C0.680268 1.3901 0.719385 1.39009 0.751983 1.38684C1.77882 1.29254 2.80892 1.26652 3.83902 1.30879C3.90421 1.31204 3.98245 1.30879 4.0183 1.247C4.0346 1.21774 4.03786 1.17872 4.03786 1.14295C4.04112 0.908817 4.12261 0.525091 3.92702 0.365749C3.73795 0.209659 3.09903 0.287701 2.86432 0.271442C2.15043 0.229168 1.43328 0.196655 0.71613 0.196655Z" fill="#DCE0E2"/>
</svg>
