<svg width="22" height="25" viewBox="0 0 22 25" fill="none" xmlns="http://www.w3.org/2000/svg">
<path d="M21.9895 19.4431C22.0361 19.8433 21.9273 20.1913 21.6635 20.4871L18.5659 23.9319C18.4262 24.1059 18.2438 24.2539 18.0186 24.3756C17.7935 24.4974 17.5723 24.5757 17.355 24.6104C17.3395 24.6104 17.2928 24.6149 17.2151 24.6236C17.1376 24.6323 17.0366 24.6367 16.9124 24.6367C16.6174 24.6367 16.1399 24.5802 15.48 24.467C14.8201 24.3539 14.0128 24.0755 13.058 23.6319C12.1029 23.1882 11.02 22.5226 9.80895 21.6354C8.59792 20.7482 7.30917 19.5302 5.94283 17.9816C4.85597 16.7811 3.95543 15.6328 3.24121 14.5367C2.52699 13.4406 1.9525 12.4271 1.51776 11.4962C1.08298 10.5654 0.756921 9.72157 0.539549 8.96472C0.322176 8.20787 0.174674 7.55542 0.0970411 7.00736C0.0194082 6.4593 -0.0116449 6.02868 0.00388164 5.7155C0.0194082 5.40232 0.0271715 5.22833 0.0271715 5.19353C0.0582247 4.94995 0.128094 4.70202 0.23678 4.44974C0.345466 4.19745 0.477442 3.99302 0.632708 3.83643L3.73026 0.365374C3.94763 0.121791 4.19606 0 4.47554 0C4.67738 0 4.85594 0.0652454 5.0112 0.195736C5.16647 0.326227 5.29844 0.487166 5.40713 0.678552L7.89915 5.97648C8.03888 6.25486 8.0777 6.55934 8.01559 6.88992C7.95349 7.22049 7.82151 7.49887 7.61967 7.72506L6.47846 9.00387C6.44741 9.03866 6.42024 9.09521 6.39695 9.1735C6.37366 9.2518 6.36201 9.31705 6.36201 9.36924C6.42412 9.73462 6.56386 10.1522 6.78123 10.622C6.96755 11.0395 7.25479 11.5484 7.64296 12.1487C8.03112 12.749 8.58231 13.4405 9.29654 14.2235C9.99523 15.0239 10.6163 15.6458 11.1597 16.0896C11.703 16.5331 12.1573 16.8594 12.5222 17.0682C12.8871 17.277 13.1666 17.4031 13.3606 17.4465L13.6517 17.5118C13.6827 17.5118 13.7333 17.4987 13.8031 17.4726C13.873 17.4465 13.9234 17.4161 13.9545 17.3813L15.282 15.8676C15.5616 15.5892 15.8875 15.45 16.2602 15.45C16.5242 15.45 16.7337 15.5022 16.889 15.6066H16.9122L21.4072 18.5818C21.7333 18.8082 21.9274 19.0952 21.9895 19.4431Z" fill="#708F3B"/>
</svg>
