<svg width="3" height="9" viewBox="0 0 3 9" fill="none" xmlns="http://www.w3.org/2000/svg">
<path d="M2.20979 1.06076C2.20653 1.12579 2.19676 1.20383 2.14134 1.2331C2.12503 1.24285 2.10546 1.24611 2.0859 1.24611C1.92615 1.26562 1.76641 1.27537 1.60666 1.27863C1.55776 1.27863 1.50558 1.27862 1.46972 1.24285C1.43712 1.20708 1.4306 1.15506 1.42734 1.10629C1.4143 0.9372 1.40452 0.768113 1.39148 0.599026C1.39148 0.589271 1.39149 0.576262 1.39801 0.566507C1.40453 0.560004 1.41756 0.559998 1.42734 0.559998C1.64251 0.582759 1.88051 0.579511 2.08916 0.63479C2.28803 0.686817 2.21957 0.872161 2.20979 1.06076Z" fill="#CAD1D8"/>
<path d="M1.45263 1.56812C1.43633 1.56812 1.42003 1.56812 1.40699 1.57463C1.39721 1.58113 1.38741 1.59413 1.38415 1.60714C1.34829 1.68519 1.3483 1.77299 1.3483 1.86079C1.3483 2.00388 1.35156 2.14372 1.35156 2.28681C1.56345 2.28681 1.79163 2.29006 2.00026 2.24778C2.18281 2.21201 2.19911 2.05917 2.16651 1.87706C2.10783 1.50633 1.71342 1.57787 1.45263 1.56812Z" fill="#CAD1D8"/>
<path d="M1.49495 2.60538C1.45909 2.81024 1.45255 3.01835 1.47537 3.2232C1.47537 3.23296 1.47864 3.24596 1.48516 3.25247C1.49168 3.25897 1.5047 3.26222 1.51448 3.26222C1.68072 3.27523 1.84697 3.29149 2.01647 3.30449C2.21204 3.32075 2.21203 2.86226 2.12728 2.72569C2.07839 2.64765 2.00015 2.62164 1.9154 2.60538C1.87303 2.60213 1.50147 2.57286 1.49495 2.60538Z" fill="#CAD1D8"/>
<path d="M1.46572 3.69472C1.41682 3.9321 1.41682 4.17924 1.46572 4.41663C1.46898 4.42638 1.46899 4.43613 1.47551 4.44264C1.48203 4.45239 1.49506 4.45239 1.5081 4.45239C1.66132 4.45239 1.81129 4.4524 1.96451 4.44915C2.01993 4.44915 2.07861 4.44589 2.12099 4.40687C2.16011 4.36785 2.16663 4.30281 2.16989 4.24102C2.17641 4.12721 2.18295 4.01665 2.18621 3.90283C2.19273 3.763 2.22206 3.73699 2.09818 3.70773C1.90258 3.65895 1.66132 3.68496 1.46572 3.69472Z" fill="#CAD1D8"/>
<path d="M2.21232 5.19716C2.20906 5.2622 2.19929 5.34024 2.14387 5.36951C2.12757 5.37926 2.10799 5.38252 2.08843 5.38252C1.92868 5.40203 1.76894 5.41179 1.60919 5.41504C1.56029 5.41504 1.50812 5.41503 1.47225 5.37926C1.43965 5.34349 1.43313 5.29147 1.42987 5.24269C1.41683 5.0736 1.40705 4.9045 1.39401 4.7354C1.39401 4.72565 1.39402 4.71265 1.40054 4.70289C1.40706 4.69639 1.42009 4.69638 1.42987 4.69638C1.64504 4.71914 1.88304 4.7159 2.09169 4.77118C2.29056 4.82646 2.2221 5.01181 2.21232 5.19716Z" fill="#CAD1D8"/>
<path d="M1.45263 5.70438C1.43633 5.70438 1.42003 5.70437 1.40699 5.71088C1.39721 5.71738 1.38741 5.73039 1.38415 5.74339C1.34829 5.82143 1.3483 5.90923 1.3483 5.99702C1.3483 6.1401 1.35156 6.27992 1.35156 6.42299C1.56345 6.42299 1.79163 6.42625 2.00026 6.38397C2.18281 6.34821 2.19911 6.19538 2.16651 6.01329C2.10783 5.64585 1.71342 5.71413 1.45263 5.70438Z" fill="#CAD1D8"/>
<path d="M1.49495 6.74492C1.45909 6.9498 1.45255 7.15792 1.47537 7.3628C1.47537 7.37255 1.47864 7.38556 1.48516 7.39206C1.49168 7.39857 1.5047 7.40182 1.51448 7.40182C1.68072 7.41483 1.84697 7.43109 2.01647 7.4441C2.21204 7.46036 2.21203 7.00183 2.12728 6.86524C2.07839 6.7872 2.00015 6.76118 1.9154 6.74492C1.87303 6.73842 1.50147 6.7124 1.49495 6.74492Z" fill="#CAD1D8"/>
<path d="M1.46572 7.83437C1.41682 8.07175 1.41682 8.31887 1.46572 8.55625C1.46898 8.56601 1.46899 8.57577 1.47551 8.58227C1.48203 8.59203 1.49506 8.59203 1.5081 8.59203C1.66132 8.59203 1.81129 8.59202 1.96451 8.58877C2.01993 8.58877 2.07861 8.58552 2.12099 8.5465C2.16011 8.50747 2.16663 8.44245 2.16989 8.38066C2.17641 8.26685 2.18295 8.15629 2.18621 8.04248C2.19273 7.90265 2.22206 7.87663 2.09818 7.84737C1.90258 7.79534 1.66132 7.82461 1.46572 7.83437Z" fill="#CAD1D8"/>
<path d="M1.00837 1.06076C1.00511 1.12579 0.995307 1.20383 0.939892 1.2331C0.923594 1.24285 0.904061 1.24611 0.884503 1.24611C0.724778 1.26562 0.565022 1.27537 0.405297 1.27863C0.356401 1.27863 0.304272 1.27862 0.268415 1.24285C0.235818 1.20708 0.229297 1.15506 0.226037 1.10629C0.212999 0.9372 0.203224 0.768113 0.190186 0.599026C0.190186 0.589271 0.190152 0.576262 0.196672 0.566507C0.203191 0.560004 0.216258 0.559998 0.226037 0.559998C0.441177 0.582759 0.679145 0.579511 0.887766 0.63479C1.08661 0.686817 1.01815 0.872161 1.00837 1.06076Z" fill="#CAD1D8"/>
<path d="M0.246474 1.56812C0.230175 1.56812 0.213872 1.56812 0.200833 1.57463C0.191054 1.58113 0.181293 1.59413 0.178033 1.60714C0.142177 1.68519 0.142181 1.77299 0.142181 1.86079C0.142181 2.00388 0.145444 2.14372 0.145444 2.28681C0.357323 2.28681 0.585498 2.29006 0.794117 2.24778C0.976659 2.21201 0.992961 2.05917 0.960364 1.87706C0.904949 1.50633 0.510508 1.57787 0.246474 1.56812Z" fill="#CAD1D8"/>
<path d="M0.2921 2.60538C0.256245 2.81024 0.249747 3.01835 0.272564 3.2232C0.272564 3.23296 0.275793 3.24596 0.282312 3.25247C0.288831 3.25897 0.301898 3.26222 0.311677 3.26222C0.477914 3.27523 0.644124 3.29149 0.813621 3.30449C1.00919 3.32075 1.00922 2.86226 0.924474 2.72569C0.875581 2.64765 0.797343 2.62164 0.712595 2.60538C0.670221 2.60213 0.298619 2.57286 0.2921 2.60538Z" fill="#CAD1D8"/>
<path d="M0.262931 3.69472C0.214033 3.9321 0.214033 4.17924 0.262931 4.41663C0.266191 4.42638 0.266201 4.43613 0.272721 4.44264C0.2825 4.45239 0.292272 4.45239 0.305312 4.45239C0.458528 4.45239 0.608492 4.4524 0.761708 4.44915C0.817126 4.44915 0.875798 4.44589 0.918177 4.40687C0.957296 4.36785 0.963824 4.30281 0.967084 4.24102C0.973603 4.12721 0.980099 4.01665 0.983359 3.90283C0.989879 3.763 1.01921 3.73699 0.895335 3.70773C0.699741 3.65895 0.458526 3.68496 0.262931 3.69472Z" fill="#CAD1D8"/>
<path d="M1.00935 5.19716C1.00609 5.2622 0.996281 5.34024 0.940862 5.36951C0.924563 5.37926 0.905028 5.38252 0.885469 5.38252C0.725732 5.40203 0.565965 5.41179 0.406228 5.41504C0.357329 5.41504 0.305196 5.41503 0.269336 5.37926C0.236737 5.34349 0.230216 5.29147 0.226956 5.24269C0.213916 5.0736 0.204141 4.9045 0.191101 4.7354C0.191101 4.72565 0.191068 4.71265 0.197588 4.70289C0.204107 4.69639 0.217176 4.69638 0.226956 4.69638C0.442111 4.71914 0.680096 4.7159 0.888732 4.77118C1.08759 4.82646 1.01913 5.01181 1.00935 5.19716Z" fill="#CAD1D8"/>
<path d="M0.246474 5.70438C0.230175 5.70438 0.213872 5.70437 0.200833 5.71088C0.191054 5.71738 0.181293 5.73039 0.178033 5.74339C0.142177 5.82143 0.142181 5.90923 0.142181 5.99702C0.142181 6.1401 0.145444 6.27992 0.145444 6.42299C0.357323 6.42299 0.585498 6.42625 0.794117 6.38397C0.976659 6.34821 0.992961 6.19538 0.960364 6.01329C0.904949 5.64585 0.510508 5.71413 0.246474 5.70438Z" fill="#CAD1D8"/>
<path d="M0.2921 6.74492C0.256245 6.9498 0.249747 7.15792 0.272564 7.3628C0.272564 7.37255 0.275793 7.38556 0.282312 7.39206C0.288831 7.39857 0.301898 7.40182 0.311677 7.40182C0.477914 7.41483 0.644124 7.43109 0.813621 7.4441C1.00919 7.46036 1.00922 7.00183 0.924474 6.86524C0.875581 6.7872 0.797343 6.76118 0.712595 6.74492C0.670221 6.73842 0.298619 6.7124 0.2921 6.74492Z" fill="#CAD1D8"/>
<path d="M0.262931 7.83437C0.214033 8.07175 0.214033 8.31887 0.262931 8.55625C0.266191 8.56601 0.266201 8.57577 0.272721 8.58227C0.2825 8.59203 0.292272 8.59203 0.305312 8.59203C0.458528 8.59203 0.608492 8.59202 0.761708 8.58877C0.817126 8.58877 0.875798 8.58552 0.918177 8.5465C0.957296 8.50747 0.963824 8.44245 0.967084 8.38066C0.973603 8.26685 0.980099 8.15629 0.983359 8.04248C0.989879 7.90265 1.01921 7.87663 0.895335 7.84737C0.699741 7.79534 0.458526 7.82461 0.262931 7.83437Z" fill="#CAD1D8"/>
</svg>
