<svg width="9" height="9" viewBox="0 0 9 9" fill="none" xmlns="http://www.w3.org/2000/svg">
<path d="M8.13687 1.21403C8.12384 1.32134 8.08471 1.44492 7.86631 1.49044C7.79785 1.50345 7.72288 1.50995 7.64464 1.51321C7.02202 1.54247 6.3994 1.56198 5.77352 1.56848C5.58446 1.57173 5.37582 1.56848 5.23891 1.50995C5.10852 1.45467 5.08896 1.36687 5.07592 1.28883C5.03029 1.01893 4.98465 0.745775 4.93902 0.475874C4.93576 0.456363 4.93576 0.436851 4.9651 0.423843C4.99444 0.410836 5.03681 0.414088 5.07592 0.414088C5.91695 0.45311 6.85252 0.44335 7.67073 0.531149C8.4433 0.618948 8.17273 0.918118 8.13687 1.21403Z" fill="#B8C2C9"/>
<path d="M5.1569 2.03033C5.09496 2.03033 5.03303 2.03034 4.98088 2.04334C4.93524 2.05635 4.90917 2.07586 4.88635 2.09537C4.74944 2.21894 4.74616 2.36202 4.74942 2.50185C4.75268 2.72947 4.75921 2.95709 4.76247 3.18472C5.59373 3.18146 6.48691 3.18797 7.30512 3.12293C8.01902 3.0644 8.08096 2.82052 7.96035 2.5246C7.72564 1.93603 6.187 2.04659 5.1569 2.03033Z" fill="#B8C2C9"/>
<path d="M5.32641 3.69851C5.18298 4.02369 5.15364 4.36187 5.24491 4.6903C5.24817 4.70656 5.25795 4.72607 5.28729 4.73907C5.31663 4.75208 5.359 4.75209 5.40138 4.75534C6.0566 4.7781 6.70856 4.80086 7.36378 4.82362C8.12983 4.84964 8.13635 4.11474 7.79408 3.89362C7.59849 3.77005 7.29532 3.72453 6.96934 3.69851C6.80961 3.68876 5.359 3.64648 5.32641 3.69851Z" fill="#B8C2C9"/>
<path d="M5.2156 5.44795C5.02327 5.82842 5.02329 6.22515 5.21235 6.60237C5.21887 6.61863 5.22863 6.63164 5.25471 6.64139C5.28731 6.6544 5.33621 6.6544 5.37858 6.6544C5.97511 6.6544 6.57165 6.65115 7.16492 6.65115C7.38006 6.65115 7.61476 6.6479 7.77122 6.58286C7.92769 6.51782 7.94725 6.41376 7.96029 6.31946C7.98311 6.1406 8.00592 5.9585 8.02873 5.77964C8.05807 5.55526 8.16564 5.51624 7.6832 5.46421C6.92695 5.38616 5.98163 5.43169 5.2156 5.44795Z" fill="#B8C2C9"/>
<path d="M8.13627 7.85762C8.12323 7.96493 8.0841 8.08851 7.8657 8.13404C7.79724 8.14704 7.72227 8.15355 7.64404 8.1568C7.02142 8.18607 6.39881 8.20559 5.77294 8.21209C5.58387 8.21534 5.37524 8.21208 5.23833 8.15355C5.10794 8.09826 5.08838 8.01046 5.07534 7.93242C5.0297 7.66251 4.98407 7.38934 4.93844 7.11943C4.93518 7.09992 4.93518 7.08041 4.96452 7.0674C4.99386 7.05439 5.03622 7.05764 5.07534 7.05764C5.91636 7.09667 6.85192 7.08692 7.67012 7.17472C8.44269 7.25927 8.17212 7.55844 8.13627 7.85762Z" fill="#B8C2C9"/>
<path d="M3.42649 1.21403C3.41345 1.32134 3.37435 1.44492 3.15595 1.49044C3.08749 1.50345 3.0125 1.50995 2.93427 1.51321C2.31167 1.54247 1.68907 1.56198 1.0632 1.56848C0.874141 1.57173 0.665515 1.56848 0.528607 1.50995C0.398219 1.45467 0.378661 1.36687 0.365622 1.28883C0.319986 1.01893 0.274356 0.745775 0.22872 0.475874C0.22546 0.456363 0.225466 0.436851 0.254803 0.423843C0.284141 0.410836 0.326506 0.414088 0.365622 0.414088C1.20663 0.45311 2.14217 0.44335 2.96035 0.531149C3.7329 0.618948 3.46235 0.918118 3.42649 1.21403Z" fill="#B8C2C9"/>
<path d="M0.446584 2.03033C0.384647 2.03033 0.322717 2.03034 0.27056 2.04334C0.224922 2.05635 0.198851 2.07586 0.176032 2.09537C0.035859 2.21894 0.0358446 2.36202 0.0391045 2.50185C0.0423643 2.72947 0.0488967 2.95709 0.0521566 3.18472C0.883414 3.18146 1.7766 3.18797 2.59482 3.12293C3.30873 3.0644 3.37067 2.82052 3.25005 2.5246C3.01535 1.93603 1.47669 2.04659 0.446584 2.03033Z" fill="#B8C2C9"/>
<path d="M0.619498 3.69851C0.476067 4.02369 0.446729 4.36187 0.538003 4.6903C0.541263 4.70656 0.551044 4.72607 0.580382 4.73907C0.60972 4.75208 0.652089 4.75209 0.694467 4.75534C1.34969 4.7781 2.00165 4.80086 2.65687 4.82362C3.42292 4.84964 3.42945 4.11474 3.08717 3.89362C2.89158 3.77005 2.58841 3.72453 2.26243 3.69851C2.09944 3.68876 0.648836 3.64648 0.619498 3.69851Z" fill="#B8C2C9"/>
<path d="M0.505223 5.44795C0.312895 5.82842 0.312891 6.22515 0.501961 6.60237C0.50848 6.61863 0.518261 6.63164 0.54434 6.64139C0.576938 6.6544 0.625836 6.6544 0.668214 6.6544C1.26476 6.6544 1.85804 6.65115 2.45458 6.65115C2.66973 6.65115 2.90443 6.6479 3.0609 6.58286C3.21737 6.51782 3.23694 6.41376 3.24998 6.31946C3.2728 6.1406 3.29562 5.9585 3.31844 5.77964C3.34778 5.55526 3.45533 5.51624 2.97288 5.46421C2.21661 5.38616 1.27128 5.43169 0.505223 5.44795Z" fill="#B8C2C9"/>
<path d="M3.42597 7.85762C3.41293 7.96493 3.37383 8.08851 3.15543 8.13404C3.08697 8.14704 3.01198 8.15355 2.93375 8.1568C2.31114 8.18607 1.68853 8.20559 1.06266 8.21209C0.873597 8.21534 0.66497 8.21208 0.528061 8.15355C0.397671 8.09826 0.378113 8.01046 0.365074 7.93242C0.319438 7.66251 0.273807 7.38934 0.228171 7.11943C0.224911 7.09992 0.224917 7.08041 0.254254 7.0674C0.283592 7.05439 0.325957 7.05764 0.365074 7.05764C1.20609 7.09667 2.14164 7.08692 2.95983 7.17472C3.73239 7.25927 3.46183 7.55844 3.42597 7.85762Z" fill="#B8C2C9"/>
</svg>
