<svg width="21" height="13" viewBox="0 0 21 13" fill="none" xmlns="http://www.w3.org/2000/svg">
<path d="M0.0502276 2.3911C0.043708 1.96511 0.0632722 1.46432 0.320794 1.22694C0.467484 1.09036 0.656553 1.08386 0.832581 1.08061C6.93814 0.976552 13.0404 0.869241 19.146 0.765182C19.485 0.758678 19.8534 0.765181 20.1239 1.04809C20.4727 1.41555 20.5314 2.09844 20.5575 2.70328C20.6911 5.89334 20.6846 9.0964 20.5346 12.2832C16.4828 12.745 12.4178 11.8345 8.34962 11.8312C6.89902 11.828 5.44841 11.9418 4.00433 12.1141C3.11768 12.2182 1.40304 12.9889 0.650035 12.0849C-0.0149591 11.2882 0.151287 9.44761 0.138248 8.38751C0.10891 6.38762 0.0795655 4.39099 0.0502276 2.3911Z" fill="#C3D1DD"/>
</svg>
