<svg width="19" height="53" viewBox="0 0 19 53" fill="none" xmlns="http://www.w3.org/2000/svg">
<path d="M0.334108 0.94048C0.343888 0.670578 0.363453 0.374657 0.503623 0.186051C0.673131 -0.0480821 0.950204 -0.0220673 1.18817 0.0234585C2.4823 0.280354 3.75362 0.703091 5.04775 0.976246C7.12422 1.41524 9.23004 1.46078 11.3293 1.50955C12.9788 1.54532 14.6282 1.58109 16.2777 1.61686C16.8775 1.62987 17.549 1.60711 17.976 1.01852C17.5783 9.6229 17.5033 18.2565 17.7413 26.8707C17.9597 34.7336 18.4389 42.5966 18.2107 50.4595C18.2042 50.6709 18.1911 50.9083 18.0771 51.0514C17.9793 51.1749 17.8326 51.1912 17.7022 51.1977C14.0447 51.4481 10.384 51.6985 6.72654 51.9489C5.08361 52.0627 2.94193 52.7293 1.3316 52.3131C-0.0994422 51.9424 0.44821 49.4547 0.506886 47.9296C0.88502 37.9042 0.457993 27.869 0.265666 17.8436C0.151574 12.2146 0.112444 6.57267 0.334108 0.94048Z" fill="#A4B1BC"/>
</svg>
