<svg width="60" height="64" viewBox="0 0 60 64" fill="none" xmlns="http://www.w3.org/2000/svg">
<path d="M5.09021 38.6446C5.08369 38.3389 5.10323 37.9779 5.36075 37.8089C5.50744 37.7113 5.69651 37.7048 5.87254 37.7015C11.9781 37.6268 18.0804 37.5487 24.1859 37.4739C24.525 37.4707 24.8933 37.4739 25.1639 37.6788C25.5127 37.9422 25.5714 38.4332 25.5974 38.869C25.7311 41.1648 25.7246 43.4703 25.5746 45.7661C21.5227 46.0978 17.4578 45.4442 13.3896 45.4409C11.939 45.4409 10.4884 45.5222 9.04429 45.6458C8.15763 45.7206 6.443 46.2766 5.68999 45.623C5.025 45.0475 5.19125 43.724 5.17821 42.963C5.14561 41.5225 5.11954 40.0819 5.09021 38.6446Z" fill="#C3D1DD"/>
<path d="M40.3707 1.60934C40.3805 1.41423 40.4 1.20286 40.5402 1.06628C40.7097 0.897183 40.9868 0.916689 41.2247 0.949208C42.5189 1.13456 43.7902 1.44024 45.0843 1.63535C47.1608 1.95078 49.2666 1.98655 51.3659 2.01907C53.0154 2.04508 54.6648 2.0711 56.3143 2.09712C56.9141 2.10687 57.5856 2.09061 58.0126 1.66787C57.6149 7.86263 57.54 14.0769 57.7779 20.2782C57.9963 25.9396 58.4755 31.5978 58.2474 37.2593C58.2408 37.4121 58.2278 37.5845 58.1137 37.6853C58.0159 37.7731 57.8692 37.7861 57.7388 37.7926C54.0813 37.9715 50.4206 38.1536 46.7631 38.3324C45.1202 38.4137 42.9785 38.895 41.3682 38.5958C39.9371 38.3292 40.4848 36.5374 40.5434 35.4415C40.9216 28.2257 40.4945 21.0001 40.3022 13.7842C40.1881 9.72268 40.1523 5.66114 40.3707 1.60934Z" fill="#A4B1BC"/>
<path d="M32.935 16.3793C41.1432 15.5891 49.3546 14.7956 57.5627 14.0054C58.2505 13.9404 59.0687 13.9696 59.4501 14.8574C59.6489 15.3192 59.6685 15.9045 59.6783 16.4573C60.0303 32.0369 59.8934 47.6392 59.261 63.1961C51.5549 63.4139 43.8488 63.6286 36.1427 63.8464C34.8029 63.8855 33.4533 64.4805 32.7623 62.5067C32.107 60.6401 32.596 56.042 32.5667 53.9121C32.4852 47.9222 32.4689 41.9323 32.521 35.9456C32.5373 34.3067 32.7492 16.3793 32.935 16.3793Z" fill="#BAC3CC"/>
<path d="M33.7142 45.4507C33.9359 45.4279 34.1706 45.3987 34.3401 45.2556C34.5324 45.093 34.5879 44.8231 34.627 44.5759C35.0931 41.7273 35.1551 38.8267 35.217 35.9391C35.2724 33.3831 35.3246 30.8272 35.38 28.2712C35.393 27.7054 35.38 27.0778 34.9855 26.6713C34.5879 26.2616 33.9489 26.2356 33.3785 26.2388C29.7569 26.2421 26.1353 26.2486 22.5137 26.2518C22.6539 29.2143 22.7908 32.1767 22.931 35.1391C23.019 37.0252 23.107 38.921 22.9668 40.8071C22.8821 41.9517 21.7966 44.6215 22.5039 45.5905C23.2537 46.6181 26.4417 45.9482 27.5696 45.8962C29.6232 45.8019 31.6704 45.6523 33.7142 45.4507Z" fill="#CED4D8"/>
<path d="M1.16202 45.3401C4.50329 45.6003 7.86738 45.571 11.2054 45.2491C11.5314 34.3294 11.8541 23.4097 12.1801 12.4867C9.22998 12.2591 6.24728 12.116 3.2874 12.1778C2.26057 12.1973 1.38043 12.103 1.02837 13.1924C0.666537 14.311 1.11965 16.2394 1.15225 17.4198C1.32501 23.4064 1.33478 29.3996 1.28263 35.3862C1.27611 36.2219 1.07726 45.3336 1.16202 45.3401Z" fill="#BAC3CC"/>
<path d="M51.555 20.1286C51.5713 20.4115 51.617 20.7464 51.8712 20.8667C51.9527 20.9057 52.0407 20.9155 52.1288 20.9253C52.8589 21.0066 53.5924 21.0553 54.3291 21.0683C54.5507 21.0716 54.7984 21.0651 54.9582 20.9122C55.1114 20.7659 55.1375 20.535 55.1505 20.3237C55.2027 19.6018 55.2581 18.8831 55.3102 18.1612C55.3135 18.1124 55.3135 18.0571 55.2809 18.0246C55.2483 17.9921 55.1961 17.9954 55.1505 18.0019C54.1628 18.1027 53.061 18.0832 52.0994 18.3173C51.1965 18.5384 51.5127 19.3319 51.555 20.1286Z" fill="#C7CDD3"/>
<path d="M55.0561 22.2944C55.1278 22.2911 55.2028 22.2911 55.2647 22.3269C55.3169 22.3594 55.3494 22.4115 55.3755 22.4667C55.5385 22.7952 55.5385 23.1789 55.5353 23.5431C55.5287 24.148 55.5255 24.756 55.519 25.3609C54.5443 25.3544 53.4914 25.3707 52.5297 25.1951C51.6887 25.039 51.6203 24.3918 51.7604 23.6049C52.0375 22.0407 53.8467 22.3367 55.0561 22.2944Z" fill="#C7CDD3"/>
<path d="M54.8571 26.733C55.0267 27.6013 55.0593 28.4955 54.9517 29.3768C54.9452 29.4223 54.9386 29.4743 54.9028 29.5069C54.8669 29.5394 54.818 29.5459 54.7691 29.5491C53.9998 29.6077 53.2305 29.6694 52.4612 29.728C51.5615 29.7995 51.5549 27.8419 51.9559 27.2566C52.1841 26.9249 52.5427 26.8078 52.9241 26.7396C53.1131 26.7103 54.8213 26.5932 54.8571 26.733Z" fill="#C7CDD3"/>
<path d="M54.9875 31.3865C55.2125 32.3946 55.2125 33.4547 54.9908 34.4627C54.981 34.5018 54.9712 34.544 54.9419 34.5701C54.906 34.6058 54.8473 34.6058 54.7952 34.6058C54.0943 34.6026 53.3934 34.5993 52.6926 34.5961C52.4416 34.5961 52.1612 34.5831 51.9787 34.4107C51.7961 34.2384 51.77 33.9587 51.757 33.7083C51.7309 33.2303 51.7048 32.749 51.6788 32.271C51.6462 31.6694 51.519 31.5654 52.0862 31.432C52.9729 31.2239 54.0878 31.3442 54.9875 31.3865Z" fill="#C7CDD3"/>
<path d="M27.1717 29.3378C28.0453 29.2761 28.9059 29.0517 29.7828 29.081C29.936 29.0875 30.1153 29.1135 30.1903 29.2501C30.2294 29.3216 30.2294 29.4061 30.2294 29.4874C30.2294 29.7801 30.2294 30.0695 30.2261 30.3622C30.2261 30.4272 30.2261 30.4955 30.1903 30.5475C30.1283 30.6386 29.9979 30.6451 29.8871 30.6418C29.0754 30.6093 28.2637 30.58 27.4488 30.5475C26.8979 30.5247 25.5353 30.7296 25.0757 30.4499C24.5835 30.1508 24.942 29.7086 25.3169 29.5102C25.8646 29.211 26.5752 29.3801 27.1717 29.3378Z" fill="#DCE0E2"/>
<path d="M29.747 31.419C29.7959 31.419 29.8481 31.419 29.8872 31.4515C29.9263 31.4873 29.9361 31.5458 29.9394 31.5979C29.972 32.0271 29.9589 32.4596 29.9002 32.8888C29.8937 32.9408 29.8807 32.9994 29.8416 33.0319C29.7992 33.0644 29.7405 33.0612 29.6883 33.0579C28.1628 32.9311 26.6307 32.8953 25.1019 32.9538C25.0041 32.9571 24.89 32.9506 24.8378 32.8693C24.8118 32.827 24.8118 32.775 24.8085 32.723C24.8053 32.401 24.6814 31.871 24.9715 31.6499C25.2518 31.4353 26.2037 31.5393 26.5525 31.5231C27.6151 31.4613 28.6843 31.419 29.747 31.419Z" fill="#DCE0E2"/>
<path d="M29.7633 33.6205C29.7959 33.6237 29.8285 33.6302 29.8546 33.6498C29.8807 33.6758 29.8872 33.7148 29.8872 33.7506C29.9165 34.1538 29.897 34.5603 29.835 34.9602C28.3942 35.0123 26.9534 35.0643 25.5159 35.1131C25.4474 35.1163 25.3724 35.1163 25.3138 35.0838C25.2388 35.0415 25.2029 34.9537 25.1769 34.8692C24.7694 33.5977 25.6169 33.6758 26.6796 33.5815C27.7032 33.4937 28.7398 33.5067 29.7633 33.6205Z" fill="#DCE0E2"/>
<path d="M2.27029 14.6915C2.27355 14.7825 2.28985 14.8898 2.37135 14.9289C2.39743 14.9419 2.42678 14.9451 2.45612 14.9484C2.69085 14.9744 2.92884 14.9906 3.16684 14.9939C3.23856 14.9939 3.3168 14.9939 3.36896 14.9451C3.41787 14.8996 3.42765 14.8248 3.43091 14.7565C3.44721 14.5224 3.46676 14.2915 3.48306 14.0574C3.48306 14.0411 3.48307 14.0249 3.47329 14.0151C3.46351 14.0054 3.44721 14.0053 3.43091 14.0086C3.11141 14.0411 2.75605 14.0346 2.44633 14.1094C2.15291 14.1777 2.25725 14.4346 2.27029 14.6915Z" fill="#CAD1D8"/>
<path d="M3.40142 15.3906C3.42424 15.3906 3.45032 15.3906 3.46988 15.4004C3.48618 15.4101 3.49595 15.4264 3.50573 15.4459C3.55788 15.5532 3.55789 15.6768 3.55789 15.7939C3.55463 15.989 3.55463 16.1841 3.55137 16.3792C3.2352 16.3759 2.8962 16.3825 2.58655 16.3239C2.31601 16.2751 2.29321 16.0638 2.33884 15.8101C2.42685 15.3093 3.01028 15.4036 3.40142 15.3906Z" fill="#CAD1D8"/>
<path d="M3.33632 16.8247C3.39173 17.1044 3.4015 17.3938 3.36565 17.6767C3.36239 17.693 3.36239 17.7092 3.34935 17.719C3.33957 17.7288 3.32328 17.732 3.30698 17.732C3.05925 17.7515 2.81154 17.771 2.56381 17.7905C2.27372 17.8133 2.27046 17.1824 2.40084 16.9938C2.47581 16.8865 2.58988 16.8475 2.71374 16.828C2.77241 16.815 3.32328 16.7792 3.33632 16.8247Z" fill="#CAD1D8"/>
<path d="M3.37865 18.3238C3.45036 18.6489 3.45036 18.9904 3.37865 19.3155C3.37539 19.3285 3.37212 19.3416 3.36234 19.3513C3.3493 19.3611 3.33302 19.3643 3.31672 19.3643C3.09181 19.3643 2.86363 19.3611 2.63872 19.3611C2.55723 19.3611 2.46921 19.3578 2.40728 19.3025C2.34861 19.2472 2.33884 19.1562 2.33558 19.0749C2.3258 18.9188 2.31928 18.766 2.3095 18.6099C2.29972 18.4148 2.25735 18.3823 2.43989 18.34C2.72673 18.2717 3.08529 18.3108 3.37865 18.3238Z" fill="#CAD1D8"/>
<path d="M2.27029 20.3952C2.27355 20.4863 2.28985 20.5936 2.37135 20.6326C2.39743 20.6456 2.42678 20.6489 2.45612 20.6521C2.69085 20.6781 2.92884 20.6944 3.16684 20.6976C3.23856 20.6976 3.3168 20.6976 3.36896 20.6489C3.41787 20.6033 3.42765 20.5285 3.43091 20.4603C3.44721 20.2261 3.46676 19.9952 3.48306 19.7611C3.48306 19.7449 3.48307 19.7286 3.47329 19.7188C3.46351 19.7091 3.44721 19.7091 3.43091 19.7123C3.11141 19.7449 2.75605 19.7383 2.44633 19.8131C2.15291 19.8814 2.25725 20.1383 2.27029 20.3952Z" fill="#CAD1D8"/>
<path d="M3.40142 21.0944C3.42424 21.0944 3.45032 21.0944 3.46988 21.1041C3.48618 21.1139 3.49595 21.1301 3.50573 21.1496C3.55788 21.257 3.55789 21.3805 3.55789 21.4976C3.55463 21.6927 3.55463 21.8878 3.55137 22.0829C3.2352 22.0797 2.8962 22.0862 2.58655 22.0276C2.31601 21.9789 2.29321 21.7675 2.33884 21.5139C2.42685 21.0131 3.01028 21.1074 3.40142 21.0944Z" fill="#CAD1D8"/>
<path d="M3.33632 22.5252C3.39173 22.8049 3.4015 23.0943 3.36565 23.3772C3.36239 23.3934 3.36239 23.4097 3.34935 23.4195C3.33957 23.4292 3.32328 23.4325 3.30698 23.4325C3.05925 23.452 2.81154 23.4715 2.56381 23.491C2.27372 23.5138 2.27046 22.8829 2.40084 22.6943C2.47581 22.587 2.58988 22.548 2.71374 22.5285C2.77241 22.5187 3.32328 22.4829 3.33632 22.5252Z" fill="#CAD1D8"/>
<path d="M3.37865 24.0275C3.45036 24.3527 3.45036 24.6942 3.37865 25.0193C3.37539 25.0324 3.37212 25.0454 3.36234 25.0551C3.3493 25.0649 3.33302 25.0681 3.31672 25.0681C3.09181 25.0681 2.86363 25.0649 2.63872 25.0649C2.55723 25.0649 2.46921 25.0616 2.40728 25.0063C2.34861 24.9511 2.33884 24.86 2.33558 24.7787C2.3258 24.6226 2.31928 24.4698 2.3095 24.3137C2.29972 24.1186 2.25735 24.0861 2.43989 24.0438C2.72673 23.9755 3.08529 24.0145 3.37865 24.0275Z" fill="#CAD1D8"/>
<path d="M4.05669 14.6915C4.05995 14.7825 4.07624 14.8898 4.15774 14.9289C4.18382 14.9419 4.21317 14.9451 4.24251 14.9484C4.47723 14.9744 4.7152 14.9906 4.95318 14.9939C5.0249 14.9939 5.10314 14.9939 5.1553 14.9451C5.2042 14.8996 5.21398 14.8248 5.21724 14.7565C5.23354 14.5224 5.25311 14.2915 5.26941 14.0574C5.26941 14.0411 5.2694 14.0249 5.25962 14.0151C5.24984 14.0054 5.23354 14.0053 5.21724 14.0086C4.89776 14.0411 4.54244 14.0346 4.23274 14.1094C3.93934 14.1777 4.04365 14.4346 4.05669 14.6915Z" fill="#CAD1D8"/>
<path d="M5.18789 15.3906C5.21071 15.3906 5.23678 15.3906 5.25634 15.4004C5.27264 15.4101 5.28243 15.4264 5.29221 15.4459C5.34437 15.5532 5.34436 15.6768 5.34436 15.7939C5.3411 15.989 5.34109 16.1841 5.33783 16.3792C5.02162 16.3759 4.68261 16.3825 4.37291 16.3239C4.10234 16.2751 4.07952 16.0638 4.12516 15.8101C4.21318 15.3093 4.7967 15.4036 5.18789 15.3906Z" fill="#CAD1D8"/>
<path d="M5.12265 16.8247C5.17807 17.1044 5.18786 17.3938 5.152 17.6767C5.14874 17.693 5.14872 17.7092 5.13569 17.719C5.12591 17.7288 5.10961 17.732 5.09331 17.732C4.84557 17.7515 4.59785 17.771 4.35011 17.7905C4.06 17.8133 4.05674 17.1824 4.18713 16.9938C4.2621 16.8865 4.3762 16.8475 4.50006 16.828C4.55874 16.815 5.10961 16.7792 5.12265 16.8247Z" fill="#CAD1D8"/>
<path d="M5.16518 18.3238C5.23689 18.6489 5.23689 18.9904 5.16518 19.3155C5.16192 19.3285 5.15866 19.3416 5.14888 19.3513C5.13584 19.3611 5.11954 19.3643 5.10324 19.3643C4.87831 19.3643 4.65011 19.3611 4.42518 19.3611C4.34369 19.3611 4.25568 19.3578 4.19375 19.3025C4.13507 19.2472 4.12528 19.1562 4.12202 19.0749C4.11224 18.9188 4.10572 18.766 4.09594 18.6099C4.08616 18.4148 4.04379 18.3823 4.22634 18.34C4.51646 18.2717 4.87505 18.3108 5.16518 18.3238Z" fill="#CAD1D8"/>
<path d="M4.05669 20.3952C4.05995 20.4863 4.07624 20.5936 4.15774 20.6326C4.18382 20.6456 4.21317 20.6489 4.24251 20.6521C4.47723 20.6781 4.7152 20.6944 4.95318 20.6976C5.0249 20.6976 5.10314 20.6976 5.1553 20.6489C5.2042 20.6033 5.21398 20.5285 5.21724 20.4603C5.23354 20.2261 5.25311 19.9952 5.26941 19.7611C5.26941 19.7449 5.2694 19.7286 5.25962 19.7188C5.24984 19.7091 5.23354 19.7091 5.21724 19.7123C4.89776 19.7449 4.54244 19.7383 4.23274 19.8131C3.93934 19.8814 4.04365 20.1383 4.05669 20.3952Z" fill="#CAD1D8"/>
<path d="M5.18789 21.0944C5.21071 21.0944 5.23678 21.0944 5.25634 21.1041C5.27264 21.1139 5.28243 21.1301 5.29221 21.1496C5.34437 21.257 5.34436 21.3805 5.34436 21.4976C5.3411 21.6927 5.34109 21.8878 5.33783 22.0829C5.02162 22.0797 4.68261 22.0862 4.37291 22.0276C4.10234 21.9789 4.07952 21.7675 4.12516 21.5139C4.21318 21.0131 4.7967 21.1074 5.18789 21.0944Z" fill="#CAD1D8"/>
<path d="M5.12265 22.5252C5.17807 22.8049 5.18786 23.0943 5.152 23.3772C5.14874 23.3934 5.14872 23.4097 5.13569 23.4195C5.12591 23.4292 5.10961 23.4325 5.09331 23.4325C4.84557 23.452 4.59785 23.4715 4.35011 23.491C4.06 23.5138 4.05674 22.8829 4.18713 22.6943C4.2621 22.587 4.3762 22.548 4.50006 22.5285C4.55874 22.5187 5.10961 22.4829 5.12265 22.5252Z" fill="#CAD1D8"/>
<path d="M5.16518 24.0275C5.23689 24.3527 5.23689 24.6942 5.16518 25.0193C5.16192 25.0324 5.15866 25.0454 5.14888 25.0551C5.13584 25.0649 5.11954 25.0681 5.10324 25.0681C4.87831 25.0681 4.65011 25.0649 4.42518 25.0649C4.34369 25.0649 4.25568 25.0616 4.19375 25.0063C4.13507 24.9511 4.12528 24.86 4.12202 24.7787C4.11224 24.6226 4.10572 24.4698 4.09594 24.3137C4.08616 24.1186 4.04379 24.0861 4.22634 24.0438C4.51646 23.9755 4.87505 24.0145 5.16518 24.0275Z" fill="#CAD1D8"/>
<path d="M42.4928 3.8791C42.5123 4.02543 42.571 4.19778 42.8937 4.26281C42.9948 4.28232 43.1089 4.28884 43.2197 4.29209C44.1422 4.33436 45.0713 4.35712 46.0003 4.36687C46.2806 4.37013 46.5903 4.36687 46.7957 4.28558C46.988 4.21078 47.0206 4.09047 47.0402 3.9799C47.1086 3.60594 47.1738 3.23198 47.2423 2.86127C47.2455 2.83525 47.2488 2.80924 47.2032 2.78973C47.1608 2.77347 47.0956 2.77673 47.0369 2.77673C45.7884 2.82876 44.3965 2.819 43.1806 2.93932C42.0397 3.05638 42.4406 3.46936 42.4928 3.8791Z" fill="#B8C2C9"/>
<path d="M46.9196 5.00094C47.0109 5.00094 47.1054 4.99768 47.1836 5.01719C47.2488 5.03345 47.2912 5.06272 47.3238 5.08873C47.5292 5.25783 47.5292 5.45619 47.5259 5.64806C47.5194 5.96023 47.5129 6.27566 47.5064 6.59109C46.2742 6.58784 44.9442 6.5976 43.7283 6.5033C42.6656 6.422 42.5776 6.08706 42.7536 5.68058C43.1024 4.87086 45.3875 5.0237 46.9196 5.00094Z" fill="#B8C2C9"/>
<path d="M46.6652 7.30332C46.8803 7.75207 46.9194 8.21707 46.7858 8.67233C46.7793 8.69834 46.7695 8.72436 46.7238 8.74062C46.6815 8.75688 46.6163 8.76014 46.5576 8.76339C45.5862 8.7959 44.6148 8.82516 43.6434 8.85768C42.5057 8.89345 42.4959 7.87889 43.0077 7.57647C43.2978 7.40413 43.7477 7.34235 44.2334 7.30983C44.4616 7.29032 46.6195 7.22853 46.6652 7.30332Z" fill="#B8C2C9"/>
<path d="M46.8315 9.71295C47.1151 10.2365 47.1183 10.7828 46.8347 11.3063C46.825 11.3259 46.8119 11.3486 46.7728 11.3616C46.7239 11.3811 46.6554 11.3811 46.5902 11.3811C45.7069 11.3811 44.8202 11.3779 43.9368 11.3779C43.6173 11.3779 43.2653 11.3714 43.0371 11.2803C42.8057 11.1893 42.7731 11.0462 42.7568 10.9161C42.7242 10.669 42.6916 10.4186 42.6557 10.1715C42.6133 9.85928 42.4536 9.80725 43.1707 9.73571C44.2856 9.6284 45.6906 9.69018 46.8315 9.71295Z" fill="#B8C2C9"/>
<path d="M42.4928 13.033C42.5123 13.1793 42.571 13.3517 42.8937 13.4167C42.9948 13.4362 43.1089 13.4427 43.2197 13.446C44.1422 13.4883 45.0713 13.511 46.0003 13.5208C46.2806 13.524 46.5903 13.5208 46.7957 13.4395C46.988 13.3647 47.0206 13.2444 47.0402 13.1338C47.1086 12.7598 47.1738 12.3859 47.2423 12.0152C47.2455 11.9892 47.2488 11.9631 47.2032 11.9436C47.1608 11.9274 47.0956 11.9306 47.0369 11.9306C45.7884 11.9827 44.3965 11.9729 43.1806 12.0932C42.0397 12.2103 42.4406 12.62 42.4928 13.033Z" fill="#B8C2C9"/>
<path d="M49.4882 3.8791C49.5078 4.02543 49.5665 4.19778 49.8892 4.26281C49.9902 4.28232 50.1043 4.28884 50.2152 4.29209C51.1377 4.33436 52.0667 4.35712 52.9958 4.36687C53.2761 4.37013 53.5858 4.36687 53.7912 4.28558C53.9835 4.21078 54.0161 4.09047 54.0357 3.9799C54.1041 3.60594 54.1693 3.23198 54.2378 2.86127C54.241 2.83525 54.2443 2.80924 54.1986 2.78973C54.1563 2.77347 54.0911 2.77673 54.0324 2.77673C52.7839 2.82876 51.392 2.819 50.1761 2.93932C49.0351 3.05638 49.4361 3.46936 49.4882 3.8791Z" fill="#B8C2C9"/>
<path d="M53.9149 5.00094C54.0062 5.00094 54.1008 4.99768 54.179 5.01719C54.2442 5.03345 54.2865 5.06272 54.3191 5.08873C54.5245 5.25783 54.5245 5.45619 54.5213 5.64806C54.5147 5.96023 54.5082 6.27566 54.5017 6.59109C53.2695 6.58784 51.9395 6.5976 50.7236 6.5033C49.6609 6.422 49.5729 6.08706 49.7489 5.68058C50.101 4.87086 52.3828 5.0237 53.9149 5.00094Z" fill="#B8C2C9"/>
<path d="M53.6605 7.30332C53.8757 7.75207 53.9148 8.21707 53.7811 8.67233C53.7746 8.69834 53.7649 8.72436 53.7192 8.74062C53.6768 8.75688 53.6116 8.76014 53.553 8.76339C52.5816 8.7959 51.6102 8.82516 50.6388 8.85768C49.5011 8.89345 49.4913 7.87889 50.0031 7.57647C50.2932 7.40413 50.7431 7.34235 51.2288 7.30983C51.457 7.29032 53.6149 7.22853 53.6605 7.30332Z" fill="#B8C2C9"/>
<path d="M53.827 9.71295C54.1106 10.2365 54.1138 10.7828 53.8302 11.3063C53.8205 11.3259 53.8074 11.3486 53.7683 11.3616C53.7194 11.3811 53.651 11.3811 53.5858 11.3811C52.7024 11.3811 51.8157 11.3779 50.9323 11.3779C50.6128 11.3779 50.2608 11.3714 50.0326 11.2803C49.8011 11.1893 49.7685 11.0462 49.7522 10.9161C49.7196 10.669 49.687 10.4186 49.6512 10.1715C49.6088 9.85928 49.4491 9.80725 50.1662 9.73571C51.2843 9.6284 52.6893 9.69018 53.827 9.71295Z" fill="#B8C2C9"/>
<path d="M49.4882 13.033C49.5078 13.1793 49.5665 13.3517 49.8892 13.4167C49.9902 13.4362 50.1043 13.4427 50.2152 13.446C51.1377 13.4883 52.0667 13.511 52.9958 13.5208C53.2761 13.524 53.5858 13.5208 53.7912 13.4395C53.9835 13.3647 54.0161 13.2444 54.0357 13.1338C54.1041 12.7598 54.1693 12.3859 54.2378 12.0152C54.241 11.9892 54.2443 11.9631 54.1986 11.9436C54.1563 11.9274 54.0911 11.9306 54.0324 11.9306C52.7839 11.9827 51.392 11.9729 50.1761 12.0932C49.0351 12.2103 49.4361 12.62 49.4882 13.033Z" fill="#B8C2C9"/>
</svg>
