<svg width="14" height="49" viewBox="0 0 14 49" fill="none" xmlns="http://www.w3.org/2000/svg">
<path d="M11.6743 46.4333C11.8959 46.3813 12.1306 46.313 12.3001 45.965C12.4925 45.5715 12.5479 44.9244 12.587 44.3261C13.0532 37.4615 13.1151 30.4797 13.177 23.524C13.2324 17.3683 13.2846 11.2126 13.34 5.05358C13.3531 3.69431 13.34 2.1757 12.9456 1.2034C12.5479 0.221343 11.909 0.156309 11.3385 0.159561C7.71691 0.169317 4.09529 0.179071 0.473668 0.188826C0.613838 7.32337 0.750739 14.4579 0.89091 21.5957C0.978924 26.1418 1.06695 30.7041 0.926782 35.2502C0.842028 38.0045 -0.243494 44.4366 0.463879 46.7747C1.21363 49.2494 4.40171 47.6332 5.52959 47.5096C7.58326 47.2788 9.63365 46.9211 11.6743 46.4333Z" fill="#CED4D8"/>
</svg>
