<svg width="5" height="5" viewBox="0 0 5 5" fill="none" xmlns="http://www.w3.org/2000/svg">
<path d="M0.515079 3.66904C0.531378 4.05926 0.577006 4.52428 0.831272 4.69663C0.912767 4.75191 1.00078 4.76492 1.08879 4.77793C1.81899 4.88849 2.55245 4.95678 3.28917 4.97629C3.51084 4.98279 3.75858 4.97304 3.91831 4.75842C4.07152 4.5568 4.09761 4.23486 4.11065 3.9422C4.16281 2.94062 4.21822 1.93905 4.27038 0.93748C4.27364 0.872443 4.27365 0.794392 4.24105 0.748866C4.20845 0.706592 4.15629 0.709852 4.11065 0.716356C3.12293 0.856186 2.02111 0.830163 1.05946 1.15535C0.156493 1.46102 0.472701 2.56666 0.515079 3.66904Z" fill="#C7CDD3"/>
</svg>
