<svg width="7" height="3" viewBox="0 0 7 3" fill="none" xmlns="http://www.w3.org/2000/svg">
<path d="M3.13191 0.461783C4.00553 0.373982 4.86612 0.0617982 5.743 0.104073C5.89621 0.110577 6.0755 0.1496 6.15047 0.338209C6.18959 0.435766 6.18959 0.552837 6.18959 0.666653C6.18959 1.07314 6.18959 1.47637 6.18633 1.88286C6.18633 1.97066 6.18633 2.06497 6.15047 2.13976C6.08854 2.26658 5.95815 2.27634 5.84732 2.26983C5.03563 2.22756 4.22395 2.18203 3.409 2.13976C2.8581 2.11049 1.49549 2.39341 1.03586 2.00643C0.543636 1.59344 0.90221 0.978837 1.27709 0.699174C1.82473 0.289436 2.53862 0.520317 3.13191 0.461783Z" fill="#DCE0E2"/>
</svg>
