<svg width="6" height="3" viewBox="0 0 6 3" fill="none" xmlns="http://www.w3.org/2000/svg">
<path d="M5.71052 0.356018C5.75942 0.356018 5.81157 0.356023 5.85069 0.401549C5.88981 0.450328 5.89958 0.531624 5.90284 0.603166C5.93544 1.20152 5.9224 1.80312 5.86372 2.39497C5.8572 2.46651 5.84417 2.5478 5.80505 2.59333C5.76267 2.63885 5.70401 2.63561 5.65185 2.6291C4.12627 2.45025 2.59417 2.40147 1.06533 2.48276C0.967534 2.48927 0.853442 2.47952 0.801285 2.3657C0.775207 2.30717 0.775198 2.23236 0.771939 2.16407C0.768679 1.71531 0.644807 0.980387 0.934928 0.674708C1.21527 0.375533 2.16714 0.521873 2.51594 0.495857C3.57863 0.41456 4.64457 0.356018 5.71052 0.356018Z" fill="#DCE0E2"/>
</svg>
