<svg width="4" height="16" viewBox="0 0 4 16" fill="none" xmlns="http://www.w3.org/2000/svg">
<path d="M0.230565 1.11828C0.233825 1.2451 0.250123 1.39468 0.33162 1.44996C0.357698 1.46621 0.38702 1.47272 0.416359 1.47598C0.651069 1.51175 0.889056 1.5345 1.12703 1.54101C1.19874 1.54426 1.27698 1.54101 1.32913 1.47272C1.37803 1.40769 1.38781 1.30363 1.39107 1.20933C1.40737 0.887403 1.42692 0.562223 1.44322 0.240298C1.44322 0.217535 1.44323 0.194782 1.43345 0.178523C1.42367 0.165516 1.40737 0.165517 1.39107 0.168768C1.07161 0.214293 0.716276 0.204535 0.40659 0.308592C0.116463 0.402893 0.217525 0.760585 0.230565 1.11828Z" fill="#CAD1D8"/>
<path d="M1.36171 2.08739C1.38453 2.08739 1.41061 2.08414 1.43017 2.10039C1.44647 2.1134 1.45625 2.13942 1.46602 2.16218C1.51818 2.30851 1.51817 2.48087 1.51817 2.64671C1.51491 2.91987 1.51493 3.18977 1.51167 3.46292C1.19546 3.45967 0.856435 3.46618 0.546752 3.38813C0.276186 3.31985 0.253364 3.02718 0.299002 2.67598C0.387017 1.97358 0.970529 2.10691 1.36171 2.08739Z" fill="#CAD1D8"/>
<path d="M1.29651 4.07752C1.35193 4.46774 1.36172 4.86772 1.32586 5.26119C1.3226 5.2807 1.3226 5.30672 1.30956 5.31973C1.29978 5.33274 1.28348 5.33599 1.26718 5.33924C1.01944 5.36526 0.771689 5.39452 0.523947 5.42054C0.233827 5.45306 0.230567 4.57505 0.360958 4.31165C0.435933 4.16207 0.550032 4.11004 0.673903 4.08078C0.732579 4.06777 1.28673 4.01574 1.29651 4.07752Z" fill="#CAD1D8"/>
<path d="M1.33888 6.16514C1.4106 6.61714 1.4106 7.09192 1.33888 7.54393C1.33562 7.56019 1.33237 7.5797 1.32259 7.59271C1.30955 7.60897 1.29324 7.60896 1.27694 7.60896C1.05201 7.60896 0.82382 7.60572 0.598891 7.60572C0.517394 7.60572 0.426131 7.59921 0.367454 7.52117C0.308777 7.44312 0.298987 7.31955 0.295727 7.20574C0.285948 6.99111 0.279442 6.77649 0.269663 6.56186C0.259883 6.29196 0.217493 6.24644 0.400045 6.18466C0.690171 6.0936 1.04876 6.14562 1.33888 6.16514Z" fill="#CAD1D8"/>
<path d="M0.230565 9.03982C0.233825 9.16665 0.250123 9.31624 0.33162 9.37152C0.357698 9.38778 0.38702 9.39428 0.416359 9.39753C0.651069 9.4333 0.889056 9.45607 1.12703 9.46257C1.19874 9.46583 1.27698 9.46258 1.32913 9.39429C1.37803 9.32925 1.38781 9.22519 1.39107 9.13088C1.40737 8.80893 1.42692 8.48373 1.44322 8.16179C1.44322 8.13903 1.44323 8.11626 1.43345 8.1C1.42367 8.08699 1.40737 8.08699 1.39107 8.09025C1.07161 8.13577 0.716276 8.12602 0.40659 8.23008C0.116463 8.32764 0.217525 8.68536 0.230565 9.03982Z" fill="#CAD1D8"/>
<path d="M1.36171 10.012C1.38453 10.012 1.41061 10.0088 1.43017 10.0251C1.44647 10.0381 1.45625 10.0641 1.46602 10.0868C1.51818 10.2332 1.51817 10.4055 1.51817 10.5714C1.51491 10.8445 1.51493 11.1144 1.51167 11.3876C1.19546 11.3843 0.856435 11.3908 0.546752 11.3128C0.276186 11.2445 0.253364 10.9518 0.299002 10.6006C0.387017 9.89823 0.970529 10.0316 1.36171 10.012Z" fill="#CAD1D8"/>
<path d="M1.29651 12.0022C1.35193 12.3924 1.36172 12.7924 1.32586 13.1859C1.3226 13.2054 1.3226 13.2314 1.30956 13.2444C1.29978 13.2574 1.28348 13.2607 1.26718 13.2639C1.01944 13.2899 0.771689 13.3192 0.523947 13.3452C0.233827 13.3777 0.230567 12.4997 0.360958 12.2363C0.435933 12.0867 0.550032 12.0347 0.673903 12.0054C0.732579 11.9892 1.28673 11.9404 1.29651 12.0022Z" fill="#CAD1D8"/>
<path d="M1.33888 14.0867C1.4106 14.5387 1.4106 15.0134 1.33888 15.4654C1.33562 15.4817 1.33237 15.5012 1.32259 15.5142C1.30955 15.5305 1.29324 15.5305 1.27694 15.5305C1.05201 15.5305 0.82382 15.5272 0.598891 15.5272C0.517394 15.5272 0.426131 15.5207 0.367454 15.4427C0.308777 15.3646 0.298987 15.2411 0.295727 15.1273C0.285948 14.9126 0.279442 14.698 0.269663 14.4834C0.259883 14.2135 0.217493 14.168 0.400045 14.1062C0.690171 14.0151 1.04876 14.0704 1.33888 14.0867Z" fill="#CAD1D8"/>
<path d="M2.02013 1.11828C2.02339 1.2451 2.03969 1.39468 2.12119 1.44996C2.14726 1.46621 2.1766 1.47272 2.20594 1.47598C2.44065 1.51175 2.67861 1.5345 2.91657 1.54101C2.98828 1.54426 3.06652 1.54101 3.11867 1.47272C3.16757 1.40769 3.17735 1.30363 3.18061 1.20933C3.19691 0.887403 3.21646 0.562223 3.23276 0.240298C3.23276 0.217535 3.23277 0.194782 3.22299 0.178523C3.21321 0.165516 3.19691 0.165517 3.18061 0.168768C2.86115 0.214293 2.50583 0.204535 2.19615 0.308592C1.90277 0.402893 2.00383 0.760585 2.02013 1.11828Z" fill="#CAD1D8"/>
<path d="M3.14795 2.08739C3.17077 2.08739 3.19686 2.08414 3.21642 2.10039C3.23272 2.1134 3.24249 2.13942 3.25227 2.16218C3.30443 2.30851 3.30444 2.48087 3.30444 2.64671C3.30118 2.91987 3.30118 3.18977 3.29792 3.46292C2.98171 3.45967 2.64267 3.46618 2.33298 3.38813C2.06241 3.31985 2.03961 3.02718 2.08524 2.67598C2.17326 1.97358 2.75677 2.10691 3.14795 2.08739Z" fill="#CAD1D8"/>
<path d="M3.08282 4.07752C3.13824 4.46774 3.14801 4.86772 3.11215 5.26119C3.10889 5.2807 3.10889 5.30672 3.09585 5.31973C3.08607 5.33274 3.06977 5.33599 3.05347 5.33924C2.80572 5.36526 2.55795 5.39452 2.3102 5.42054C2.02006 5.45306 2.0168 4.57505 2.1472 4.31165C2.22218 4.16207 2.33629 4.11004 2.46016 4.08078C2.5221 4.06777 3.07304 4.01574 3.08282 4.07752Z" fill="#CAD1D8"/>
<path d="M3.12511 6.16514C3.19682 6.61714 3.19682 7.09192 3.12511 7.54393C3.12185 7.56019 3.11859 7.5797 3.10881 7.59271C3.09577 7.60897 3.07949 7.60896 3.06319 7.60896C2.83826 7.60896 2.61007 7.60572 2.38514 7.60572C2.30365 7.60572 2.21236 7.59921 2.15369 7.52117C2.09501 7.44312 2.08524 7.31955 2.08198 7.20574C2.0722 6.99111 2.06568 6.77649 2.0559 6.56186C2.04612 6.29196 2.00375 6.24644 2.1863 6.18466C2.47642 6.0936 2.83498 6.14562 3.12511 6.16514Z" fill="#CAD1D8"/>
<path d="M2.02013 9.03982C2.02339 9.16665 2.03969 9.31624 2.12119 9.37152C2.14726 9.38778 2.1766 9.39428 2.20594 9.39753C2.44065 9.4333 2.67861 9.45607 2.91657 9.46257C2.98828 9.46583 3.06652 9.46258 3.11867 9.39429C3.16757 9.32925 3.17735 9.22519 3.18061 9.13088C3.19691 8.80893 3.21646 8.48373 3.23276 8.16179C3.23276 8.13903 3.23277 8.11626 3.22299 8.1C3.21321 8.08699 3.19691 8.08699 3.18061 8.09025C2.86115 8.13577 2.50583 8.12602 2.19615 8.23008C1.90277 8.32764 2.00383 8.68536 2.02013 9.03982Z" fill="#CAD1D8"/>
<path d="M3.14795 10.012C3.17077 10.012 3.19686 10.0088 3.21642 10.0251C3.23272 10.0381 3.24249 10.0641 3.25227 10.0868C3.30443 10.2332 3.30444 10.4055 3.30444 10.5714C3.30118 10.8445 3.30118 11.1144 3.29792 11.3876C2.98171 11.3843 2.64267 11.3908 2.33298 11.3128C2.06241 11.2445 2.03961 10.9518 2.08524 10.6006C2.17326 9.89823 2.75677 10.0316 3.14795 10.012Z" fill="#CAD1D8"/>
<path d="M3.08282 12.0022C3.13824 12.3924 3.14801 12.7924 3.11215 13.1859C3.10889 13.2054 3.10889 13.2314 3.09585 13.2444C3.08607 13.2574 3.06977 13.2607 3.05347 13.2639C2.80572 13.2899 2.55795 13.3192 2.3102 13.3452C2.02006 13.3777 2.0168 12.4997 2.1472 12.2363C2.22218 12.0867 2.33629 12.0347 2.46016 12.0054C2.5221 11.9892 3.07304 11.9404 3.08282 12.0022Z" fill="#CAD1D8"/>
<path d="M3.12511 14.0867C3.19682 14.5387 3.19682 15.0134 3.12511 15.4654C3.12185 15.4817 3.11859 15.5012 3.10881 15.5142C3.09577 15.5305 3.07949 15.5305 3.06319 15.5305C2.83826 15.5305 2.61007 15.5272 2.38514 15.5272C2.30365 15.5272 2.21236 15.5207 2.15369 15.4427C2.09501 15.3646 2.08524 15.2411 2.08198 15.1273C2.0722 14.9126 2.06568 14.698 2.0559 14.4834C2.04612 14.2135 2.00375 14.168 2.1863 14.1062C2.47642 14.0151 2.83498 14.0704 3.12511 14.0867Z" fill="#CAD1D8"/>
</svg>
