<svg width="15" height="46" viewBox="0 0 15 46" fill="none" xmlns="http://www.w3.org/2000/svg">
<path d="M14.315 1.47436C14.3182 1.24348 14.3052 0.970328 14.1324 0.840254C14.0346 0.765462 13.9075 0.76221 13.7869 0.758958C9.6763 0.700425 5.56896 0.645144 1.45837 0.586611C1.23019 0.583359 0.982457 0.586604 0.799909 0.742693C0.565205 0.941056 0.526079 1.31502 0.506521 1.64346C0.415247 3.3832 0.310938 44.0475 0.408731 45.7873C3.13717 46.0377 5.87214 45.5434 8.61035 45.5401C9.58829 45.5401 10.563 45.6019 11.5344 45.693C12.1309 45.7515 13.2848 46.171 13.7934 45.6767C14.24 45.241 14.24 5.31804 14.2498 4.73921C14.2758 3.65635 14.2954 2.56373 14.315 1.47436Z" fill="#C3D1DD"/>
</svg>
