<svg width="13" height="16" viewBox="0 0 13 16" fill="none" xmlns="http://www.w3.org/2000/svg">
<path d="M0.453002 2.09802C0.472561 2.29963 0.53125 2.54027 0.853969 2.63132C0.955022 2.66058 1.06911 2.66709 1.17995 2.67359C2.10247 2.73213 3.03149 2.76464 3.96053 2.77764C4.24087 2.78089 4.55055 2.77439 4.75592 2.66383C4.94825 2.55977 4.98085 2.39393 5.0004 2.2411C5.06886 1.72406 5.13405 1.20377 5.20251 0.686731C5.20577 0.650961 5.20903 0.611943 5.16339 0.58918C5.12102 0.566418 5.05582 0.569664 4.99714 0.572915C3.74864 0.647707 2.35673 0.631452 1.14083 0.800546C-9.3013e-05 0.953381 0.400845 1.5257 0.453002 2.09802Z" fill="#B8C2C9"/>
<path d="M4.87972 3.65565C4.97099 3.6524 5.06553 3.6524 5.14376 3.67842C5.20896 3.70118 5.25133 3.7402 5.28393 3.77922C5.4893 4.01661 5.4893 4.28976 5.48604 4.55316C5.47952 4.98891 5.473 5.42465 5.46648 5.8604C4.23428 5.85715 2.90429 5.8669 1.68839 5.74008C0.625697 5.62952 0.537685 5.16125 0.713714 4.59543C1.06577 3.4768 3.35088 3.68817 4.87972 3.65565Z" fill="#B8C2C9"/>
<path d="M4.62557 6.85222C4.84071 7.47657 4.87983 8.12045 4.74618 8.75456C4.73966 8.78708 4.72988 8.8261 4.68424 8.84887C4.64186 8.87163 4.57666 8.87488 4.51799 8.87813C3.54658 8.92041 2.57516 8.96593 1.60375 9.0082C0.466087 9.06023 0.456303 7.64892 0.968088 7.22943C1.25821 6.9888 1.70806 6.90425 2.19377 6.85873C2.42195 6.83271 4.57993 6.75141 4.62557 6.85222Z" fill="#B8C2C9"/>
<path d="M4.79174 10.1984C5.07533 10.9235 5.0786 11.6845 4.795 12.4129C4.78522 12.4421 4.77218 12.4714 4.73306 12.4909C4.68743 12.5169 4.61571 12.5169 4.55052 12.5169C3.66713 12.5137 2.78048 12.5137 1.89709 12.5104C1.57764 12.5104 1.2256 12.5007 0.99742 12.3771C0.765978 12.2535 0.733366 12.0519 0.717067 11.8731C0.68447 11.5284 0.651873 11.1837 0.616016 10.839C0.57364 10.4065 0.413918 10.3317 1.13106 10.2341C2.24915 10.0813 3.65409 10.1691 4.79174 10.1984Z" fill="#B8C2C9"/>
<path d="M0.453002 14.8128C0.472561 15.0144 0.53125 15.255 0.853969 15.3461C0.955022 15.3754 1.06911 15.3819 1.17995 15.3884C2.10247 15.4469 3.03149 15.4794 3.96053 15.4924C4.24087 15.4957 4.55055 15.4892 4.75592 15.3786C4.94825 15.2745 4.98085 15.1087 5.0004 14.9559C5.06886 14.4388 5.13405 13.9185 5.20251 13.4015C5.20577 13.3657 5.20903 13.3267 5.16339 13.3039C5.12102 13.2811 5.05582 13.2844 4.99714 13.2876C3.74864 13.3624 2.35673 13.3462 1.14083 13.5153C-9.3013e-05 13.6714 0.400845 14.2404 0.453002 14.8128Z" fill="#B8C2C9"/>
<path d="M7.45176 2.09802C7.47132 2.29963 7.52998 2.54027 7.8527 2.63132C7.95375 2.66058 8.06784 2.66709 8.17867 2.67359C9.10118 2.73213 10.0302 2.76464 10.9592 2.77764C11.2396 2.78089 11.5493 2.77439 11.7546 2.66383C11.947 2.55977 11.9796 2.39393 11.9991 2.2411C12.0676 1.72406 12.1328 1.20377 12.2012 0.686731C12.2045 0.650961 12.2077 0.611943 12.1621 0.58918C12.1197 0.566418 12.0545 0.569664 11.9958 0.572915C10.7474 0.647707 9.35545 0.631452 8.13956 0.800546C6.99865 0.953381 7.3996 1.5257 7.45176 2.09802Z" fill="#B8C2C9"/>
<path d="M11.8753 3.65565C11.9666 3.6524 12.0611 3.6524 12.1394 3.67842C12.2046 3.70118 12.2469 3.7402 12.2795 3.77922C12.4849 4.01661 12.4849 4.28976 12.4816 4.55316C12.4751 4.98891 12.4686 5.42465 12.4621 5.8604C11.2299 5.85715 9.89989 5.8669 8.684 5.74008C7.62132 5.62952 7.53331 5.16125 7.70933 4.59543C8.06139 3.4768 10.3465 3.68817 11.8753 3.65565Z" fill="#B8C2C9"/>
<path d="M11.6209 6.85222C11.8361 7.47657 11.8752 8.12045 11.7415 8.75456C11.735 8.78708 11.7252 8.8261 11.6796 8.84887C11.6372 8.87163 11.572 8.87488 11.5133 8.87813C10.5419 8.92041 9.57048 8.96593 8.59906 9.0082C7.46139 9.06023 7.45162 7.64892 7.96341 7.22943C8.25354 6.9888 8.70339 6.90425 9.18911 6.85873C9.42055 6.83271 11.5785 6.75141 11.6209 6.85222Z" fill="#B8C2C9"/>
<path d="M11.7906 10.1984C12.0742 10.9235 12.0774 11.6845 11.7938 12.4129C11.7841 12.4421 11.771 12.4714 11.7319 12.4909C11.683 12.5169 11.6145 12.5169 11.5494 12.5169C10.6659 12.5137 9.77927 12.5137 8.89587 12.5104C8.57641 12.5104 8.22434 12.5007 7.99616 12.3771C7.76471 12.2535 7.73212 12.0519 7.71582 11.8731C7.68322 11.5284 7.65062 11.1837 7.61477 10.839C7.57239 10.4065 7.41266 10.3317 8.12982 10.2341C9.24467 10.0813 10.6496 10.1691 11.7906 10.1984Z" fill="#B8C2C9"/>
<path d="M7.45176 14.8128C7.47132 15.0144 7.52998 15.255 7.8527 15.3461C7.95375 15.3754 8.06784 15.3819 8.17867 15.3884C9.10118 15.4469 10.0302 15.4794 10.9592 15.4924C11.2396 15.4957 11.5493 15.4892 11.7546 15.3786C11.947 15.2745 11.9796 15.1087 11.9991 14.9559C12.0676 14.4388 12.1328 13.9185 12.2012 13.4015C12.2045 13.3657 12.2077 13.3267 12.1621 13.3039C12.1197 13.2811 12.0545 13.2844 11.9958 13.2876C10.7474 13.3624 9.35545 13.3462 8.13956 13.5153C6.99865 13.6714 7.3996 14.2404 7.45176 14.8128Z" fill="#B8C2C9"/>
</svg>
