<svg width="51" height="54" viewBox="0 0 51 54" fill="none" xmlns="http://www.w3.org/2000/svg">
<path d="M46.703 44.3521C46.7095 43.9911 46.69 43.5684 46.4748 43.37C46.351 43.2562 46.1912 43.2497 46.0445 43.2464C40.9006 43.1586 35.7567 43.0676 30.6095 42.9798C30.3227 42.9733 30.013 42.9798 29.7848 43.2204C29.4914 43.5294 29.4392 44.1082 29.4197 44.6187C29.3056 47.3178 29.3121 50.0233 29.4392 52.7224C32.8555 53.1126 36.2815 52.3452 39.7075 52.3387C40.93 52.3354 42.1524 52.433 43.3683 52.5793C44.1147 52.6671 45.5588 53.3207 46.1945 52.5533C46.7552 51.8769 46.615 50.3225 46.628 49.425C46.6574 47.7308 46.6802 46.0398 46.703 44.3521Z" fill="#C3D1DD"/>
<path d="M16.9672 0.835944C16.9575 0.608315 16.9412 0.357926 16.8271 0.198586C16.6836 0.000223041 16.4522 0.0229816 16.2501 0.0620037C15.1613 0.276625 14.0856 0.637584 12.9968 0.868465C11.2496 1.23917 9.47302 1.2782 7.70296 1.31722C6.31103 1.34649 4.92237 1.37901 3.53045 1.40827C3.02518 1.41803 2.45797 1.39851 2.0994 0.90423C2.43516 8.18186 2.49708 15.4823 2.29498 22.7696C2.10917 29.4197 1.70497 36.0729 1.90056 42.7229C1.90708 42.9018 1.91685 43.1034 2.01464 43.2237C2.09939 43.3278 2.22002 43.3408 2.33085 43.3473C5.4146 43.5587 8.49835 43.77 11.5821 43.9814C12.9675 44.0757 14.7701 44.6415 16.1295 44.2903C17.3356 43.9782 16.8727 41.871 16.8271 40.5832C16.5076 32.1024 16.8694 23.6151 17.0324 15.1376C17.1205 10.3704 17.153 5.59664 16.9672 0.835944Z" fill="#A4B1BC"/>
<path d="M23.2358 17.1927C16.3153 16.5911 9.39805 15.9928 2.47754 15.3912C1.8973 15.3424 1.20623 15.3652 0.886768 16.0383C0.720519 16.3895 0.704211 16.8318 0.694432 17.2513C0.397792 29.0717 0.51515 40.9116 1.04649 52.7191C7.53997 52.8817 14.0367 53.0475 20.5302 53.2101C21.6581 53.2394 22.7957 53.6914 23.3792 52.1923C23.9301 50.7777 23.5194 47.2853 23.5455 45.6691C23.6139 41.1263 23.627 36.5802 23.5846 32.0341C23.5716 30.7984 23.3923 17.1927 23.2358 17.1927Z" fill="#BAC3CC"/>
<path d="M22.5805 52.3484C22.3947 52.3224 22.1958 52.2899 22.0524 52.1208C21.8894 51.9289 21.8438 51.6135 21.8112 51.3208C21.4167 47.9714 21.3646 44.5667 21.3157 41.1751C21.27 38.1736 21.2244 35.1689 21.1788 32.1674C21.169 31.5041 21.1788 30.7659 21.5113 30.2879C21.847 29.8066 22.3849 29.7773 22.8673 29.7773C25.9185 29.7838 28.9729 29.7871 32.0241 29.7903C31.9067 33.2698 31.7894 36.7526 31.672 40.232C31.5971 42.4498 31.5253 44.674 31.6394 46.8918C31.7111 48.2348 32.6271 51.3728 32.0306 52.5142C31.3982 53.7207 28.7121 52.9337 27.7603 52.872C26.0293 52.7614 24.3017 52.5858 22.5805 52.3484Z" fill="#CED4D8"/>
<path d="M50.0148 52.2215C47.1983 52.5272 44.3623 52.4914 41.5491 52.1142C41.2753 39.2824 41.0015 26.4506 40.7277 13.6221C43.2149 13.3555 45.7282 13.1864 48.2219 13.2579C49.0857 13.2839 49.829 13.1701 50.1256 14.4481C50.432 15.7618 50.0506 18.0284 50.0213 19.4137C49.8746 26.4474 49.8681 33.4876 49.9104 40.5246C49.9202 41.5067 50.0832 52.2118 50.0148 52.2215Z" fill="#BAC3CC"/>
<path d="M7.54316 22.5972C7.53012 22.9289 7.491 23.3224 7.27586 23.4655C7.2074 23.511 7.13243 23.524 7.05746 23.5338C6.44136 23.6281 5.822 23.6833 5.20264 23.7028C5.01683 23.7093 4.80821 23.6996 4.67456 23.5207C4.54417 23.3484 4.52461 23.0785 4.51157 22.8314C4.46593 21.9859 4.42354 21.1371 4.37791 20.2917C4.37465 20.2364 4.37465 20.1713 4.40399 20.1323C4.43333 20.0965 4.47571 20.0998 4.51483 20.1063C5.34608 20.2266 6.2751 20.2039 7.08678 20.477C7.84631 20.7274 7.57902 21.6607 7.54316 22.5972Z" fill="#C7CDD3"/>
<path d="M4.58986 25.1403C4.53119 25.137 4.46598 25.1371 4.41382 25.1793C4.37145 25.2151 4.34212 25.2801 4.3193 25.3452C4.18239 25.7321 4.1824 26.1809 4.18566 26.6101C4.18892 27.3223 4.19543 28.0344 4.19869 28.7466C5.02015 28.7401 5.90679 28.7596 6.71847 28.5515C7.42583 28.3694 7.48453 27.6084 7.36717 26.6849C7.13573 24.8444 5.61342 25.1923 4.58986 25.1403Z" fill="#C7CDD3"/>
<path d="M4.75926 30.3561C4.61583 31.3772 4.58975 32.4276 4.67777 33.4616C4.68103 33.5169 4.6908 33.5755 4.71688 33.6145C4.74622 33.6535 4.78859 33.66 4.82771 33.6633C5.47641 33.7348 6.12512 33.8031 6.77057 33.8746C7.53011 33.9559 7.53662 31.6569 7.19434 30.9707C7.00201 30.5805 6.69884 30.4407 6.37612 30.3626C6.22943 30.3269 4.79186 30.1935 4.75926 30.3561Z" fill="#C7CDD3"/>
<path d="M4.64854 35.8259C4.45947 37.0128 4.45621 38.255 4.64528 39.4387C4.6518 39.4842 4.66158 39.533 4.68439 39.5655C4.71699 39.6078 4.76263 39.6078 4.80827 39.6078C5.3983 39.6045 5.98832 39.6013 6.57835 39.598C6.79024 39.598 7.02496 39.585 7.17817 39.3801C7.33138 39.1753 7.3542 38.8501 7.36724 38.5542C7.39006 37.9916 7.41287 37.429 7.43569 36.8632C7.46503 36.1576 7.5726 36.034 7.09341 35.8779C6.34691 35.634 5.40808 35.7738 4.64854 35.8259Z" fill="#C7CDD3"/>
<path d="M28.0927 33.4161C27.356 33.3414 26.6291 33.078 25.8924 33.1137C25.762 33.1202 25.6121 33.1527 25.5469 33.3121C25.5143 33.3934 25.5143 33.4942 25.5143 33.5885C25.5143 33.9299 25.5143 34.2746 25.5143 34.6161C25.5143 34.6908 25.5143 34.7721 25.5469 34.8339C25.599 34.9412 25.7099 34.9477 25.8044 34.9445C26.489 34.9087 27.1735 34.8697 27.858 34.8339C28.3209 34.8079 29.4716 35.0485 29.8595 34.7201C30.2735 34.3689 29.9736 33.8486 29.6574 33.6145C29.1945 33.2698 28.5947 33.4649 28.0927 33.4161Z" fill="#DCE0E2"/>
<path d="M25.9219 35.8616C25.8795 35.8616 25.8372 35.8616 25.8046 35.9007C25.7687 35.9397 25.7622 36.0112 25.7589 36.073C25.7296 36.577 25.7426 37.0876 25.7915 37.5884C25.798 37.6502 25.8078 37.7184 25.8437 37.7574C25.8795 37.7965 25.9284 37.7932 25.9708 37.7867C27.2551 37.6371 28.546 37.5949 29.8337 37.6632C29.9152 37.6664 30.0129 37.6599 30.0553 37.5656C30.0781 37.5168 30.0781 37.455 30.0781 37.3932C30.0814 37.0128 30.1857 36.3917 29.9412 36.1348C29.7033 35.8811 28.9046 36.008 28.6112 35.9852C27.718 35.9137 26.8183 35.8616 25.9219 35.8616Z" fill="#DCE0E2"/>
<path d="M25.9089 38.45C25.8828 38.4533 25.8534 38.4598 25.8339 38.4858C25.8111 38.5151 25.8078 38.5606 25.8046 38.6061C25.7785 39.0809 25.7948 39.5589 25.8502 40.0272C27.0628 40.089 28.2787 40.1475 29.4914 40.2093C29.5501 40.2126 29.612 40.2126 29.6609 40.1735C29.7228 40.1215 29.7522 40.0207 29.775 39.9231C30.1173 38.4305 29.4034 38.5216 28.5069 38.411C27.6431 38.3004 26.7727 38.3134 25.9089 38.45Z" fill="#DCE0E2"/>
<path d="M49.0775 16.2073C49.0742 16.3147 49.0612 16.4415 48.9895 16.487C48.9666 16.5033 48.9438 16.5065 48.9178 16.5098C48.7189 16.539 48.52 16.5585 48.3179 16.565C48.256 16.5683 48.1908 16.565 48.1484 16.5065C48.106 16.4512 48.0995 16.3634 48.0962 16.2821C48.0832 16.009 48.0669 15.7358 48.0538 15.4627C48.0538 15.4431 48.0539 15.4236 48.0636 15.4106C48.0734 15.3976 48.0865 15.4009 48.0995 15.4009C48.3668 15.4399 48.6667 15.4334 48.9308 15.5212C49.1753 15.6057 49.0905 15.9082 49.0775 16.2073Z" fill="#CAD1D8"/>
<path d="M48.1274 17.03C48.1078 17.03 48.0883 17.03 48.072 17.043C48.0589 17.056 48.0491 17.0755 48.0426 17.0951C47.997 17.2186 47.997 17.365 48.0002 17.5048C48.0002 17.7357 48.0035 17.9633 48.0035 18.1942C48.2675 18.1909 48.5544 18.1974 48.8185 18.1324C49.0467 18.0739 49.0662 17.8267 49.0271 17.5308C48.9489 16.9325 48.4566 17.0463 48.1274 17.03Z" fill="#CAD1D8"/>
<path d="M48.1828 18.7145C48.1371 19.0429 48.1273 19.3844 48.1567 19.7161C48.1567 19.7323 48.1599 19.7518 48.1697 19.7648C48.1795 19.7779 48.1925 19.7779 48.2056 19.7811C48.4142 19.8039 48.6229 19.8266 48.8315 19.8494C49.076 19.8754 49.0793 19.134 48.9684 18.9128C48.9065 18.786 48.8087 18.7437 48.7044 18.7177C48.6555 18.7047 48.1925 18.6592 48.1828 18.7145Z" fill="#CAD1D8"/>
<path d="M48.1469 20.477C48.085 20.8607 48.085 21.2607 48.1469 21.6444C48.1502 21.6607 48.1534 21.6737 48.1599 21.6867C48.1697 21.6997 48.186 21.6997 48.1991 21.6997C48.3881 21.6997 48.5805 21.6964 48.7695 21.6964C48.838 21.6964 48.913 21.6932 48.9619 21.6249C49.0108 21.5598 49.0173 21.4525 49.0238 21.3582C49.0303 21.1761 49.0368 20.994 49.0466 20.8119C49.0564 20.5843 49.089 20.5453 48.9358 20.4933C48.6946 20.4152 48.3914 20.4607 48.1469 20.477Z" fill="#CAD1D8"/>
<path d="M49.0792 22.9094C49.076 23.0167 49.0629 23.1435 48.9912 23.189C48.9684 23.2053 48.9456 23.2086 48.9195 23.2118C48.7206 23.2411 48.5218 23.2606 48.3196 23.2671C48.2577 23.2703 48.1925 23.2671 48.1501 23.2086C48.1078 23.1533 48.1012 23.0655 48.098 22.9842C48.0849 22.711 48.0686 22.4379 48.0556 22.1647C48.0556 22.1452 48.0556 22.1257 48.0654 22.1127C48.0752 22.0997 48.0882 22.1029 48.1012 22.1029C48.3686 22.142 48.6685 22.1355 48.9325 22.2233C49.177 22.3078 49.0923 22.607 49.0792 22.9094Z" fill="#CAD1D8"/>
<path d="M48.1274 23.7288C48.1078 23.7288 48.0883 23.7288 48.072 23.7418C48.0589 23.7548 48.0491 23.7744 48.0426 23.7939C47.997 23.9174 47.997 24.0638 48.0002 24.2036C48.0002 24.4345 48.0035 24.6621 48.0035 24.893C48.2675 24.8898 48.5544 24.8963 48.8185 24.8312C49.0467 24.7727 49.0662 24.5255 49.0271 24.2296C48.9489 23.6345 48.4566 23.7483 48.1274 23.7288Z" fill="#CAD1D8"/>
<path d="M48.1828 25.4132C48.1371 25.7417 48.1273 26.0831 48.1567 26.4148C48.1567 26.4311 48.1599 26.4506 48.1697 26.4636C48.1795 26.4766 48.1925 26.4766 48.2056 26.4799C48.4142 26.5026 48.6229 26.5254 48.8315 26.5481C49.076 26.5742 49.0793 25.8327 48.9684 25.6116C48.9065 25.4848 48.8087 25.4425 48.7044 25.4165C48.6555 25.4035 48.1925 25.3612 48.1828 25.4132Z" fill="#CAD1D8"/>
<path d="M48.1469 27.179C48.085 27.5628 48.085 27.9627 48.1469 28.3465C48.1502 28.3627 48.1534 28.3757 48.1599 28.3887C48.1697 28.4017 48.186 28.4017 48.1991 28.4017C48.3881 28.4017 48.5805 28.3985 48.7695 28.3985C48.838 28.3985 48.913 28.3952 48.9619 28.327C49.0108 28.2619 49.0173 28.1546 49.0238 28.0603C49.0303 27.8782 49.0368 27.6961 49.0466 27.514C49.0564 27.2863 49.089 27.2473 48.9358 27.1953C48.6946 27.1172 48.3914 27.1628 48.1469 27.179Z" fill="#CAD1D8"/>
<path d="M47.5716 16.2073C47.5683 16.3147 47.5553 16.4415 47.4835 16.487C47.4607 16.5033 47.4379 16.5065 47.4118 16.5098C47.213 16.539 47.0141 16.5585 46.812 16.565C46.7534 16.5683 46.6849 16.565 46.6425 16.5065C46.6002 16.4512 46.5936 16.3634 46.5904 16.2821C46.5773 16.009 46.561 15.7358 46.548 15.4627C46.548 15.4431 46.548 15.4236 46.5578 15.4106C46.5676 15.3976 46.5806 15.4009 46.5936 15.4009C46.8609 15.4399 47.1608 15.4334 47.4249 15.5212C47.6693 15.6057 47.5846 15.9082 47.5716 16.2073Z" fill="#CAD1D8"/>
<path d="M46.6215 17.03C46.6019 17.03 46.5824 17.03 46.5661 17.043C46.553 17.056 46.5432 17.0755 46.5367 17.0951C46.4911 17.2186 46.4911 17.365 46.4943 17.5048C46.4943 17.7357 46.4976 17.9633 46.4976 18.1942C46.7617 18.1909 47.0485 18.1974 47.3093 18.1324C47.5375 18.0739 47.5571 17.8267 47.5179 17.5308C47.443 16.9325 46.9507 17.0463 46.6215 17.03Z" fill="#CAD1D8"/>
<path d="M46.6769 18.7145C46.6313 19.0429 46.6215 19.3844 46.6508 19.7161C46.6508 19.7323 46.6541 19.7518 46.6639 19.7648C46.6736 19.7779 46.6867 19.7779 46.6997 19.7811C46.9084 19.8039 47.117 19.8266 47.3256 19.8494C47.5701 19.8754 47.5734 19.134 47.4625 18.9128C47.4006 18.786 47.3028 18.7437 47.1985 18.7177C47.1496 18.7047 46.6867 18.6592 46.6769 18.7145Z" fill="#CAD1D8"/>
<path d="M46.641 20.477C46.5791 20.8607 46.5791 21.2607 46.641 21.6444C46.6443 21.6607 46.6475 21.6737 46.6541 21.6867C46.6638 21.6997 46.6801 21.6997 46.6932 21.6997C46.8822 21.6997 47.0746 21.6964 47.2636 21.6964C47.3321 21.6964 47.4071 21.6932 47.456 21.6249C47.5049 21.5598 47.5114 21.4525 47.5179 21.3582C47.5244 21.1761 47.531 20.994 47.5407 20.8119C47.5505 20.5843 47.5831 20.5453 47.4299 20.4933C47.1887 20.4152 46.8855 20.4607 46.641 20.477Z" fill="#CAD1D8"/>
<path d="M47.5733 22.9094C47.57 23.0167 47.5569 23.1435 47.4852 23.189C47.4624 23.2053 47.4396 23.2086 47.4135 23.2118C47.2147 23.2411 47.0158 23.2606 46.8137 23.2671C46.7551 23.2703 46.6866 23.2671 46.6442 23.2086C46.6019 23.1533 46.5953 23.0655 46.5921 22.9842C46.579 22.711 46.5627 22.4379 46.5497 22.1647C46.5497 22.1452 46.5497 22.1257 46.5595 22.1127C46.5693 22.0997 46.5823 22.1029 46.5953 22.1029C46.8626 22.142 47.1625 22.1355 47.4266 22.2233C47.671 22.3078 47.5863 22.607 47.5733 22.9094Z" fill="#CAD1D8"/>
<path d="M46.6215 23.7288C46.6019 23.7288 46.5824 23.7288 46.5661 23.7418C46.553 23.7548 46.5432 23.7744 46.5367 23.7939C46.4911 23.9174 46.4911 24.0638 46.4943 24.2036C46.4943 24.4345 46.4976 24.6621 46.4976 24.893C46.7617 24.8898 47.0485 24.8963 47.3093 24.8312C47.5375 24.7727 47.5571 24.5255 47.5179 24.2296C47.443 23.6345 46.9507 23.7483 46.6215 23.7288Z" fill="#CAD1D8"/>
<path d="M46.6769 25.4132C46.6313 25.7417 46.6215 26.0831 46.6508 26.4148C46.6508 26.4311 46.6541 26.4506 46.6639 26.4636C46.6736 26.4766 46.6867 26.4766 46.6997 26.4799C46.9084 26.5026 47.117 26.5254 47.3256 26.5481C47.5701 26.5742 47.5734 25.8327 47.4625 25.6116C47.4006 25.4848 47.3028 25.4425 47.1985 25.4165C47.1496 25.4035 46.6867 25.3612 46.6769 25.4132Z" fill="#CAD1D8"/>
<path d="M46.641 27.179C46.5791 27.5628 46.5791 27.9627 46.641 28.3465C46.6443 28.3627 46.6475 28.3757 46.6541 28.3887C46.6638 28.4017 46.6801 28.4017 46.6932 28.4017C46.8822 28.4017 47.0746 28.3985 47.2636 28.3985C47.3321 28.3985 47.4071 28.3952 47.456 28.327C47.5049 28.2619 47.5114 28.1546 47.5179 28.0603C47.5244 27.8782 47.531 27.6961 47.5407 27.514C47.5505 27.2863 47.5831 27.2473 47.4299 27.1953C47.1887 27.1172 46.8855 27.1628 46.641 27.179Z" fill="#CAD1D8"/>
<path d="M15.1815 3.50567C15.1652 3.67802 15.1131 3.87964 14.8425 3.95443C14.7578 3.9772 14.66 3.98371 14.5654 3.99021C13.7864 4.03899 13.004 4.06825 12.2217 4.07801C11.9869 4.08126 11.7229 4.07475 11.5534 3.9837C11.3904 3.8959 11.3643 3.75282 11.348 3.626C11.2926 3.187 11.2339 2.74799 11.1785 2.30898C11.1753 2.27972 11.1753 2.2472 11.2111 2.22769C11.247 2.20818 11.3024 2.21142 11.3513 2.21468C12.4042 2.27646 13.5745 2.26346 14.6013 2.40655C15.5629 2.53987 15.2272 3.02114 15.1815 3.50567Z" fill="#B8C2C9"/>
<path d="M11.4516 4.82267C11.3767 4.82267 11.2952 4.81942 11.23 4.84218C11.1746 4.86169 11.1387 4.89421 11.1094 4.92673C10.9366 5.12834 10.9366 5.35921 10.9399 5.58359C10.9464 5.95104 10.9496 6.32174 10.9562 6.68919C11.996 6.68594 13.1141 6.6957 14.1409 6.58839C15.0373 6.49409 15.1091 6.10062 14.9624 5.62261C14.6657 4.66983 12.7392 4.84868 11.4516 4.82267Z" fill="#B8C2C9"/>
<path d="M11.6635 7.52496C11.4842 8.055 11.4484 8.59805 11.5625 9.13459C11.569 9.16386 11.5755 9.19312 11.6146 9.21263C11.6505 9.23214 11.7059 9.23539 11.7548 9.23864C12.573 9.27441 13.3912 9.31018 14.2094 9.3492C15.1678 9.39147 15.1743 8.20133 14.7473 7.84688C14.5028 7.64527 14.1214 7.57373 13.7139 7.53146C13.5216 7.51195 11.7026 7.44041 11.6635 7.52496Z" fill="#B8C2C9"/>
<path d="M11.5233 10.3573C11.282 10.9719 11.282 11.6158 11.52 12.2304C11.5298 12.2531 11.5396 12.2791 11.5722 12.2954C11.6113 12.3182 11.6732 12.3182 11.7286 12.3182C12.4751 12.3149 13.2217 12.3149 13.9649 12.3117C14.2322 12.3117 14.5289 12.3052 14.7245 12.1978C14.9201 12.0938 14.9462 11.9247 14.9625 11.7718C14.9918 11.4792 15.0179 11.1898 15.0472 10.8971C15.0831 10.5329 15.22 10.4678 14.6136 10.3865C13.6683 10.2597 12.4849 10.3313 11.5233 10.3573Z" fill="#B8C2C9"/>
<path d="M15.1808 14.2596C15.1645 14.4319 15.1123 14.6335 14.8418 14.7083C14.757 14.7311 14.6592 14.7376 14.5647 14.7441C13.7856 14.7929 13.0032 14.8222 12.2209 14.8319C11.9862 14.8352 11.7222 14.8287 11.5527 14.7376C11.3897 14.6498 11.3636 14.5067 11.3473 14.3799C11.2919 13.9409 11.2332 13.5019 11.1778 13.0629C11.1745 13.0336 11.1745 13.0011 11.2104 12.9816C11.2462 12.9621 11.3017 12.9653 11.3505 12.9686C12.4035 13.0304 13.5737 13.0174 14.6005 13.1604C15.5622 13.2938 15.2264 13.775 15.1808 14.2596Z" fill="#B8C2C9"/>
<path d="M9.28461 3.50567C9.26832 3.67802 9.21617 3.87964 8.94561 3.95443C8.86086 3.9772 8.76308 3.98371 8.66854 3.99021C7.88947 4.03899 7.10714 4.06825 6.32481 4.07801C6.09011 4.08126 5.82608 4.07475 5.65658 3.9837C5.49359 3.8959 5.46751 3.75282 5.45121 3.626C5.3958 3.187 5.33712 2.74799 5.2817 2.30898C5.27844 2.27972 5.27843 2.2472 5.31429 2.22769C5.35015 2.20818 5.40556 2.21142 5.45446 2.21468C6.50734 2.27646 7.67759 2.26346 8.7044 2.40655C9.66601 2.53987 9.33025 3.02114 9.28461 3.50567Z" fill="#B8C2C9"/>
<path d="M5.55466 4.82267C5.47968 4.82267 5.39819 4.81942 5.33299 4.84218C5.27758 4.86169 5.24172 4.89421 5.21238 4.92673C5.03961 5.12834 5.03963 5.35921 5.04289 5.58359C5.0494 5.95104 5.05266 6.32174 5.05918 6.68919C6.09906 6.68594 7.21715 6.6957 8.24399 6.58839C9.14044 6.49409 9.21216 6.10062 9.06547 5.62261C8.76883 4.66983 6.84228 4.84868 5.55466 4.82267Z" fill="#B8C2C9"/>
<path d="M5.76659 7.52496C5.5873 8.055 5.55145 8.59805 5.66554 9.13459C5.67206 9.16386 5.67857 9.19312 5.71769 9.21263C5.75354 9.23214 5.80898 9.23539 5.85788 9.23864C6.67608 9.27441 7.49428 9.31018 8.31249 9.3492C9.27087 9.39147 9.2774 8.20133 8.85037 7.84688C8.60588 7.64527 8.22447 7.57373 7.817 7.53146C7.62467 7.51195 5.80571 7.44041 5.76659 7.52496Z" fill="#B8C2C9"/>
<path d="M5.62638 10.3573C5.38516 10.9719 5.38516 11.6158 5.62312 12.2304C5.6329 12.2531 5.64269 12.2791 5.67529 12.2954C5.7144 12.3182 5.77633 12.3182 5.83175 12.3182C6.57824 12.3149 7.32472 12.3149 8.06795 12.3117C8.33525 12.3117 8.6319 12.3052 8.82749 12.1978C9.02307 12.0938 9.04915 11.9247 9.06544 11.7718C9.09478 11.4792 9.12086 11.1898 9.1502 10.8971C9.18606 10.5329 9.32296 10.4678 8.71665 10.3865C7.77131 10.2597 6.58802 10.3313 5.62638 10.3573Z" fill="#B8C2C9"/>
<path d="M9.28385 14.2596C9.26755 14.4319 9.21541 14.6335 8.94485 14.7083C8.8601 14.7311 8.76232 14.7376 8.66778 14.7441C7.88872 14.7929 7.10639 14.8222 6.32406 14.8319C6.08936 14.8352 5.82533 14.8287 5.65583 14.7376C5.49284 14.6498 5.46676 14.5067 5.45046 14.3799C5.39505 13.9409 5.33637 13.5019 5.28095 13.0629C5.27769 13.0336 5.27769 13.0011 5.31354 12.9816C5.3494 12.9621 5.40481 12.9653 5.45371 12.9686C6.50659 13.0304 7.67683 13.0174 8.70364 13.1604C9.66525 13.2938 9.32949 13.775 9.28385 14.2596Z" fill="#B8C2C9"/>
</svg>
