<svg width="21" height="73" viewBox="0 0 21 73" fill="none" xmlns="http://www.w3.org/2000/svg">
<path d="M0.0629995 1.42396C0.0564799 1.07277 0.0760441 0.659777 0.333566 0.464667C0.480256 0.350852 0.669305 0.347602 0.845333 0.34435C6.95088 0.256551 13.0532 0.172007 19.1587 0.084207C19.4978 0.0809551 19.8661 0.0842074 20.1367 0.31834C20.4855 0.620761 20.5441 1.18332 20.5702 1.68411C20.7039 4.31485 20.3844 69.4785 20.2377 72.106C16.1858 72.4865 12.1209 71.7385 8.0527 71.732C6.6021 71.7288 5.1515 71.8231 3.70742 71.9662C2.82076 72.054 1.10613 72.6881 0.353124 71.9434C-0.311869 71.2865 0.167318 7.24476 0.15102 6.37001C0.118422 4.71808 0.0890776 3.0694 0.0629995 1.42396Z" fill="#C3D1DD"/>
</svg>
