<svg width="15" height="76" viewBox="0 0 15 76" fill="none" xmlns="http://www.w3.org/2000/svg">
<path d="M12.3741 74.6594C12.5958 74.6366 12.8305 74.6073 13 74.4643C13.1923 74.3017 13.2477 74.0318 13.2868 73.7846C13.753 70.936 14.1246 13.4369 14.1865 10.5493C14.242 7.99332 14.2941 5.43737 14.3495 2.88142C14.3626 2.3156 14.3495 1.688 13.9551 1.28152C13.5574 0.871783 12.9185 0.845763 12.348 0.849014C8.7264 0.852266 5.10477 0.858773 1.48314 0.862025C1.62331 3.82445 1.76021 6.78689 1.90039 9.74932C1.9884 11.6354 2.07643 13.5312 1.93626 15.4173C1.8515 16.5619 0.456315 73.8301 1.16369 74.8024C1.91344 75.83 5.10151 75.1601 6.2294 75.1081C8.28306 75.0106 10.3335 74.861 12.3741 74.6594Z" fill="#CED4D8"/>
</svg>
