<svg width="5" height="4" viewBox="0 0 5 4" fill="none" xmlns="http://www.w3.org/2000/svg">
<path d="M0.527973 2.7355C0.544271 3.01841 0.589918 3.35335 0.844176 3.47367C0.925669 3.51269 1.01367 3.52245 1.10169 3.53221C1.83186 3.6135 2.5653 3.65903 3.302 3.67529C3.52366 3.67854 3.7714 3.67203 3.93112 3.5192C4.08433 3.37286 4.11042 3.14198 4.12346 2.93061C4.17561 2.20871 4.23102 1.49005 4.28318 0.768142C4.28644 0.719364 4.28645 0.664079 4.25059 0.63156C4.21799 0.599042 4.16583 0.602291 4.12019 0.608795C3.1325 0.709602 2.03072 0.690092 1.0691 0.924224C0.166155 1.1486 0.485596 1.94205 0.527973 2.7355Z" fill="#C7CDD3"/>
</svg>
