<svg width="13" height="28" viewBox="0 0 13 28" fill="none" xmlns="http://www.w3.org/2000/svg">
<path d="M12.5642 0.565421C12.5577 0.425592 12.5446 0.269506 12.4501 0.171951C12.336 0.0483812 12.1502 0.0613953 11.9905 0.08741C11.1201 0.220736 10.2628 0.44186 9.39244 0.584942C7.99726 0.815822 6.57925 0.838577 5.16451 0.86134C4.05293 0.880851 2.94461 0.900367 1.83303 0.916626C1.42882 0.92313 0.975711 0.910125 0.688851 0.604452C0.956152 5.0985 1.0083 9.6088 0.845314 14.1061C0.698624 18.2132 0.375916 22.3203 0.529125 26.4273C0.532385 26.5379 0.542154 26.6615 0.620389 26.7362C0.685584 26.8013 0.783387 26.8078 0.87466 26.8143C3.33579 26.9444 5.80016 27.0744 8.26129 27.2045C9.36961 27.2631 10.8072 27.611 11.8927 27.3964C12.8576 27.2045 12.486 25.9038 12.4501 25.1071C12.1958 19.8716 12.4827 14.6296 12.6131 9.39418C12.6881 6.45452 12.7109 3.50834 12.5642 0.565421Z" fill="#A4B1BC"/>
</svg>
