<svg width="7" height="3" viewBox="0 0 7 3" fill="none" xmlns="http://www.w3.org/2000/svg">
<path d="M3.14469 0.944756C4.01832 0.882972 4.87891 0.658594 5.7558 0.687861C5.90901 0.694364 6.0883 0.720375 6.16328 0.856951C6.20239 0.92849 6.20239 1.01304 6.20239 1.09434C6.20239 1.387 6.20239 1.67641 6.19913 1.96907C6.19913 2.03411 6.19913 2.1024 6.16328 2.15443C6.10134 2.24548 5.97095 2.25197 5.86012 2.24872C5.04842 2.2162 4.23672 2.18695 3.42177 2.15443C2.87086 2.13166 1.50827 2.33652 1.04864 2.05687C0.556406 1.7577 0.914982 1.31546 1.28986 1.1171C1.83751 0.821187 2.54815 0.987029 3.14469 0.944756Z" fill="#DCE0E2"/>
</svg>
