<svg width="6" height="2" viewBox="0 0 6 2" fill="none" xmlns="http://www.w3.org/2000/svg">
<path d="M5.72006 0.0292358C5.76896 0.0292358 5.82111 0.0292279 5.86023 0.0617468C5.89935 0.0975176 5.90912 0.156056 5.91238 0.208086C5.94497 0.637335 5.93194 1.06984 5.87326 1.49909C5.86674 1.55112 5.8537 1.60965 5.81459 1.64217C5.77221 1.67469 5.71354 1.67143 5.66139 1.66818C4.13581 1.54136 2.6037 1.50559 1.07486 1.56413C0.977071 1.56738 0.862979 1.56413 0.810822 1.47958C0.784744 1.4373 0.784735 1.38527 0.781475 1.33324C0.778216 1.0113 0.654344 0.481246 0.944465 0.260117C1.22481 0.0454925 2.17666 0.149548 2.52545 0.133289C3.58814 0.0715029 4.65411 0.0292358 5.72006 0.0292358Z" fill="#DCE0E2"/>
</svg>
