<svg width="4" height="12" viewBox="0 0 4 12" fill="none" xmlns="http://www.w3.org/2000/svg">
<path d="M0.243347 1.30166C0.246607 1.39271 0.262906 1.50002 0.344402 1.53904C0.370481 1.55205 0.399823 1.5553 0.429161 1.55855C0.663871 1.58456 0.901838 1.60083 1.13981 1.60408C1.21152 1.60408 1.28976 1.60408 1.34192 1.5553C1.39082 1.50978 1.4006 1.43498 1.40386 1.36669C1.42015 1.13256 1.43972 0.901677 1.45602 0.667543C1.45602 0.651284 1.45601 0.635023 1.44624 0.625267C1.43646 0.615512 1.42015 0.615515 1.40386 0.618767C1.08439 0.651286 0.729079 0.644781 0.419392 0.719574C0.126005 0.787863 0.227048 1.04476 0.243347 1.30166Z" fill="#CAD1D8"/>
<path d="M1.37119 1.99756C1.394 1.99756 1.42009 1.99756 1.43965 2.00731C1.45595 2.01707 1.46572 2.03333 1.4755 2.05284C1.52766 2.16016 1.52765 2.28373 1.52765 2.40079C1.52439 2.5959 1.5244 2.79101 1.52114 2.98612C1.20494 2.98287 0.865919 2.98937 0.556239 2.93084C0.285677 2.88206 0.262855 2.67069 0.308492 2.41705C0.399766 1.91952 0.980011 2.01382 1.37119 1.99756Z" fill="#CAD1D8"/>
<path d="M1.30602 3.43161C1.36143 3.71127 1.37122 4.00067 1.33537 4.28357C1.33211 4.29983 1.33209 4.31609 1.31905 4.32585C1.30927 4.3356 1.29299 4.33886 1.27669 4.33886C1.02897 4.35837 0.781228 4.37788 0.5335 4.39739C0.243397 4.42015 0.240137 3.78931 0.37052 3.60071C0.445491 3.4934 0.559584 3.45438 0.683448 3.43487C0.74538 3.42511 1.29624 3.38609 1.30602 3.43161Z" fill="#CAD1D8"/>
<path d="M1.35157 4.93392C1.42328 5.25909 1.42328 5.60053 1.35157 5.92571C1.34831 5.93871 1.34505 5.95171 1.33527 5.96147C1.32223 5.97123 1.30593 5.97448 1.28963 5.97448C1.06472 5.97448 0.836545 5.97122 0.611634 5.97122C0.530144 5.97122 0.438888 5.96798 0.380216 5.9127C0.321543 5.85742 0.311754 5.76636 0.308495 5.68507C0.298716 5.52899 0.292191 5.37616 0.282412 5.22008C0.272634 5.02497 0.230267 4.99246 0.412804 4.95019C0.699648 4.8819 1.0582 4.92091 1.35157 4.93392Z" fill="#CAD1D8"/>
<path d="M0.243347 7.00211C0.246607 7.09316 0.262906 7.20047 0.344402 7.23949C0.370481 7.25249 0.399823 7.25576 0.429161 7.25901C0.663871 7.28502 0.901838 7.30128 1.13981 7.30453C1.21152 7.30453 1.28976 7.30453 1.34192 7.25575C1.39082 7.21023 1.4006 7.13543 1.40386 7.06714C1.42015 6.83302 1.43972 6.60214 1.45602 6.36801C1.45602 6.35175 1.45601 6.33549 1.44624 6.32574C1.43646 6.31598 1.42015 6.31599 1.40386 6.31924C1.08439 6.35176 0.729079 6.34525 0.419392 6.42004C0.126005 6.49158 0.227048 6.74847 0.243347 7.00211Z" fill="#CAD1D8"/>
<path d="M1.37119 7.70123C1.394 7.70123 1.42009 7.70123 1.43965 7.71099C1.45595 7.72074 1.46572 7.73701 1.4755 7.75652C1.52766 7.86383 1.52765 7.98739 1.52765 8.10446C1.52439 8.29957 1.5244 8.49469 1.52114 8.6898C1.20494 8.68655 0.865919 8.69305 0.556239 8.63452C0.285677 8.58574 0.262855 8.37437 0.308492 8.12073C0.399766 7.61994 0.980011 7.71749 1.37119 7.70123Z" fill="#CAD1D8"/>
<path d="M1.30602 9.13535C1.36143 9.41501 1.37122 9.70443 1.33537 9.98734C1.33211 10.0036 1.33209 10.0199 1.31905 10.0296C1.30927 10.0394 1.29299 10.0426 1.27669 10.0426C1.02897 10.0621 0.781228 10.0816 0.5335 10.1012C0.243397 10.1239 0.240137 9.49305 0.37052 9.30444C0.445491 9.19713 0.559584 9.15812 0.683448 9.13861C0.74538 9.12885 1.29624 9.08982 1.30602 9.13535Z" fill="#CAD1D8"/>
<path d="M1.35157 10.6377C1.42328 10.9629 1.42328 11.3044 1.35157 11.6296C1.34831 11.6426 1.34505 11.6556 1.33527 11.6653C1.32223 11.6751 1.30593 11.6783 1.28963 11.6783C1.06472 11.6783 0.836545 11.6751 0.611634 11.6751C0.530144 11.6751 0.438888 11.6718 0.380216 11.6166C0.321543 11.5613 0.311754 11.4702 0.308495 11.3889C0.298716 11.2328 0.292191 11.08 0.282412 10.9239C0.272634 10.7288 0.230267 10.6963 0.412804 10.654C0.699648 10.5857 1.0582 10.6247 1.35157 10.6377Z" fill="#CAD1D8"/>
<path d="M2.02981 1.30166C2.03307 1.39271 2.04936 1.50002 2.13086 1.53904C2.15694 1.55205 2.18626 1.5553 2.2156 1.55855C2.45031 1.58456 2.6883 1.60083 2.92627 1.60408C2.99798 1.60408 3.07622 1.60408 3.12838 1.5553C3.17727 1.50978 3.18705 1.43498 3.19031 1.36669C3.20661 1.13256 3.22616 0.901677 3.24246 0.667543C3.24246 0.651284 3.24247 0.635023 3.23269 0.625267C3.22291 0.615512 3.20661 0.615515 3.19031 0.618767C2.87085 0.651286 2.51552 0.644781 2.20583 0.719574C1.91244 0.787863 2.01677 1.04476 2.02981 1.30166Z" fill="#CAD1D8"/>
<path d="M3.16083 1.99756C3.18365 1.99756 3.20974 1.99756 3.22929 2.00731C3.24559 2.01707 3.25537 2.03333 3.26515 2.05284C3.3173 2.16016 3.31729 2.28373 3.31729 2.40079C3.31403 2.5959 3.31405 2.79101 3.31079 2.98612C2.9946 2.98287 2.65559 2.98937 2.34592 2.93084C2.07537 2.88206 2.05254 2.67069 2.09818 2.41705C2.18619 1.91952 2.76967 2.01382 3.16083 1.99756Z" fill="#CAD1D8"/>
<path d="M3.09575 3.43161C3.15117 3.71127 3.16096 4.00067 3.1251 4.28357C3.12184 4.29983 3.12184 4.31609 3.1088 4.32585C3.09902 4.3356 3.08272 4.33886 3.06642 4.33886C2.81866 4.35837 2.5709 4.37788 2.32314 4.39739C2.033 4.42015 2.02974 3.78931 2.16014 3.60071C2.23512 3.4934 2.34923 3.45438 2.4731 3.43487C2.53178 3.42511 3.08271 3.38609 3.09575 3.43161Z" fill="#CAD1D8"/>
<path d="M3.13802 4.93392C3.20973 5.25909 3.20973 5.60053 3.13802 5.92571C3.13476 5.93871 3.1315 5.95171 3.12172 5.96147C3.10868 5.97123 3.09238 5.97448 3.07608 5.97448C2.85116 5.97448 2.623 5.97122 2.39808 5.97122C2.31658 5.97122 2.2253 5.96798 2.16663 5.9127C2.10795 5.85742 2.09816 5.76636 2.0949 5.68507C2.08513 5.52899 2.07862 5.37616 2.06884 5.22008C2.05906 5.02497 2.01667 4.99246 2.19922 4.95019C2.48933 4.8819 2.8479 4.92091 3.13802 4.93392Z" fill="#CAD1D8"/>
<path d="M2.02981 7.00211C2.03307 7.09316 2.04936 7.20047 2.13086 7.23949C2.15694 7.25249 2.18626 7.25576 2.2156 7.25901C2.45031 7.28502 2.6883 7.30128 2.92627 7.30453C2.99798 7.30453 3.07622 7.30453 3.12838 7.25575C3.17727 7.21023 3.18705 7.13543 3.19031 7.06714C3.20661 6.83302 3.22616 6.60214 3.24246 6.36801C3.24246 6.35175 3.24247 6.33549 3.23269 6.32574C3.22291 6.31598 3.20661 6.31599 3.19031 6.31924C2.87085 6.35176 2.51552 6.34525 2.20583 6.42004C1.91244 6.49158 2.01677 6.74847 2.02981 7.00211Z" fill="#CAD1D8"/>
<path d="M3.16083 7.70123C3.18365 7.70123 3.20974 7.70123 3.22929 7.71099C3.24559 7.72074 3.25537 7.73701 3.26515 7.75652C3.3173 7.86383 3.31729 7.98739 3.31729 8.10446C3.31403 8.29957 3.31405 8.49469 3.31079 8.6898C2.9946 8.68655 2.65559 8.69305 2.34592 8.63452C2.07537 8.58574 2.05254 8.37437 2.09818 8.12073C2.18619 7.61994 2.76967 7.71749 3.16083 7.70123Z" fill="#CAD1D8"/>
<path d="M3.09575 9.13535C3.15117 9.41501 3.16096 9.70443 3.1251 9.98734C3.12184 10.0036 3.12184 10.0199 3.1088 10.0296C3.09902 10.0394 3.08272 10.0426 3.06642 10.0426C2.81866 10.0621 2.5709 10.0816 2.32314 10.1012C2.033 10.1239 2.02974 9.49305 2.16014 9.30444C2.23512 9.19713 2.34923 9.15812 2.4731 9.13861C2.53178 9.12885 3.08271 9.08982 3.09575 9.13535Z" fill="#CAD1D8"/>
<path d="M3.13802 10.6377C3.20973 10.9629 3.20973 11.3044 3.13802 11.6296C3.13476 11.6426 3.1315 11.6556 3.12172 11.6653C3.10868 11.6751 3.09238 11.6783 3.07608 11.6783C2.85116 11.6783 2.623 11.6751 2.39808 11.6751C2.31658 11.6751 2.2253 11.6718 2.16663 11.6166C2.10795 11.5613 2.09816 11.4702 2.0949 11.3889C2.08513 11.2328 2.07862 11.08 2.06884 10.9239C2.05906 10.7288 2.01667 10.6963 2.19922 10.654C2.48933 10.5857 2.8479 10.6247 3.13802 10.6377Z" fill="#CAD1D8"/>
</svg>
