<svg width="22" height="58" viewBox="0 0 22 58" fill="none" xmlns="http://www.w3.org/2000/svg">
<path d="M2.3942 49.282C2.39094 48.9536 2.40071 28.506 2.48547 28.3239C2.53436 28.2199 2.59957 28.2133 2.66151 28.2101C4.74451 28.1288 6.82425 28.0475 8.90725 27.9662C9.0246 27.963 9.14848 27.9662 9.23976 28.1841C9.35711 28.467 9.37993 49.0576 9.38645 49.5226C9.43209 51.9713 9.42882 54.4297 9.37992 56.8783C7.99777 57.2327 6.61236 56.5336 5.22369 56.5304C4.72821 56.5304 4.23598 56.6149 3.7405 56.7482C3.43734 56.8295 2.85383 57.4214 2.59631 56.7255C2.36812 56.1141 2.42681 54.6996 2.42029 53.8866C2.41377 52.3518 2.40398 50.8169 2.3942 49.282Z" fill="#C3D1DD"/>
<path d="M11.8898 4.39037C14.69 3.87332 17.4902 3.35303 20.2903 2.83599C20.525 2.79371 20.8054 2.81322 20.9325 3.39205C21.0009 3.69447 21.0075 4.07819 21.0107 4.43914C21.1313 14.6402 21.0824 43.9425 20.8673 54.1338C18.2399 54.2769 15.6125 54.4167 12.9851 54.5598C12.5288 54.5858 12.0691 54.9761 11.8312 53.6818C11.6095 52.4591 11.7758 49.4479 11.766 48.0529C11.7366 44.1312 11.7334 21.1244 11.7497 17.2026C11.7529 16.1328 11.8247 4.39037 11.8898 4.39037Z" fill="#BAC3CC"/>
<path d="M12.1539 56.5434C12.2288 56.5206 12.3103 56.4881 12.3658 56.3353C12.431 56.1597 12.4505 55.8735 12.4636 55.6101C12.6233 52.5697 12.6428 29.4133 12.6657 26.3338C12.6852 23.6088 12.7015 20.8837 12.7211 18.1554C12.7243 17.5538 12.7211 16.8807 12.5874 16.4515C12.4505 16.0157 12.2354 15.9897 12.0398 15.9897C10.8044 15.993 9.5689 15.9995 8.33346 16.0027C8.38236 19.1603 8.42799 22.321 8.47689 25.4786C8.50623 27.4915 8.53558 49.578 8.48994 51.5909C8.4606 52.8103 8.09224 55.6589 8.33346 56.693C8.58772 57.7889 9.67648 57.0735 10.0611 57.0182C10.7587 56.9174 11.4596 56.758 12.1539 56.5434Z" fill="#CED4D8"/>
<path d="M1.05442 56.4265C2.19534 56.7062 3.34278 56.6736 4.48044 56.3289C4.59128 44.6841 4.7021 12.972 4.81293 1.32392C3.80566 1.08329 2.78861 0.930444 1.78134 0.992229C1.43255 1.01499 1.13265 0.914187 1.01204 2.07185C0.888169 3.26202 1.04138 5.32045 1.05442 6.57891C1.1131 12.9655 1.11634 19.3522 1.10004 25.7421C1.09352 26.6331 1.02508 56.42 1.05442 56.4265Z" fill="#BAC3CC"/>
<path d="M18.24 9.05349C18.2465 9.33965 18.2628 9.67784 18.3475 9.80466C18.3736 9.84368 18.4062 9.85344 18.4356 9.86319C18.6833 9.94449 18.9343 9.99327 19.1853 10.0095C19.2603 10.0128 19.3451 10.0063 19.4005 9.85019C19.4526 9.70061 19.4624 9.46647 19.4657 9.2551C19.4852 8.52343 19.5015 7.79177 19.5211 7.06336C19.5211 7.01458 19.5211 6.9593 19.5113 6.92678C19.4983 6.89426 19.482 6.89752 19.4657 6.90403C19.1299 7.00808 18.7518 6.98857 18.4258 7.2227C18.1161 7.44382 18.2237 8.24703 18.24 9.05349Z" fill="#C7CDD3"/>
<path d="M19.4331 11.2485C19.4559 11.2453 19.482 11.2453 19.5048 11.281C19.5211 11.3136 19.5341 11.3688 19.5439 11.4241C19.5993 11.7558 19.5993 12.146 19.5993 12.5167C19.596 13.1313 19.5961 13.7459 19.5928 14.3605C19.2603 14.354 18.9017 14.3703 18.5724 14.1914C18.2855 14.0354 18.2627 13.3785 18.3084 12.5785C18.4029 10.9949 19.019 11.294 19.4331 11.2485Z" fill="#C7CDD3"/>
<path d="M19.3645 15.7524C19.4231 16.6336 19.4329 17.5409 19.3971 18.4319C19.3938 18.4806 19.3938 18.5327 19.3808 18.5652C19.3677 18.5977 19.3514 18.6042 19.3351 18.6075C19.0743 18.6692 18.8103 18.7278 18.5495 18.7896C18.2431 18.8611 18.2398 16.8742 18.3767 16.2824C18.455 15.9442 18.5756 15.8271 18.706 15.7589C18.7712 15.7263 19.3514 15.6125 19.3645 15.7524Z" fill="#C7CDD3"/>
<path d="M19.4103 20.4708C19.4886 21.4951 19.4886 22.5682 19.4103 23.5893C19.4071 23.6284 19.4038 23.6706 19.394 23.6999C19.381 23.7357 19.3614 23.7357 19.3451 23.7357C19.1071 23.7324 18.8659 23.7292 18.6279 23.7259C18.5432 23.7259 18.4487 23.7129 18.3835 23.5373C18.3215 23.3617 18.3117 23.0788 18.3085 22.8251C18.2987 22.3406 18.2889 21.8528 18.2824 21.3683C18.2694 20.7602 18.227 20.6529 18.4226 20.5163C18.7225 20.3082 19.1039 20.4285 19.4103 20.4708Z" fill="#C7CDD3"/>
<path d="M9.92425 18.3928C10.2209 18.3311 10.5175 18.1002 10.8142 18.1327C10.8663 18.1392 10.9282 18.1652 10.9543 18.3018C10.9674 18.3733 10.9673 18.4579 10.9673 18.5424C10.9673 18.8383 10.9673 19.1342 10.9673 19.4302C10.9673 19.4952 10.9674 19.5635 10.9543 19.6187C10.9348 19.7131 10.8891 19.7163 10.85 19.7131C10.5729 19.6805 10.2959 19.648 10.0188 19.6187C9.82973 19.596 9.36684 19.8041 9.21038 19.5212C9.04088 19.2188 9.16474 18.77 9.29187 18.5684C9.47767 18.266 9.72215 18.4351 9.92425 18.3928Z" fill="#DCE0E2"/>
<path d="M10.8009 20.5032C10.8172 20.5032 10.8368 20.5032 10.8498 20.5357C10.8629 20.5715 10.8661 20.63 10.8661 20.6853C10.8792 21.121 10.8727 21.56 10.8531 21.9925C10.8498 22.0446 10.8466 22.1031 10.8335 22.1389C10.8205 22.1714 10.8009 22.1681 10.7814 22.1649C10.2631 22.0348 9.73826 21.999 9.2167 22.0576C9.1841 22.0608 9.14499 22.0543 9.12543 21.973C9.11565 21.9308 9.11564 21.8755 9.11564 21.8267C9.11564 21.4983 9.07326 20.9649 9.17105 20.7406C9.26559 20.5227 9.59157 20.63 9.70892 20.6105C10.074 20.5487 10.4391 20.5032 10.8009 20.5032Z" fill="#DCE0E2"/>
<path d="M10.8076 22.7372C10.8174 22.7405 10.8304 22.747 10.837 22.7698C10.8467 22.7958 10.8467 22.8348 10.85 22.8738C10.8598 23.2835 10.8533 23.6965 10.8304 24.0997C10.3382 24.1518 9.84922 24.2038 9.35698 24.2558C9.33416 24.2591 9.30809 24.2591 9.28853 24.2233C9.26245 24.181 9.24941 24.09 9.24289 24.0087C9.10271 22.721 9.39284 22.799 9.75469 22.7015C10.1068 22.6072 10.4588 22.6202 10.8076 22.7372Z" fill="#DCE0E2"/>
<path d="M1.43242 3.5417C1.43568 3.63275 1.43894 3.7433 1.46828 3.78232C1.47806 3.79533 1.48785 3.79858 1.49763 3.80183C1.57912 3.82785 1.65736 3.8441 1.73885 3.84735C1.76167 3.84735 1.79102 3.84736 1.80732 3.79533C1.82362 3.74656 1.82688 3.67176 1.83014 3.60347C1.83666 3.3661 1.84318 3.13198 1.84644 2.89461C1.84644 2.87835 1.84643 2.8621 1.84317 2.84909C1.83991 2.83933 1.8334 2.83933 1.83014 2.84258C1.72256 2.8751 1.59868 2.8686 1.49436 2.94664C1.39331 3.02143 1.4259 3.28157 1.43242 3.5417Z" fill="#CAD1D8"/>
<path d="M1.81718 4.25064C1.8237 4.25064 1.83348 4.25064 1.84 4.2604C1.84652 4.27015 1.8498 4.28966 1.85306 4.30591C1.86936 4.41322 1.86935 4.54004 1.86935 4.65711C1.86935 4.85546 1.86935 5.05381 1.86609 5.25217C1.7585 5.24892 1.64439 5.25542 1.5368 5.19689C1.44551 5.14487 1.43573 4.9335 1.45203 4.67662C1.48463 4.1661 1.68351 4.26365 1.81718 4.25064Z" fill="#CAD1D8"/>
<path d="M1.79413 5.70419C1.81369 5.9871 1.81696 6.28301 1.80392 6.56917C1.80392 6.58543 1.80391 6.60168 1.79739 6.61143C1.79413 6.62119 1.78762 6.62444 1.78436 6.62444C1.69961 6.64395 1.61485 6.66346 1.53011 6.68297C1.43232 6.70573 1.42907 6.06513 1.4747 5.87328C1.50078 5.76597 1.5399 5.72695 1.58227 5.70419C1.60183 5.69443 1.79087 5.65541 1.79413 5.70419Z" fill="#CAD1D8"/>
<path d="M1.8107 7.22604C1.83678 7.55773 1.83678 7.90243 1.8107 8.23412C1.8107 8.24713 1.80744 8.26013 1.80418 8.26989C1.80092 8.2829 1.7944 8.2829 1.78788 8.2829C1.70965 8.2829 1.63467 8.27964 1.55644 8.27964C1.5271 8.27964 1.49776 8.27639 1.47821 8.21786C1.45865 8.16258 1.45538 8.07153 1.45212 7.98698C1.44886 7.83089 1.44561 7.67479 1.44235 7.51545C1.43909 7.32034 1.42604 7.28457 1.48798 7.2423C1.58903 7.17401 1.70965 7.21303 1.8107 7.22604Z" fill="#CAD1D8"/>
<path d="M1.43242 9.32345C1.43568 9.4145 1.43894 9.52505 1.46828 9.56408C1.47806 9.57708 1.48785 9.58033 1.49763 9.58359C1.57912 9.6096 1.65736 9.62585 1.73885 9.6291C1.76167 9.6291 1.79102 9.62911 1.80732 9.57709C1.82362 9.52831 1.82688 9.45351 1.83014 9.38522C1.83666 9.14785 1.84318 8.91372 1.84644 8.67635C1.84644 8.66009 1.84643 8.64384 1.84317 8.63083C1.83991 8.62107 1.8334 8.62107 1.83014 8.62432C1.72256 8.65684 1.59868 8.65033 1.49436 8.72838C1.39331 8.80317 1.4259 9.06331 1.43242 9.32345Z" fill="#CAD1D8"/>
<path d="M1.81718 10.0324C1.8237 10.0324 1.83348 10.0324 1.84 10.0422C1.84652 10.052 1.8498 10.0715 1.85306 10.0877C1.86936 10.195 1.86935 10.3218 1.86935 10.4389C1.86935 10.6373 1.86935 10.8356 1.86609 11.034C1.7585 11.0307 1.64439 11.0372 1.5368 10.9787C1.44551 10.9267 1.43573 10.7153 1.45203 10.4584C1.48463 9.95115 1.68351 10.0487 1.81718 10.0324Z" fill="#CAD1D8"/>
<path d="M1.79413 11.4859C1.81369 11.7689 1.81696 12.0648 1.80392 12.351C1.80392 12.3672 1.80391 12.3835 1.79739 12.3932C1.79413 12.403 1.78762 12.4062 1.78436 12.4062C1.69961 12.4257 1.61485 12.4453 1.53011 12.4648C1.43232 12.4875 1.42907 11.8469 1.4747 11.655C1.50078 11.5477 1.5399 11.5087 1.58227 11.4859C1.60183 11.4794 1.79087 11.4404 1.79413 11.4859Z" fill="#CAD1D8"/>
<path d="M1.8107 13.0111C1.83678 13.3428 1.83678 13.6875 1.8107 14.0192C1.8107 14.0322 1.80744 14.0452 1.80418 14.055C1.80092 14.068 1.7944 14.068 1.78788 14.068C1.70965 14.068 1.63467 14.0647 1.55644 14.0647C1.5271 14.0647 1.49776 14.0615 1.47821 14.0029C1.45865 13.9476 1.45538 13.8566 1.45212 13.772C1.44886 13.6159 1.44561 13.4599 1.44235 13.3005C1.43909 13.1054 1.42604 13.0696 1.48798 13.0274C1.58903 12.9558 1.70965 12.9948 1.8107 13.0111Z" fill="#CAD1D8"/>
<path d="M2.04195 3.5417C2.04521 3.63275 2.04846 3.7433 2.0778 3.78232C2.08757 3.79533 2.09736 3.79858 2.10714 3.80183C2.18862 3.82785 2.26683 3.8441 2.34831 3.84735C2.37113 3.84735 2.40047 3.84736 2.41676 3.79533C2.43306 3.74656 2.43632 3.67176 2.43958 3.60347C2.4461 3.3661 2.45261 3.13198 2.45587 2.89461C2.45587 2.87835 2.45587 2.8621 2.45261 2.84909C2.44935 2.83933 2.44284 2.83933 2.43958 2.84258C2.33203 2.8751 2.20817 2.8686 2.10387 2.94664C2.00284 3.02143 2.03543 3.28157 2.04195 3.5417Z" fill="#CAD1D8"/>
<path d="M2.42663 4.25064C2.43314 4.25064 2.44293 4.25064 2.44945 4.2604C2.45596 4.27015 2.45924 4.28966 2.4625 4.30591C2.47879 4.41322 2.47879 4.54004 2.47879 4.65711C2.47879 4.85546 2.47879 5.05381 2.47553 5.25217C2.36796 5.24892 2.25387 5.25542 2.14631 5.19689C2.05504 5.14487 2.04525 4.9335 2.06155 4.67662C2.09415 4.1661 2.29298 4.26365 2.42663 4.25064Z" fill="#CAD1D8"/>
<path d="M2.40368 5.70419C2.42325 5.9871 2.42651 6.28301 2.41347 6.56917C2.41347 6.58543 2.41347 6.60168 2.40695 6.61143C2.40369 6.62119 2.39717 6.62444 2.39391 6.62444C2.30915 6.64395 2.22438 6.66346 2.13962 6.68297C2.04181 6.70573 2.03856 6.06513 2.0842 5.87328C2.11028 5.76597 2.14941 5.72695 2.19179 5.70419C2.21135 5.69443 2.40042 5.65541 2.40368 5.70419Z" fill="#CAD1D8"/>
<path d="M2.4202 7.22604C2.44628 7.55773 2.44628 7.90243 2.4202 8.23412C2.4202 8.24713 2.41693 8.26013 2.41367 8.26989C2.41041 8.2829 2.4039 8.2829 2.39738 8.2829C2.31915 8.2829 2.24416 8.27964 2.16593 8.27964C2.13659 8.27964 2.10726 8.27639 2.0877 8.21786C2.06814 8.16258 2.06488 8.07153 2.06162 7.98698C2.05836 7.83089 2.05511 7.67479 2.05185 7.51545C2.04859 7.32034 2.03555 7.28457 2.09749 7.2423C2.19854 7.17401 2.31915 7.21303 2.4202 7.22604Z" fill="#CAD1D8"/>
<path d="M2.04195 9.32345C2.04521 9.4145 2.04846 9.52505 2.0778 9.56408C2.08757 9.57708 2.09736 9.58033 2.10714 9.58359C2.18862 9.6096 2.26683 9.62585 2.34831 9.6291C2.37113 9.6291 2.40047 9.62911 2.41676 9.57709C2.43306 9.52831 2.43632 9.45351 2.43958 9.38522C2.4461 9.14785 2.45261 8.91372 2.45587 8.67635C2.45587 8.66009 2.45587 8.64384 2.45261 8.63083C2.44935 8.62107 2.44284 8.62107 2.43958 8.62432C2.33203 8.65684 2.20817 8.65033 2.10387 8.72838C2.00284 8.80317 2.03543 9.06331 2.04195 9.32345Z" fill="#CAD1D8"/>
<path d="M2.42663 10.0324C2.43314 10.0324 2.44293 10.0324 2.44945 10.0422C2.45596 10.052 2.45924 10.0715 2.4625 10.0877C2.47879 10.195 2.47879 10.3218 2.47879 10.4389C2.47879 10.6373 2.47879 10.8356 2.47553 11.034C2.36796 11.0307 2.25387 11.0372 2.14631 10.9787C2.05504 10.9267 2.04525 10.7153 2.06155 10.4584C2.09415 9.95115 2.29298 10.0487 2.42663 10.0324Z" fill="#CAD1D8"/>
<path d="M2.40368 11.4859C2.42325 11.7689 2.42651 12.0648 2.41347 12.351C2.41347 12.3672 2.41347 12.3835 2.40695 12.3932C2.40369 12.403 2.39717 12.4062 2.39391 12.4062C2.30915 12.4257 2.22438 12.4453 2.13962 12.4648C2.04181 12.4875 2.03856 11.8469 2.0842 11.655C2.11028 11.5477 2.14941 11.5087 2.19179 11.4859C2.21135 11.4794 2.40042 11.4404 2.40368 11.4859Z" fill="#CAD1D8"/>
<path d="M2.4202 13.0111C2.44628 13.3428 2.44628 13.6875 2.4202 14.0192C2.4202 14.0322 2.41693 14.0452 2.41367 14.055C2.41041 14.068 2.4039 14.068 2.39738 14.068C2.31915 14.068 2.24416 14.0647 2.16593 14.0647C2.13659 14.0647 2.10726 14.0615 2.0877 14.0029C2.06814 13.9476 2.06488 13.8566 2.06162 13.772C2.05836 13.6159 2.05511 13.4599 2.05185 13.3005C2.04859 13.1054 2.03555 13.0696 2.09749 13.0274C2.19854 12.9558 2.31915 12.9948 2.4202 13.0111Z" fill="#CAD1D8"/>
<path d="M15.1497 1.86047C15.1562 2.01005 15.1758 2.18566 15.2866 2.24744C15.3225 2.26695 15.3616 2.27346 15.3974 2.27996C15.7136 2.32224 16.0298 2.34825 16.346 2.35475C16.4406 2.358 16.5482 2.3515 16.6166 2.27345C16.6818 2.19541 16.6916 2.07509 16.7014 1.96453C16.7242 1.58731 16.747 1.20684 16.7698 0.829621C16.7698 0.803606 16.7731 0.774338 16.7568 0.758079C16.7437 0.74182 16.7209 0.741827 16.7014 0.745079C16.2743 0.797109 15.8016 0.787346 15.3876 0.910917C14.9932 1.02473 15.1301 1.44098 15.1497 1.86047Z" fill="#B8C2C9"/>
</svg>
