<svg width="29" height="58" viewBox="0 0 29 58" fill="none" xmlns="http://www.w3.org/2000/svg">
<path d="M1.03751 24.9897C0.401855 30.0788 1.78072 35.0411 6.98334 37.2101C15.7619 40.8684 28.8565 38.5954 28.9967 26.375C29.0554 21.1232 26.1574 16.4211 23.367 12.0799C21.6393 9.39058 18.4611 1.69021 15.6511 0.412234C12.7727 -0.895008 9.93347 2.96168 8.67519 5.14692C5.68271 10.3434 3.32913 15.943 1.69598 21.7606C1.39934 22.8272 1.17442 23.9133 1.03751 24.9897Z" fill="#14AF87"/>
<path d="M6.63779 23.8093C7.14631 23.4093 7.87977 23.4971 8.28072 24.0011C9.63679 25.7084 11.2993 27.2757 12.9129 28.7911C13.0009 28.8724 13.0856 28.957 13.1736 29.0415C13.1997 28.4269 13.2258 27.8123 13.2616 27.2107C13.3594 25.6336 13.2845 24.0564 13.2062 22.385C13.1541 21.2891 13.1019 20.19 13.1019 19.0909C13.0986 17.5625 13.1313 16.0341 13.1671 14.5058C13.1997 13.0327 13.2323 11.5596 13.2323 10.0898C13.2323 9.44591 13.7571 8.92236 14.4026 8.92236C15.0512 8.92236 15.5728 9.44591 15.5728 10.0898C15.5728 11.5791 15.5402 13.0685 15.5076 14.5578C15.475 16.0699 15.4424 17.5788 15.4424 19.0909C15.4424 19.8323 15.4718 20.5737 15.5011 21.3151C15.7586 21.0777 16.0161 20.8404 16.2737 20.6062C17.6754 19.3282 18.9988 18.1251 20.0224 16.587C20.3777 16.0504 21.1079 15.8976 21.6458 16.2585C22.1837 16.6162 22.3303 17.3414 21.975 17.8779C20.7917 19.6567 19.2988 21.016 17.8547 22.333C17.1962 22.9313 16.5377 23.5329 15.9053 24.1767C15.8238 24.258 15.726 24.3101 15.6282 24.3621C15.6576 25.3539 15.6608 26.3555 15.5989 27.357C15.5141 28.7098 15.4653 30.1016 15.4457 31.5357C15.4783 31.7015 15.4783 31.8674 15.4392 32.0332C15.4261 33.5095 15.4424 35.0314 15.4946 36.6313C15.5826 39.2881 15.5793 41.8147 15.5761 44.4943L15.5728 56.4578C15.5728 57.1049 15.048 57.6252 14.4026 57.6252C13.7539 57.6252 13.2323 57.1016 13.2323 56.4578L13.2356 44.491C13.2388 41.8342 13.2421 39.3238 13.1573 36.7093C13.1052 35.1485 13.0889 33.6591 13.0986 32.2153C12.5086 31.6365 11.9121 31.0642 11.3058 30.4951C9.6335 28.9212 7.90585 27.2953 6.44547 25.4515C6.04452 24.9442 6.12926 24.2093 6.63779 23.8093Z" fill="#736357"/>
</svg>
