<svg width="19" height="38" viewBox="0 0 19 38" fill="none" xmlns="http://www.w3.org/2000/svg">
<path d="M0.643397 15.5824C0.245704 18.7562 1.10629 21.852 4.35303 23.2047C9.82946 25.4875 17.9985 24.0697 18.0865 16.4474C18.1223 13.1728 16.3164 10.2396 14.5757 7.53085C13.4967 5.8529 11.5148 1.04993 9.76099 0.253226C7.96485 -0.562987 6.1948 1.84338 5.40919 3.20591C3.54134 6.44799 2.07444 9.94047 1.05413 13.5695C0.868325 14.2329 0.728152 14.9093 0.643397 15.5824Z" fill="#00A07B"/>
<path d="M4.13469 14.8475C4.45088 14.5971 4.91049 14.6524 5.16149 14.9678C6.00576 16.0344 7.04561 17.01 8.04961 17.9562C8.10502 18.0083 8.15718 18.0603 8.21259 18.1123C8.22889 17.7286 8.24521 17.3449 8.26802 16.9709C8.32996 15.9856 8.28433 15.0036 8.23217 13.963C8.19957 13.2801 8.16695 12.594 8.16695 11.9078C8.16695 10.955 8.18655 10.0023 8.20611 9.04621C8.22567 8.12594 8.24522 7.20891 8.24522 6.29189C8.24522 5.88866 8.57119 5.56348 8.9754 5.56348C9.37961 5.56348 9.70558 5.88866 9.70558 6.29189C9.70558 7.22191 9.68602 8.14869 9.66646 9.07872C9.6469 10.0218 9.62409 10.9648 9.62735 11.9078C9.62735 12.3696 9.64364 12.8346 9.6632 13.2964C9.82292 13.1468 9.98265 13.0004 10.1456 12.8541C11.0192 12.0574 11.844 11.3062 12.4829 10.3469C12.7045 10.012 13.1576 9.9177 13.4966 10.1421C13.8324 10.3632 13.9237 10.8152 13.702 11.1534C12.9653 12.2623 12.033 13.111 11.1333 13.9305C10.7226 14.3044 10.3119 14.6784 9.91747 15.0816C9.86857 15.1337 9.80663 15.1629 9.74469 15.1987C9.76099 15.8198 9.76423 16.4441 9.72511 17.0652C9.67296 17.9107 9.64365 18.7757 9.63061 19.67C9.65343 19.774 9.65016 19.8781 9.62735 19.9789C9.61757 20.8992 9.6306 21.8487 9.6632 22.847C9.71861 24.5022 9.71532 26.0826 9.71532 27.7508L9.7121 37.2462C9.7121 37.6494 9.38609 37.9746 8.98189 37.9746C8.57768 37.9746 8.25171 37.6494 8.25171 37.2462L8.25497 27.7475C8.25823 26.0891 8.25826 24.525 8.20611 22.8925C8.17351 21.9202 8.1637 20.9902 8.17022 20.0895C7.80187 19.7285 7.43028 19.3708 7.05215 19.0164C6.00904 18.0343 4.93331 17.0197 4.02059 15.8718C3.76633 15.5564 3.8185 15.0979 4.13469 14.8475Z" fill="#736357"/>
</svg>
