<svg width="58" height="11" viewBox="0 0 58 11" fill="none" xmlns="http://www.w3.org/2000/svg">
<path d="M57.5401 7.56483C57.4521 7.31769 57.1521 7.19737 56.8522 7.11933C56.6664 7.07055 56.4709 7.03153 56.2916 6.96325C56.0504 6.86894 55.9297 6.7096 55.7993 6.53726C55.4017 6.01046 54.6454 5.67226 53.8337 5.67877C53.0481 5.68527 51.8028 6.31286 51.353 5.52592C51.1998 5.25927 51.1835 4.9601 51.0368 4.69345C50.9097 4.46582 50.6848 4.29674 50.3849 4.19918C49.7394 3.98781 48.9245 4.09187 48.341 3.76668C47.7738 3.4545 47.8716 2.70658 47.1674 2.50822C46.7991 2.40416 46.4112 2.53097 46.0526 2.59926C45.8342 2.64154 45.6027 2.67082 45.3811 2.61554C45.1399 2.55375 44.9573 2.41391 44.7813 2.28059C44.1913 1.84484 43.4383 1.5912 42.6038 1.5912C42.193 1.5912 41.7823 1.64974 41.4074 1.77656C40.9999 1.91313 40.6479 2.12776 40.2176 2.22857C40.0057 2.27735 39.771 2.29685 39.5721 2.2058C39.3635 2.10825 39.2951 1.91638 39.0962 1.80907C38.7833 1.63997 38.3595 1.74404 38.0205 1.79932C37.7076 1.85135 36.9937 1.81232 37.0849 1.44812C37.0915 1.4221 37.0589 1.42535 37.0295 1.41884C36.2863 1.22048 36.3417 1.45463 36.2635 1.72128C36.2537 1.37984 35.8202 1.06766 35.354 1.12619C34.9172 1.18147 34.6336 1.52291 34.7053 1.83834C33.7176 1.6725 32.6647 2.25782 32.5767 3.009C32.5571 3.00575 32.5408 3.0155 32.5147 3.02525C31.6802 3.3797 30.3013 3.59759 29.7439 4.62517C29.7309 4.64794 29.5744 5.17147 29.5418 5.18448C28.3422 5.63323 28.6128 6.73235 29.444 6.42017C29.4636 6.41367 29.4081 6.43968 29.4081 6.45919C29.4375 7.11281 29.9656 7.68515 30.6599 8.05586C31.4781 8.49161 32.4886 8.65094 33.4601 8.76476C34.5586 8.89483 35.6734 8.95987 36.7818 8.93061C37.3457 8.91435 37.9064 8.87532 38.4638 8.80378C39.0017 8.73549 39.533 8.63469 40.0676 8.56315C40.6511 8.4851 41.2281 8.45908 41.8214 8.49485C42.3951 8.53062 42.9656 8.59242 43.5426 8.63144C44.6607 8.70623 45.7885 8.72574 46.9099 8.68997C47.4836 8.67371 48.0541 8.64118 48.6246 8.5924C49.195 8.54688 49.772 8.48509 50.3425 8.55338C50.8249 8.60866 51.278 8.71599 51.767 8.63144C52.2234 8.5534 52.6276 8.36478 53.0579 8.23471C53.5762 8.08187 54.0684 8.08187 54.5997 8.19569C55.092 8.303 55.5679 8.46559 56.0829 8.50136C56.5035 8.53388 56.9501 8.47535 57.25 8.24122C57.4814 8.07212 57.6281 7.80872 57.5401 7.56483Z" fill="#4C946F"/>
<path d="M35.8136 8.03313C35.8528 7.93232 35.856 7.82176 35.8136 7.70469C35.768 7.57787 35.6702 7.46731 35.5333 7.38276C35.4909 7.35675 35.4518 7.33723 35.4062 7.31772C35.4094 7.2787 35.4062 7.23968 35.3931 7.1974C35.3508 7.05432 35.2464 6.92099 35.0997 6.82344C35.0052 6.76165 34.8976 6.71613 34.7803 6.68686C34.7281 6.59256 34.6499 6.50152 34.5456 6.42998C34.4478 6.36169 34.3402 6.3129 34.2294 6.28038C34.3076 5.99747 34.2489 5.71456 33.9295 5.48368C33.6491 5.28207 33.3264 5.23654 33.007 5.27881C32.9776 5.13899 32.8864 4.99916 32.7527 4.89836C32.4919 4.69999 32.179 4.63821 31.8889 4.67398C31.8758 4.66747 31.8628 4.66097 31.8498 4.65447C31.7715 4.62195 31.6183 4.61545 31.5596 4.57968C31.5401 4.56667 31.5303 4.56342 31.527 4.56017C31.5335 4.56017 31.5499 4.55691 31.5401 4.50813C31.527 4.43984 31.6313 4.31629 31.6411 4.23824C31.6509 4.15044 31.6444 4.06263 31.6118 3.97808C31.6085 3.97483 31.6085 3.96833 31.6053 3.96508C32.0421 3.33748 30.9826 2.50175 30.1025 2.43997C29.8287 2.42046 29.5353 2.52778 29.2713 2.49201C29.0789 2.46599 28.9909 2.30339 28.8964 2.18957C28.6323 1.8774 28.3227 1.62376 27.8239 1.50995C26.8916 1.30183 26.0669 1.66278 25.6236 2.21885C25.4801 2.30665 25.3139 2.4042 25.1411 2.37818C25.1248 2.37493 25.1118 2.37493 25.0955 2.37493C24.5967 2.27412 24.0622 2.16032 23.759 1.8579C23.5667 1.66604 23.4949 1.4254 23.3156 1.22704C22.7256 0.563667 21.3174 0.680722 20.3753 1.07419C20.0331 1.21728 19.681 1.39287 19.2866 1.37987C18.5107 1.3571 18.0544 0.648214 17.2851 0.576674C17.0047 0.550659 16.7244 0.615698 16.4571 0.680735C15.1271 0.999415 13.7971 1.32135 12.4704 1.64003C11.8934 1.77986 11.2936 1.92619 10.8503 2.22861C10.6514 2.36519 10.4884 2.52778 10.2766 2.6546C9.40945 3.16514 8.14141 2.86595 7.02983 2.80092C5.21739 2.69686 1.39042 4.02361 0.898192 5.42841C0.751502 5.84789 0.849287 6.29015 0.95034 6.71939C1.07421 7.24619 1.33499 7.88029 2.05215 7.99085C2.47592 8.05589 2.89644 7.89654 3.30391 7.78273C5.34127 7.20716 7.61006 7.68844 9.755 7.99736C12.4476 8.38758 15.2184 8.49489 17.9533 8.31929C20.0754 8.18271 22.341 7.89654 24.2414 8.59569C24.4598 8.67698 24.675 8.77129 24.8934 8.84609C24.9032 8.90137 24.9292 8.95665 24.9749 9.01193C25.3498 9.46394 26.0245 9.59075 26.7058 9.62977C27.586 9.6818 28.4759 9.68832 29.3593 9.68507C30.2362 9.68507 31.113 9.6688 31.9867 9.62002C32.4398 9.59726 32.8864 9.56149 33.3362 9.51922C33.6459 9.48995 33.9817 9.46719 34.2946 9.41516C34.8129 9.46719 35.442 9.38263 35.6343 9.06395C35.7745 9.01518 35.8984 8.92738 35.9179 8.82007C35.9701 8.53391 35.9734 8.26401 35.8136 8.03313Z" fill="#2BA27C"/>
<path d="M37.5739 10.0493C37.7173 9.98747 37.776 9.85414 37.8901 9.76634C38.2128 9.5192 38.7898 9.68503 39.2396 9.59073C39.7807 9.47691 40.0187 8.9111 39.6503 8.59892C39.3113 8.30951 38.6431 8.27049 38.4149 7.9323C38.1737 7.57134 38.5485 7.03479 38.1117 6.79415C38.0074 6.73562 37.8803 6.71285 37.7532 6.69009C36.9806 6.55676 36.1167 6.45595 35.6115 6.01044C35.3637 5.78932 35.2301 5.50317 34.9334 5.31782C34.6824 5.16173 34.35 5.09668 34.0272 5.03815C33.3557 4.91457 32.6875 4.79426 32.016 4.67068C31.3249 4.54386 30.5686 4.4203 29.9199 4.63817C29.7895 4.68045 29.6591 4.73898 29.5157 4.73898C29.3332 4.73898 29.18 4.64792 29.0333 4.56988C28.5378 4.30323 27.9478 4.12763 27.3382 4.06259C27.0318 4.03007 26.7058 4.02358 26.4385 3.90976C26.106 3.76668 25.9332 3.49027 25.7246 3.25288C25.203 2.66105 24.186 2.2253 23.2733 2.45618C22.8299 2.56999 22.4648 2.82365 22.0052 2.89844C21.7933 2.93421 21.5586 2.93096 21.3793 3.02202C21.0957 3.1651 21.0599 3.47726 20.7795 3.62034C20.5872 3.7179 20.3297 3.70815 20.0982 3.72441C19.4919 3.76993 18.9247 4.02683 18.6053 4.4008C18.4749 4.55363 18.3836 4.72271 18.2141 4.85279C17.8295 5.14871 17.1416 5.16173 16.7831 5.47716C16.2289 5.96818 16.8743 6.74213 16.5353 7.32746C16.431 7.50631 16.2452 7.64612 16.0822 7.79896C15.766 8.09488 15.5248 8.44608 15.489 8.8233C15.4564 9.19726 15.6552 9.59398 16.0724 9.81511C16.6429 10.1175 17.435 10.0297 18.1196 10.1565C18.6379 10.2509 19.1008 10.472 19.6223 10.563C20.5644 10.7256 21.5293 10.4427 22.4551 10.2411C24.3816 9.82486 26.4483 9.75008 28.4237 10.0265C28.9257 10.098 29.4701 10.1858 29.9232 10.0167C30.0797 9.95819 30.2264 9.8704 30.4024 9.86715C30.5784 9.8639 30.7349 9.94844 30.8946 10.0037C31.2825 10.137 31.7356 10.1013 32.1626 10.0818C33.1015 10.0395 34.0338 10.1338 34.9726 10.0883C35.6441 10.046 37.0425 10.2834 37.5739 10.0493Z" fill="#56A87E"/>
</svg>
