<svg width="21" height="65" viewBox="0 0 21 65" fill="none" xmlns="http://www.w3.org/2000/svg">
<path d="M19.3419 64.3517C20.1112 62.768 19.6809 58.5471 19.707 56.7163C19.8048 50.0891 19.9026 43.4651 20.0004 36.8378C20.0525 33.2673 20.8088 10.9921 19.5896 7.94841C18.8562 6.11762 19.8243 2.29345 18.1162 1.60081C13.1255 -0.425093 12.7506 0.0756856 6.53748 0.690284C5.52368 -0.0088624 3.1799 0.0691799 2.08462 0.088691C0.461248 9.81821 1.02846 21.5866 0.930664 31.5763C0.823091 42.2131 0.966517 52.8466 1.36421 63.4607C1.43267 65.2654 14.136 64.563 15.4497 64.5825C16.1408 64.5956 18.5172 65.2459 19.042 64.7777C19.1561 64.6703 19.2571 64.5273 19.3419 64.3517Z" fill="#527597"/>
</svg>
