<svg width="33" height="71" viewBox="0 0 33 71" fill="none" xmlns="http://www.w3.org/2000/svg">
<path d="M32.4948 61.8904C32.6024 54.7331 32.7067 47.5758 32.8143 40.4217C32.8729 36.565 33.4401 32.24 32.221 28.9524C31.4908 26.9753 30.0858 25.073 29.1503 23.3007C25.483 16.3515 21.819 9.40233 18.1518 2.45313C17.138 1.70196 16.0329 0.726407 14.9376 0.74917C13.3208 11.1356 13.8424 23.6617 13.7446 34.37C10.8401 37.2837 7.93565 40.1941 5.03119 43.1077C4.05325 44.0865 2.60591 45.1271 1.82683 46.2295C0.532694 48.0603 0.99558 50.5252 0.962982 52.7104C0.897786 56.7655 0.835852 60.8205 0.770656 64.8756C0.754357 65.9975 0.219755 68.5664 0.949945 69.555C1.03144 69.6655 1.12923 69.7566 1.24332 69.8216C1.75837 70.1208 4.14779 69.7859 4.83886 69.7989C5.71248 69.8119 11.6127 70.1566 15.4983 70.0623C18.82 70.8655 27.1716 70.3712 28.2245 70.3907C28.9156 70.4037 31.2919 71.1029 31.8168 70.5988C31.9341 70.485 32.0352 70.3322 32.1199 70.1403C32.8925 68.4266 32.4655 63.8707 32.4948 61.8904Z" fill="#527597"/>
</svg>
