<svg width="24" height="13" viewBox="0 0 24 13" fill="none" xmlns="http://www.w3.org/2000/svg">
<path d="M6.34217 7.16379C4.44172 7.03371 2.538 6.90363 0.637552 6.77356C0.5202 8.45151 0.402852 10.1327 0.2855 11.8107C2.29353 11.8302 4.30155 11.8464 6.30957 11.866C6.31935 10.2986 6.33239 8.73117 6.34217 7.16379Z" fill="#E3E5E3"/>
<path d="M14.6676 7.24169C12.7672 7.11161 10.8635 6.98155 8.96304 6.85147C8.84568 8.52944 8.72834 10.2107 8.61098 11.8886C10.619 11.9081 12.627 11.9244 14.635 11.9439C14.6448 10.3797 14.6546 8.81234 14.6676 7.24169Z" fill="#E3E5E3"/>
<path d="M6.46471 0.396635C4.56426 0.266561 2.66055 0.136483 0.760102 0.00640869C0.64275 1.68437 0.525403 3.36557 0.408051 5.04353C2.41607 5.06304 4.42409 5.0793 6.43211 5.09882C6.44189 3.53142 6.45167 1.96403 6.46471 0.396635Z" fill="#E3E5E3"/>
<path d="M14.7882 0.474632C12.8878 0.34456 10.9841 0.214484 9.0836 0.0844116C8.96625 1.76234 8.8489 3.44354 8.73155 5.12147C10.7396 5.14098 12.7476 5.15723 14.7556 5.17674C14.7654 3.60937 14.7752 2.042 14.7882 0.474632Z" fill="#E3E5E3"/>
<path d="M23.0257 7.44012C21.1252 7.31005 19.2215 7.17997 17.3211 7.0499C17.2037 8.72784 17.0864 10.409 16.969 12.087C18.977 12.1065 20.9851 12.1228 22.9931 12.1423C23.0029 10.5749 23.0126 9.00751 23.0257 7.44012Z" fill="#E3E5E3"/>
<path d="M23.1463 0.669801C21.2459 0.539726 19.3422 0.409647 17.4417 0.279572C17.3243 1.95754 17.207 3.63877 17.0896 5.31673C19.0977 5.33624 21.1057 5.3525 23.1137 5.37201C23.1235 3.80786 23.1366 2.24046 23.1463 0.669801Z" fill="#E3E5E3"/>
</svg>
