<svg width="14" height="12" viewBox="0 0 14 12" fill="none" xmlns="http://www.w3.org/2000/svg">
<path d="M6.08993 7.25645C4.41766 7.14264 2.74866 7.02882 1.07639 6.91501C0.972078 8.39136 0.871021 9.86771 0.766708 11.3441C2.53025 11.3603 4.29378 11.3766 6.06058 11.3928C6.07036 10.0108 6.08015 8.63199 6.08993 7.25645Z" fill="#E3E5E3"/>
<path d="M13.4048 7.32475C11.7326 7.21094 10.0636 7.09712 8.3913 6.98331C8.28699 8.45964 8.18593 9.93596 8.08162 11.4123C9.84516 11.4285 11.6087 11.4448 13.3755 11.4611C13.3853 10.079 13.3951 8.70353 13.4048 7.32475Z" fill="#E3E5E3"/>
<path d="M6.19636 1.30892C4.5241 1.1951 2.85509 1.08128 1.18283 0.967468C1.07852 2.4438 0.977474 3.92012 0.873161 5.39645C2.6367 5.41271 4.40023 5.42898 6.16702 5.44524C6.1768 4.06321 6.18658 2.68444 6.19636 1.30892Z" fill="#E3E5E3"/>
<path d="M13.5124 1.37712C11.8402 1.26331 10.1712 1.14949 8.49891 1.03568C8.39459 2.51201 8.29354 3.98835 8.18922 5.46468C9.95276 5.48094 11.7163 5.4972 13.4831 5.51346C13.4896 4.13143 13.5026 2.7559 13.5124 1.37712Z" fill="#E3E5E3"/>
</svg>
