<svg width="24" height="85" viewBox="0 0 24 85" fill="none" xmlns="http://www.w3.org/2000/svg">
<path d="M20.798 81.5986C21.1827 81.5075 21.5967 81.3872 21.89 80.7791C22.2258 80.0897 22.3203 78.9613 22.3921 77.9143C23.207 65.9215 23.3146 53.7271 23.4221 41.5782C23.5167 30.8243 23.6112 20.0705 23.7057 9.31664C23.7253 6.94279 23.7057 4.29254 23.0147 2.58858C22.3203 0.871603 21.2055 0.761035 20.208 0.764287C13.8808 0.780546 7.55683 0.800058 1.22961 0.816318C1.47409 13.2806 1.71532 25.7449 1.9598 38.206C2.11627 46.1438 2.26622 54.1173 2.02499 62.055C1.87831 66.8677 -0.0188807 78.1029 1.21657 82.1839C2.52374 86.5089 8.09469 83.6863 10.0669 83.4651C13.6493 83.0749 17.2286 82.4506 20.798 81.5986Z" fill="#496987"/>
</svg>
