<svg width="10" height="5" viewBox="0 0 10 5" fill="none" xmlns="http://www.w3.org/2000/svg">
<path d="M4.36933 1.27932C5.8949 1.12648 7.40092 0.583417 8.9265 0.654958C9.19706 0.667965 9.51 0.736254 9.64039 1.06144C9.70884 1.23379 9.7121 1.43866 9.7121 1.63377C9.7121 2.34267 9.70884 3.04833 9.70884 3.75723C9.70884 3.91332 9.70558 4.07591 9.64364 4.20599C9.53607 4.43037 9.30789 4.44337 9.11231 4.43037C7.6943 4.35557 6.27303 4.27753 4.85503 4.20273C3.89339 4.1507 1.51376 4.64498 0.708592 3.9686C-0.151989 3.24669 0.473891 2.17033 1.12911 1.6858C2.08748 0.980148 3.32946 1.38338 4.36933 1.27932Z" fill="#DCE0E2"/>
</svg>
