<svg width="10" height="5" viewBox="0 0 10 5" fill="none" xmlns="http://www.w3.org/2000/svg">
<path d="M8.87098 0.335876C8.95574 0.335876 9.05027 0.339125 9.11547 0.413917C9.18718 0.498465 9.20022 0.641544 9.20674 0.768366C9.26542 1.8122 9.2426 2.86255 9.13829 3.89988C9.12525 4.0267 9.10569 4.16654 9.03397 4.24783C8.96226 4.32588 8.8612 4.31937 8.76667 4.30962C6.10344 3.99744 3.42717 3.91289 0.757424 4.05272C0.587916 4.06247 0.385806 4.04947 0.294532 3.84785C0.248896 3.74379 0.245638 3.61697 0.245638 3.4934C0.242378 2.70971 0.0239718 1.42849 0.529236 0.891937C1.02146 0.371644 2.68068 0.628541 3.287 0.579764C5.14507 0.436683 7.00966 0.335876 8.87098 0.335876Z" fill="#DCE0E2"/>
</svg>
