<svg width="20" height="33" viewBox="0 0 20 33" fill="none" xmlns="http://www.w3.org/2000/svg">
<path d="M18.9109 0.381434C13.0433 -0.129105 7.66138 0.904974 1.79703 0.394434C1.30481 0.35216 0.721308 0.371679 0.447486 0.940751C0.307315 1.23667 0.291017 1.61388 0.284497 1.97158C0.0334939 11.9938 0.131289 22.0322 0.581138 32.0414C6.08691 32.1812 11.5927 32.3178 17.0984 32.4576C18.0568 32.4804 19.0217 32.8641 19.5139 31.5959C19.9801 30.3959 19.6313 27.4368 19.6541 26.0645C19.7128 22.2111 19.7226 18.3576 19.6867 14.5042C19.6802 13.4538 19.0445 0.381434 18.9109 0.381434Z" fill="#425F7A"/>
<path d="M6.09017 6.50137C6.08039 6.78103 6.04453 7.11597 5.86199 7.23954C5.80331 7.27856 5.74138 7.28831 5.67618 7.29807C5.15462 7.37936 4.62979 7.42489 4.10497 7.44115C3.94524 7.4444 3.76921 7.43789 3.65511 7.28506C3.54428 7.13873 3.52798 6.9111 3.5182 6.69973C3.47909 5.98108 3.44323 5.26243 3.40411 4.54703C3.40085 4.49825 3.40085 4.44297 3.42693 4.41045C3.44975 4.38118 3.48887 4.38118 3.52147 4.38768C4.22558 4.48849 5.01445 4.46898 5.70226 4.70311C6.3477 4.91773 6.11951 5.71118 6.09017 6.50137Z" fill="#C7CDD3"/>
<path d="M3.58664 8.65737C3.53449 8.65412 3.48233 8.65412 3.43669 8.68989C3.40083 8.72241 3.37476 8.77444 3.3552 8.82972C3.23784 9.15816 3.23785 9.53863 3.24111 9.90284C3.24437 10.5077 3.24763 11.1093 3.25089 11.7141C3.94848 11.7076 4.69823 11.7239 5.38605 11.5483C5.98585 11.3954 6.038 10.7483 5.93695 9.96463C5.74462 8.40698 4.45375 8.70289 3.58664 8.65737Z" fill="#C7CDD3"/>
<path d="M3.73335 13.0832C3.61274 13.9481 3.58992 14.8391 3.6649 15.7171C3.66816 15.7627 3.67467 15.8147 3.70075 15.8472C3.72683 15.8797 3.76269 15.8862 3.79529 15.8895C4.34619 15.948 4.89383 16.0098 5.44473 16.0683C6.08691 16.1366 6.09343 14.1888 5.80657 13.6067C5.64358 13.275 5.38606 13.158 5.1155 13.0929C4.97859 13.0571 3.75617 12.9433 3.73335 13.0832Z" fill="#C7CDD3"/>
<path d="M3.63545 17.717C3.47572 18.7218 3.47247 19.7754 3.6322 20.7802C3.63872 20.8192 3.64524 20.8615 3.66805 20.8875C3.69413 20.9233 3.73651 20.9233 3.77236 20.9233C4.27437 20.92 4.77312 20.9168 5.27513 20.9135C5.45442 20.9135 5.65327 20.9005 5.78366 20.7282C5.91405 20.5558 5.93361 20.2794 5.94339 20.029C5.96295 19.551 5.98251 19.073 5.9988 18.595C6.02162 17.9966 6.1129 17.8926 5.70868 17.7592C5.07628 17.5544 4.28089 17.6747 3.63545 17.717Z" fill="#C7CDD3"/>
</svg>
