<svg width="10" height="55" viewBox="0 0 10 55" fill="none" xmlns="http://www.w3.org/2000/svg">
<path d="M1.93234 53.576C1.78239 53.5597 1.62591 53.5369 1.51182 53.4296C1.38143 53.3061 1.34558 53.1044 1.3195 52.9158C1.00656 50.7696 1.07502 9.91019 1.0359 7.73796C1.00005 5.81286 0.964179 3.89102 0.925062 1.96593C0.918543 1.53994 0.925065 1.06843 1.19237 0.762756C1.45967 0.453831 1.88996 0.43432 2.27461 0.437572C4.71292 0.440824 7.15123 0.444075 9.58954 0.447327C9.495 2.67809 9.40045 4.90561 9.30918 7.13637C9.25051 8.55743 9.19184 9.98173 9.28312 11.4028C9.33853 12.2645 9.95788 52.9516 9.48196 53.6833C8.97669 54.4572 6.83176 53.9532 6.07223 53.9142C4.68683 53.8394 3.30796 53.7288 1.93234 53.576Z" fill="#CED4D8"/>
</svg>
