<svg width="21" height="66" viewBox="0 0 21 66" fill="none" xmlns="http://www.w3.org/2000/svg">
<path d="M19.2905 65.021C20.0598 63.4374 19.6295 59.2165 19.6556 57.3857C19.7534 50.7584 19.8512 44.1344 19.949 37.5072C20.0011 33.9366 20.7574 11.6615 19.5382 8.61778C18.8048 6.78699 19.7729 2.96282 18.0648 2.27018C13.0741 0.24428 12.6992 0.745058 6.48609 1.35966C5.4723 0.66051 3.12853 0.738552 2.03324 0.758064C0.409872 10.4876 0.977081 22.256 0.879287 32.2457C0.771715 42.8825 0.91514 53.516 1.31283 64.13C1.38129 65.9348 14.0846 65.2324 15.3983 65.2519C16.0894 65.2649 18.4658 65.9153 18.9906 65.447C19.1047 65.3397 19.2057 65.1966 19.2905 65.021Z" fill="#527597"/>
</svg>
