<svg width="33" height="71" viewBox="0 0 33 71" fill="none" xmlns="http://www.w3.org/2000/svg">
<path d="M32.4434 61.5597C32.551 54.4024 32.6553 47.2451 32.7629 40.0911C32.8216 36.2344 33.3888 31.9094 32.1696 28.6218C31.4394 26.6447 30.0345 24.7423 29.0989 22.9701C25.4317 16.0209 21.7677 9.0717 18.1004 2.12251C17.0866 1.37133 15.9816 0.39578 14.8863 0.418543C13.2694 10.8049 13.791 23.331 13.6932 34.0394C10.7887 36.953 7.88427 39.8634 4.97981 42.7771C4.00188 43.7559 2.55454 44.7965 1.77545 45.8988C0.481318 47.7296 0.944203 50.1945 0.911606 52.3798C0.84641 56.4348 0.784475 60.4899 0.71928 64.5449C0.702981 65.6668 0.168378 68.2358 0.898569 69.2243C0.980063 69.3349 1.07785 69.4259 1.19195 69.491C1.70699 69.7902 4.09641 69.4552 4.78749 69.4682C5.66111 69.4812 11.5613 69.8259 15.447 69.7316C18.7687 70.5348 27.1202 70.0406 28.1731 70.0601C28.8642 70.0731 31.2406 70.7722 31.7654 70.2682C31.8828 70.1544 31.9838 70.0015 32.0686 69.8097C32.8411 68.0959 32.4141 63.5401 32.4434 61.5597Z" fill="#527597"/>
</svg>
