<svg width="24" height="13" viewBox="0 0 24 13" fill="none" xmlns="http://www.w3.org/2000/svg">
<path d="M6.2908 7.83313C4.39035 7.70305 2.48663 7.57298 0.586183 7.4429C0.468831 9.12085 0.351483 10.8021 0.234131 12.48C2.24216 12.4995 4.25017 12.5158 6.2582 12.5353C6.26798 10.9679 6.28102 9.40052 6.2908 7.83313Z" fill="#E3E5E3"/>
<path d="M14.6163 7.91109C12.7158 7.78102 10.8121 7.65095 8.91165 7.52087C8.7943 9.19883 8.67695 10.88 8.5596 12.558C10.5676 12.5775 12.5756 12.5938 14.5837 12.6133C14.5934 11.0491 14.6032 9.48173 14.6163 7.91109Z" fill="#E3E5E3"/>
<path d="M6.41336 1.06598C4.51291 0.935904 2.60919 0.805825 0.708741 0.675751C0.591389 2.35371 0.474042 4.03492 0.356689 5.71289C2.36471 5.7324 4.37273 5.74866 6.38076 5.76817C6.39054 4.20077 6.40032 2.63338 6.41336 1.06598Z" fill="#E3E5E3"/>
<path d="M14.7369 1.14401C12.8364 1.01393 10.9327 0.883857 9.03224 0.753784C8.91489 2.43172 8.79754 4.11292 8.68019 5.79085C10.6882 5.81037 12.6962 5.82662 14.7043 5.84613C14.714 4.27875 14.7238 2.71138 14.7369 1.14401Z" fill="#E3E5E3"/>
<path d="M22.9743 8.10949C21.0739 7.97942 19.1702 7.84934 17.2697 7.71927C17.1524 9.39722 17.035 11.0784 16.9177 12.7564C18.9257 12.7759 20.9337 12.7921 22.9417 12.8117C22.9515 11.2443 22.9613 9.67688 22.9743 8.10949Z" fill="#E3E5E3"/>
<path d="M23.095 1.33917C21.1945 1.2091 19.2908 1.07902 17.3903 0.948944C17.273 2.62691 17.1556 4.30813 17.0383 5.98609C19.0463 6.0056 21.0543 6.02186 23.0624 6.04137C23.0722 4.47722 23.0852 2.90982 23.095 1.33917Z" fill="#E3E5E3"/>
</svg>
