<svg width="14" height="12" viewBox="0 0 14 12" fill="none" xmlns="http://www.w3.org/2000/svg">
<path d="M6.03856 6.92582C4.36629 6.81201 2.69728 6.6982 1.02501 6.58438C0.920702 8.06073 0.819645 9.53707 0.715332 11.0134C2.47887 11.0297 4.24241 11.0459 6.00921 11.0622C6.01899 9.68015 6.02878 8.30136 6.03856 6.92582Z" fill="#E3E5E3"/>
<path d="M13.3535 6.99413C11.6812 6.88031 10.0122 6.76649 8.33993 6.65268C8.23562 8.12902 8.13456 9.60535 8.03025 11.0817C9.79379 11.098 11.5573 11.1142 13.3241 11.1305C13.3339 9.74844 13.3437 8.37291 13.3535 6.99413Z" fill="#E3E5E3"/>
<path d="M6.14497 0.978258C4.47271 0.864444 2.80372 0.750624 1.13146 0.63681C1.02715 2.11314 0.926105 3.58946 0.821793 5.06579C2.58532 5.08205 4.34885 5.09832 6.11563 5.11458C6.12541 3.73255 6.13519 2.35378 6.14497 0.978258Z" fill="#E3E5E3"/>
<path d="M13.4611 1.04653C11.7888 0.932713 10.1198 0.818892 8.44753 0.705078C8.34322 2.18141 8.24216 3.65775 8.13785 5.13409C9.90138 5.15034 11.6649 5.1666 13.4317 5.18286C13.4382 3.80083 13.4513 2.4253 13.4611 1.04653Z" fill="#E3E5E3"/>
</svg>
