<svg width="24" height="85" viewBox="0 0 24 85" fill="none" xmlns="http://www.w3.org/2000/svg">
<path d="M20.7466 81.268C21.1313 81.1769 21.5453 81.0566 21.8387 80.4485C22.1744 79.7591 22.269 78.6307 22.3407 77.5836C23.1556 65.5908 23.2632 53.3964 23.3708 41.2475C23.4653 30.4937 23.5598 19.7398 23.6544 8.98598C23.6739 6.61214 23.6544 3.96188 22.9633 2.25792C22.269 0.540945 21.1541 0.430377 20.1566 0.433629C13.8294 0.449888 7.50545 0.469401 1.17823 0.48566C1.42272 12.95 1.66394 25.4143 1.90842 37.8754C2.06489 45.8131 2.21484 53.7866 1.97362 61.7244C1.82693 66.5371 -0.0702572 77.7722 1.1652 81.8533C2.47237 86.1782 8.04332 83.3556 10.0155 83.1345C13.598 82.7443 17.1772 82.1199 20.7466 81.268Z" fill="#496987"/>
</svg>
