<svg width="10" height="5" viewBox="0 0 10 5" fill="none" xmlns="http://www.w3.org/2000/svg">
<path d="M4.31794 0.948691C5.84352 0.795854 7.34954 0.25279 8.87512 0.32433C9.14568 0.337338 9.45862 0.405627 9.58901 0.730812C9.65746 0.903161 9.66072 1.10803 9.66072 1.30314C9.66072 2.01205 9.65746 2.7177 9.65746 3.4266C9.65746 3.58269 9.6542 3.74529 9.59226 3.87536C9.48469 4.09974 9.25651 4.11275 9.06093 4.09974C7.64292 4.02495 6.22165 3.9469 4.80365 3.87211C3.84201 3.82008 1.46237 4.31436 0.657208 3.63797C-0.203373 2.91606 0.422507 1.8397 1.07772 1.35517C2.0361 0.64952 3.27807 1.05275 4.31794 0.948691Z" fill="#DCE0E2"/>
</svg>
