<svg width="10" height="4" viewBox="0 0 10 4" fill="none" xmlns="http://www.w3.org/2000/svg">
<path d="M8.8196 0.00524902C8.90436 0.00524902 8.99889 0.00849768 9.06409 0.0832898C9.1358 0.167838 9.14884 0.310917 9.15536 0.437738C9.21404 1.48158 9.19122 2.53192 9.08691 3.56926C9.07387 3.69608 9.05431 3.83591 8.98259 3.9172C8.91088 3.99525 8.80982 3.98875 8.71529 3.97899C6.05206 3.66681 3.3758 3.58226 0.706047 3.72209C0.536539 3.73185 0.334429 3.71884 0.243156 3.51723C0.197519 3.41317 0.194261 3.28635 0.194261 3.16278C0.191002 2.37908 -0.0274044 1.09786 0.47786 0.56131C0.970085 0.0410164 2.6293 0.297914 3.23562 0.249137C5.09369 0.106056 6.95828 0.00524902 8.8196 0.00524902Z" fill="#DCE0E2"/>
</svg>
