<svg width="20" height="34" viewBox="0 0 20 34" fill="none" xmlns="http://www.w3.org/2000/svg">
<path d="M18.8595 1.05084C12.9919 0.540298 7.61 1.57438 1.74565 1.06384C1.25342 1.02156 0.669924 1.04108 0.396102 1.61015C0.255932 1.90607 0.239633 2.28328 0.233113 2.64098C-0.0178901 12.6632 0.0799046 22.7016 0.529754 32.7108C6.03553 32.8506 11.5413 32.9872 17.0471 33.127C18.0054 33.1497 18.9703 33.5335 19.4626 32.2653C19.9287 31.0653 19.5799 28.1061 19.6027 26.7339C19.6614 22.8804 19.6712 19.027 19.6353 15.1736C19.6288 14.1232 18.9932 1.05084 18.8595 1.05084Z" fill="#425F7A"/>
<path d="M6.0388 7.17078C6.02902 7.45044 5.99316 7.78539 5.81062 7.90896C5.75194 7.94798 5.69001 7.95773 5.62481 7.96749C5.10324 8.04878 4.57842 8.09431 4.05359 8.11057C3.89386 8.11382 3.71783 8.10731 3.60374 7.95448C3.49291 7.80814 3.47661 7.58052 3.46683 7.36915C3.42771 6.65049 3.39186 5.93184 3.35274 5.21643C3.34948 5.16766 3.34948 5.11237 3.37555 5.07985C3.39837 5.05059 3.43749 5.05058 3.47009 5.05709C4.1742 5.15789 4.96307 5.13838 5.65089 5.37252C6.29633 5.58714 6.06814 6.38059 6.0388 7.17078Z" fill="#C7CDD3"/>
<path d="M3.53527 9.32677C3.48312 9.32352 3.43096 9.32352 3.38532 9.35929C3.34946 9.39181 3.32339 9.44384 3.30383 9.49912C3.18648 9.82756 3.18648 10.208 3.18974 10.5722C3.193 11.1771 3.19626 11.7787 3.19952 12.3835C3.89711 12.377 4.64686 12.3933 5.33468 12.2177C5.93448 12.0648 5.98663 11.4177 5.88558 10.634C5.69325 9.07638 4.40238 9.3723 3.53527 9.32677Z" fill="#C7CDD3"/>
<path d="M3.68197 13.7525C3.56136 14.6175 3.53854 15.5085 3.61352 16.3865C3.61678 16.432 3.62329 16.4841 3.64937 16.5166C3.67545 16.5491 3.71131 16.5556 3.74391 16.5588C4.29481 16.6174 4.84245 16.6792 5.39336 16.7377C6.03553 16.806 6.04205 14.8582 5.75519 14.2761C5.5922 13.9444 5.33468 13.8273 5.06412 13.7623C4.92721 13.7265 3.70479 13.6127 3.68197 13.7525Z" fill="#C7CDD3"/>
<path d="M3.58407 18.3864C3.42434 19.3912 3.42108 20.4448 3.58081 21.4496C3.58733 21.4886 3.59385 21.5309 3.61667 21.5569C3.64275 21.5927 3.68512 21.5927 3.72098 21.5927C4.22299 21.5894 4.72174 21.5862 5.22374 21.5829C5.40303 21.5829 5.60188 21.5699 5.73228 21.3976C5.86267 21.2252 5.88222 20.9488 5.892 20.6984C5.91156 20.2204 5.93112 19.7424 5.94742 19.2644C5.97024 18.666 6.06151 18.562 5.6573 18.4286C5.0249 18.2238 4.22951 18.3441 3.58407 18.3864Z" fill="#C7CDD3"/>
</svg>
