<svg width="190" height="101" viewBox="0 0 190 101" fill="none" xmlns="http://www.w3.org/2000/svg">
<path d="M45.1965 10.1192C75.043 -3.42143 111.207 -3.63932 140.128 11.7679C169.048 27.1752 189.354 58.614 189.086 91.3211C189.077 92.5307 189.024 93.799 188.428 94.8493C187.163 97.0801 184.138 97.415 181.573 97.4898C159.282 98.1402 136.992 98.7873 114.698 99.4377C99.0545 99.8929 83.4043 100.348 67.7541 100.423C55.4615 100.482 43.0972 100.296 31.0132 98.0686C21.9771 96.4037 12.6411 93.2689 6.77024 86.2189C1.51873 79.9071 -0.186123 71.1726 0.847226 63.0333C3.85926 39.3046 24.3665 19.5691 45.1965 10.1192Z" fill="#708F3B"/>
</svg>
