<svg width="28" height="57" viewBox="0 0 28 57" fill="none" xmlns="http://www.w3.org/2000/svg">
<path d="M0.588272 24.617C-0.0278255 29.55 1.30868 34.3628 6.35482 36.4667C14.8694 40.0145 27.5629 37.8097 27.6998 25.9632C27.7585 20.8709 24.9486 16.3118 22.243 12.1039C20.5674 9.49591 17.487 2.02967 14.7618 0.79072C11.9714 -0.477499 9.2169 3.26213 7.99775 5.37908C5.09654 10.4162 2.8147 15.8468 1.23045 21.4887C0.937069 22.5195 0.718663 23.5699 0.588272 24.617Z" fill="#14AF87"/>
<path d="M6.01587 23.4723C6.5081 23.0821 7.22199 23.1667 7.60991 23.6577C8.9236 25.3129 10.5372 26.8348 12.1019 28.3046C12.1866 28.3859 12.2681 28.4672 12.3529 28.5452C12.3757 27.9469 12.4018 27.355 12.4409 26.7697C12.5354 25.2413 12.4637 23.713 12.3887 22.0936C12.3398 21.0302 12.2877 19.9669 12.2877 18.9002C12.2844 17.4174 12.317 15.9346 12.3496 14.455C12.3822 13.0274 12.4116 11.5999 12.4116 10.1723C12.4116 9.54794 12.9201 9.04065 13.546 9.04065C14.1751 9.04065 14.6804 9.54794 14.6804 10.1723C14.6804 11.6161 14.6478 13.0599 14.6184 14.5038C14.5858 15.9703 14.5532 17.4337 14.5565 18.9002C14.5565 19.6189 14.5826 20.3376 14.6152 21.0562C14.8629 20.8253 15.1139 20.5945 15.3617 20.3701C16.721 19.1311 18.0053 17.9637 18.9963 16.4711C19.3418 15.9508 20.046 15.8045 20.5708 16.1524C21.0923 16.4971 21.2358 17.1995 20.8902 17.7231C19.7428 19.4466 18.2955 20.7668 16.8938 22.0415C16.2548 22.6236 15.6159 23.2024 15.0031 23.83C14.9248 23.9113 14.8303 23.9569 14.7358 24.0089C14.7619 24.9714 14.7684 25.9437 14.7064 26.9128C14.6249 28.2265 14.576 29.5728 14.5565 30.9646C14.5891 31.1272 14.5891 31.2865 14.55 31.4459C14.5369 32.8767 14.5532 34.353 14.6054 35.9041C14.6901 38.4796 14.6869 40.9315 14.6836 43.5265L14.6804 55.1258C14.6804 55.7534 14.1718 56.2574 13.546 56.2574C12.9168 56.2574 12.4116 55.7501 12.4116 55.1258L12.4148 43.5232C12.4181 40.9478 12.4213 38.5154 12.3398 35.9789C12.2909 34.4668 12.2746 33.023 12.2844 31.6215C11.7107 31.0621 11.1337 30.5061 10.547 29.9533C8.92686 28.4281 7.25133 26.851 5.83333 25.0657C5.44215 24.5715 5.52365 23.8593 6.01587 23.4723Z" fill="#736357"/>
</svg>
