<svg width="4" height="3" viewBox="0 0 4 3" fill="none" xmlns="http://www.w3.org/2000/svg">
<path d="M3.03745 2.00528C3.02767 2.21015 2.99508 2.45403 2.82231 2.54183C2.76689 2.5711 2.7082 2.57761 2.64953 2.58411C2.15729 2.64264 1.6618 2.67842 1.16957 2.68817C1.01961 2.69142 0.853367 2.68492 0.745792 2.57436C0.641477 2.46704 0.62517 2.3012 0.61539 2.14836C0.579532 1.62481 0.543688 1.10126 0.50783 0.580959C0.50457 0.545188 0.504569 0.50617 0.527388 0.483407C0.550207 0.460644 0.586052 0.46389 0.61539 0.467141C1.2804 0.541934 2.02038 0.525679 2.66909 0.694776C3.27868 0.850866 3.06353 1.42645 3.03745 2.00528Z" fill="#C7CDD3"/>
</svg>
