<svg width="18" height="38" viewBox="0 0 18 38" fill="none" xmlns="http://www.w3.org/2000/svg">
<path d="M17.7076 15.8489C18.0922 18.9252 17.2577 21.9299 14.1121 23.2404C8.80188 25.4549 0.880629 24.0793 0.795875 16.6879C0.760017 13.5108 2.51378 10.6687 4.19908 8.04124C5.24547 6.41532 7.16548 1.75543 8.86708 0.98474C10.6078 0.194542 12.3257 2.52611 13.0852 3.84636C14.8944 6.98764 16.3189 10.3761 17.3066 13.8946C17.4892 14.5417 17.6261 15.1953 17.7076 15.8489Z" fill="#00A07B"/>
<path d="M14.3207 15.1367C14.0142 14.8928 13.5677 14.9481 13.3264 15.2538C12.5082 16.2878 11.501 17.2341 10.5263 18.1512C10.4741 18.1999 10.422 18.252 10.3698 18.3007C10.3535 17.9268 10.3372 17.5561 10.3144 17.1919C10.2557 16.2391 10.3014 15.283 10.347 14.275C10.3796 13.6116 10.4089 12.9482 10.4089 12.2816C10.4089 11.3581 10.3894 10.4313 10.3698 9.50776C10.3503 8.61675 10.3307 7.72575 10.3307 6.83474C10.3307 6.44452 10.0145 6.12909 9.62334 6.12909C9.23217 6.12909 8.91597 6.44452 8.91597 6.83474C8.91597 7.7355 8.93552 8.63626 8.95508 9.53703C8.97464 10.4508 8.9942 11.3646 8.9942 12.2783C8.9942 12.7271 8.9779 13.1758 8.95834 13.6246C8.80187 13.4815 8.64867 13.3384 8.4922 13.1953C7.64466 12.4247 6.84275 11.693 6.2234 10.763C6.00825 10.4378 5.56818 10.3467 5.2422 10.5646C4.91623 10.7792 4.82821 11.2182 5.04336 11.5434C5.75725 12.6198 6.6602 13.4425 7.53382 14.2359C7.93151 14.5969 8.32921 14.9611 8.71386 15.3513C8.76276 15.4001 8.82143 15.4326 8.88011 15.4651C8.86381 16.0667 8.86055 16.6716 8.89641 17.2764C8.94856 18.0959 8.9779 18.9348 8.99094 19.8031C8.97138 19.9039 8.97138 20.0047 8.9942 20.1023C9.00398 20.9933 8.99094 21.9168 8.9616 22.8826C8.90945 24.489 8.90945 26.0174 8.91271 27.6368L8.91597 36.8428C8.91597 37.233 9.23217 37.5484 9.62334 37.5484C10.0145 37.5484 10.3307 37.233 10.3307 36.8428L10.3274 27.6335C10.3242 26.0271 10.3242 24.5085 10.3763 22.9281C10.4089 21.9851 10.4187 21.0843 10.4122 20.2096C10.7675 19.8616 11.1294 19.5137 11.4977 19.169C12.5082 18.2162 13.5546 17.2341 14.438 16.1188C14.6792 15.8228 14.6271 15.3773 14.3207 15.1367Z" fill="#736357"/>
</svg>
