<svg width="28" height="18" viewBox="0 0 28 18" fill="none" xmlns="http://www.w3.org/2000/svg">
<path d="M19.4826 17.937C18.785 17.9142 18.0776 17.8687 17.3963 17.8264C16.8128 17.7906 16.2326 17.7516 15.6556 17.7288C14.606 17.6866 13.5433 17.5923 12.5164 17.5045C12.0177 17.4622 11.519 17.4199 11.0235 17.3809C10.5997 17.3484 10.1857 17.3289 9.78149 17.3094C8.61449 17.2508 7.51596 17.1955 6.34896 16.8899C6.14034 16.8346 5.47534 16.75 4.93747 16.685C4.62128 16.646 4.33441 16.6102 4.15838 16.5809C3.90412 16.646 3.65313 16.6752 3.4119 16.6687C2.72735 16.646 2.10799 16.337 1.57339 15.7517C0.611752 14.6981 0.106491 12.8836 0.171686 11.7389C0.243401 10.5 2.0102 8.81228 3.24565 8.14891C4.14861 7.66438 5.69049 7.55382 6.36852 7.5278C6.21531 6.22381 6.72709 4.81251 7.83215 3.52153C9.61851 1.43709 12.5653 0.178631 14.9059 0.523326C17.0475 0.838755 18.9903 2.28258 20.1052 4.38652C20.956 5.98968 21.194 7.70665 20.793 9.13096C21.1027 9.0269 21.4939 8.98462 21.9633 8.99763C22.7652 9.02365 23.6258 9.22201 24.0267 9.39111C25.725 10.1163 26.5302 11.0561 27.4201 12.5421C28.0982 13.6673 27.2506 15.7127 26.3803 16.7565C25.6729 17.6053 24.5809 17.6768 23.5247 17.7451C23.215 17.7646 22.8988 17.7874 22.5957 17.8264C21.6894 17.9402 20.7017 17.976 19.4826 17.937Z" fill="#F1F5F1"/>
</svg>
