<svg width="20" height="13" viewBox="0 0 20 13" fill="none" xmlns="http://www.w3.org/2000/svg">
<path d="M14.1353 12.8783C13.6431 12.8816 13.1411 12.8686 12.6553 12.8555C12.2414 12.8458 11.8306 12.836 11.4199 12.8328C10.6767 12.8295 9.92364 12.7938 9.19345 12.7612C8.83814 12.745 8.48608 12.7287 8.13403 12.7157C7.83413 12.706 7.54075 12.7027 7.25389 12.6995C6.42917 12.6897 5.64682 12.6799 4.81558 12.4978C4.66563 12.4653 4.19296 12.4231 3.81157 12.3905C3.58664 12.371 3.38127 12.3548 3.2574 12.3385C3.08137 12.3905 2.90209 12.4198 2.73258 12.4198C2.24688 12.423 1.80028 12.2214 1.40585 11.8215C0.69522 11.1028 0.287746 9.83459 0.304045 9.02163C0.320344 8.14363 1.52321 6.90143 2.37727 6.3974C3.00315 6.02994 4.0919 5.90962 4.56783 5.87385C4.42114 4.95358 4.74713 3.94225 5.49361 2.99922C6.69973 1.47736 8.74687 0.505061 10.4126 0.683912C11.9349 0.846504 13.3497 1.81555 14.1972 3.27238C14.8427 4.38451 15.0578 5.59094 14.8133 6.60876C15.0285 6.52747 15.3055 6.48519 15.638 6.48194C16.2085 6.47869 16.8213 6.5925 17.1082 6.70306C18.3274 7.16808 18.9239 7.81195 19.5954 8.83628C20.1039 9.61346 19.5628 11.0833 18.976 11.8442C18.5001 12.4621 17.7276 12.5434 16.9811 12.6214C16.7627 12.6442 16.5377 12.6669 16.3258 12.706C15.6967 12.8165 14.9991 12.8718 14.1353 12.8783Z" fill="#F1F5F1"/>
</svg>
