<svg width="27" height="17" viewBox="0 0 27 17" fill="none" xmlns="http://www.w3.org/2000/svg">
<path d="M19.3958 16.3228C18.7373 16.3228 18.0691 16.3033 17.4236 16.2806C16.8727 16.2643 16.3218 16.2481 15.7774 16.2416C14.7865 16.2318 13.7792 16.1798 12.8078 16.1277C12.3351 16.1017 11.8657 16.0757 11.3963 16.0562C10.9953 16.0399 10.6042 16.0334 10.2228 16.0269C9.12097 16.0074 8.08109 15.9879 6.96951 15.7375C6.77066 15.692 6.13827 15.6335 5.633 15.5879C5.3331 15.5619 5.05928 15.5359 4.89303 15.5131C4.65506 15.5814 4.42037 15.6172 4.19219 15.6172C3.54349 15.6172 2.9502 15.344 2.42864 14.8075C1.48656 13.8449 0.955216 12.1475 0.981294 11.0646C1.01063 9.89396 2.62748 8.24527 3.7684 7.58189C4.60616 7.09737 6.05678 6.94453 6.6957 6.89901C6.50989 5.67306 6.94995 4.32355 7.95396 3.07159C9.57407 1.04894 12.3156 -0.229033 14.5387 0.0246105C16.5696 0.255491 18.4472 1.55948 19.5653 3.51059C20.4161 4.99993 20.6964 6.60959 20.3607 7.96561C20.6475 7.8583 21.0192 7.80627 21.4592 7.80627C22.2188 7.80627 23.037 7.96561 23.4184 8.11519C25.0417 8.74605 25.8306 9.61104 26.7172 10.9833C27.392 12.0239 26.6553 13.9815 25.8665 14.9928C25.2243 15.8156 24.1974 15.9164 23.2 16.0139C22.9098 16.0432 22.6099 16.0725 22.3263 16.118C21.4788 16.2578 20.5497 16.3228 19.3958 16.3228Z" fill="#F1F5F1"/>
</svg>
