<svg width="45" height="39" viewBox="0 0 45 39" fill="none" xmlns="http://www.w3.org/2000/svg">
<path d="M41.1979 14.3637C40.2852 13.3296 38.8118 13.2126 37.3514 13.2126C35.0435 13.2093 32.7355 13.2256 30.4276 13.2321C26.141 13.2451 21.8544 13.2939 17.5678 13.3296C15.4782 13.3459 13.392 13.3589 11.3024 13.3719C9.78664 13.3817 7.8536 13.1378 6.44863 13.7231C4.7894 14.4125 4.91326 15.9051 4.89045 17.1993C4.85785 19.1114 4.85785 21.0235 4.89045 22.9356C4.9426 26.2362 5.2262 29.5238 5.33051 32.8147C5.3957 34.8731 4.67203 36.2486 7.28638 37.3087C9.61713 38.255 12.5835 37.8518 15.1164 37.8355C22.4933 37.7868 30.4243 38.0436 37.7295 37.1591C43.4667 36.4632 41.6641 26.763 41.7716 23.212C41.8238 21.482 41.876 19.7488 41.9281 18.0188C41.9575 16.7961 42.1302 15.4141 41.1979 14.3637Z" fill="#F0F0F0"/>
<path d="M20.808 21.6219C18.4903 21.6739 15.7325 22.0381 13.4115 22.0901C13.1377 27.1857 14.1776 32.3594 14.1091 37.0746C16.6811 36.899 19.2628 36.8437 21.838 36.9055C21.6555 32.1545 21.7533 27.7613 21.2708 21.9275C21.2643 21.843 21.2382 21.7519 21.1665 21.6902C21.0785 21.6219 20.9351 21.6186 20.808 21.6219Z" fill="#97A8B2"/>
<path d="M34.3457 24.2038C34.3359 23.3973 34.3229 22.5941 34.3392 21.882L31.2717 21.9828C31.4021 22.7307 31.4543 23.4819 31.4771 24.2395C32.4322 24.2395 33.3873 24.233 34.3457 24.2038Z" fill="#97A8B2"/>
<path d="M31.4903 24.9484C31.4969 25.6834 31.4838 26.4215 31.4871 27.1597C32.4324 27.0947 33.3875 27.0134 34.3557 26.8996C34.3687 26.2882 34.3622 25.6086 34.3524 24.9224C33.3973 24.9484 32.4455 24.9517 31.4903 24.9484Z" fill="#97A8B2"/>
<path d="M29.7039 24.2225C30.0527 24.2258 30.4048 24.229 30.7536 24.2323C30.7275 23.4844 30.6753 22.7397 30.5384 22.0048L28.325 22.0763C27.9893 22.0861 27.6503 22.0958 27.3145 22.0991C27.396 22.8372 27.4547 23.5786 27.5101 24.3201C28.2468 24.268 28.9803 24.216 29.7039 24.2225Z" fill="#97A8B2"/>
<path d="M29.0422 24.9388C28.5467 24.9388 28.0545 24.9648 27.5622 24.9941C27.6144 25.768 27.66 26.5419 27.6959 27.3159C28.7162 27.2963 29.7398 27.2606 30.7699 27.2021C30.7699 26.4509 30.7829 25.6965 30.7764 24.942C30.1961 24.9453 29.6192 24.9388 29.0422 24.9388Z" fill="#97A8B2"/>
<path d="M10.0083 36.3527C8.59679 36.3235 7.18529 36.2877 5.77707 36.2487C3.58324 36.1869 3.99399 36.8307 4.24825 38.4339C4.28737 38.681 12.6454 38.7103 13.493 38.7233C16.7332 38.7851 19.9767 38.8013 23.2201 38.7753C29.1986 38.7265 35.0043 38.0859 40.9599 38.138C41.263 37.3836 41.3967 36.5804 41.3576 35.7869C39.3332 35.8097 37.3122 35.8325 35.2879 35.8585C33.7069 35.878 32.1194 35.8942 30.5481 36.0406C29.3225 36.1544 28.1098 36.343 26.8841 36.4373C25.5867 36.5381 24.2828 36.5348 22.9789 36.5283C19.1552 36.5056 15.3315 36.4568 11.5078 36.382C11.009 36.3722 10.507 36.3625 10.0083 36.3527Z" fill="#5E625E"/>
<path opacity="0.12" d="M10.1811 13.7947C11.8534 13.3719 14.0374 13.7654 15.3935 13.8077C18.3045 13.8987 21.2122 13.9898 24.1232 14.0841C27.1939 14.1816 30.2679 14.2792 33.3386 14.3735C35.0109 14.4255 37.0385 14.1979 38.6553 14.5849C37.2504 17.3099 32.6606 18.2692 30.0299 19.3196C26.4507 20.7536 22.8714 22.1844 19.289 23.6185C16.7039 24.6526 14.1222 25.6867 11.5372 26.7208C10.6994 27.0557 9.53894 27.5565 8.67184 27.7158C8.00685 27.8361 8.13073 27.6053 8.11117 26.8671C8.09487 26.207 8.08836 25.5436 8.07858 24.8835C8.03294 22.1844 7.99055 19.4854 7.94492 16.7864C7.9384 16.3279 7.93188 15.8531 8.11117 15.4271C8.49582 14.5068 9.26186 14.0288 10.1811 13.7947Z" fill="#272525"/>
<path d="M1.3276 15.0694C3.3617 15.1344 5.39905 15.1962 7.43315 15.2612C14.5395 15.4824 21.6458 15.7067 28.7553 15.9279C33.645 16.0807 38.4956 16.045 43.3624 16.3311C43.5873 16.3441 43.8188 16.3571 44.0339 16.2823C45.6703 15.71 43.3852 13.6841 42.8311 13.2191C41.9998 12.5232 41.1458 11.8533 40.2689 11.2127C38.8509 10.1754 37.3807 9.21607 35.9105 8.25677C33.5113 6.68938 31.1122 5.12198 28.7097 3.55459C27.4808 2.75139 26.2551 1.95144 25.0262 1.14823C24.0515 0.510868 23.3409 -0.123237 22.2879 0.758014C21.711 1.24254 21.0199 1.57423 20.3419 1.90592C16.4856 3.79524 12.7401 5.90243 9.12498 8.2145C7.31906 9.37215 5.54248 10.5786 3.80502 11.8371C2.9803 12.4354 2.0317 13.0045 1.29499 13.7069C0.965756 14.0256 0.320333 15.0369 1.3276 15.0694Z" fill="#97A8B2"/>
<path d="M20.4756 28.2426L20.3941 28.1483C20.0942 28.0215 19.703 28.1678 19.5759 28.467C19.4488 28.7662 19.6248 29.1597 19.9377 29.2507C20.2506 29.3418 20.619 29.0914 20.6385 28.7694C20.6483 28.5841 20.5636 28.4085 20.4756 28.2426Z" fill="#5E625E"/>
</svg>
