<svg width="20" height="16" viewBox="0 0 20 16" fill="none" xmlns="http://www.w3.org/2000/svg">
<path d="M13.2544 14.0617C13.1273 14.0422 11.6343 13.9576 10.6042 13.9576C10.6629 13.408 10.627 8.5335 10.5357 8.47822C10.451 8.42944 9.87402 8.43919 9.85446 8.47822C9.75992 8.65382 9.7371 13.4048 9.79252 13.9641C8.79177 13.9706 7.39334 14.1169 7.26294 14.1365C7.07388 14.1625 6.60447 13.8698 6.30783 14.5299C6.06335 15.073 6.58491 14.995 7.10974 15.021C7.48461 15.0405 12.886 15.021 13.4435 14.9819C14.0009 14.9397 14.4866 14.9559 14.2519 14.4942C13.8118 13.6357 13.5217 14.1039 13.2544 14.0617Z" fill="#898989"/>
<path d="M4.03576 0.33884C3.19474 0.546957 -0.671353 8.59525 0.890076 8.90092C2.92743 9.29765 18.6819 9.18709 19.3827 8.9302C20.0836 8.6733 16.9118 0.533942 15.6699 0.299809C14.4246 0.0689289 5.20602 0.0494262 4.03576 0.33884Z" fill="#ACCDDB"/>
<path d="M4.3128 0.637984C3.51089 0.833095 -0.175903 8.32212 1.31381 8.60503C3.25664 8.97249 18.2777 8.87167 18.9459 8.63103C19.6142 8.39365 16.5924 0.816838 15.4058 0.598963C14.2192 0.384341 5.42764 0.36808 4.3128 0.637984Z" fill="#BBDFEF"/>
<path d="M18.5612 6.40676C18.3591 6.34497 17.4464 6.36774 15.4156 6.38075C15.2493 5.83444 15.0309 5.13855 14.8484 4.50445C16.3316 4.51745 17.2932 4.5142 17.5801 4.53046C17.5866 4.53046 17.805 4.56948 17.8409 4.55648C17.8604 4.54997 17.8408 4.55648 17.8148 4.47518C17.7854 4.38738 17.7789 4.3256 17.7463 4.32234C17.4431 4.30608 16.3413 4.28657 14.7962 4.27031C14.63 3.69474 14.467 3.01185 14.3072 2.43628C15.722 2.43303 16.7195 2.394 16.8792 2.394C16.902 2.394 16.8401 2.42327 16.8075 2.33873C16.7749 2.24768 16.739 2.18264 16.7064 2.18589C16.563 2.19239 15.6079 2.20865 14.2127 2.21516C14.04 1.59081 13.8933 1.04125 13.7401 0.501447C13.7303 0.462425 13.6553 0.478682 13.5119 0.478682C13.3978 0.478682 13.4369 0.442906 13.4467 0.472172C13.4499 0.485179 13.652 1.21684 13.9259 2.20215C13.225 2.20215 12.3058 2.21841 11.5006 2.21841C11.4158 1.16807 11.3702 0.459173 11.3669 0.439662C11.3637 0.420151 11.2659 0.4234 11.1551 0.426652C11.041 0.429903 11.0736 0.423403 11.0736 0.439662C11.0736 0.459173 11.1225 1.17457 11.2072 2.21841C10.4998 2.21841 9.66208 2.21516 8.96449 2.21516C9.06554 1.18433 9.13399 0.449417 9.13399 0.439662C9.13399 0.423403 9.02968 0.436404 8.91233 0.433152C8.76238 0.4299 8.83083 0.423403 8.83083 0.439662C8.7689 0.98922 8.72651 1.5713 8.66132 2.20866C7.84312 2.2054 6.94668 2.20866 6.25887 2.20866C6.55877 1.2266 6.77717 0.488434 6.78043 0.475427C6.78369 0.455916 6.67286 0.478679 6.56855 0.475427C6.45446 0.472175 6.45771 0.475433 6.45119 0.501447C6.30124 1.04125 6.12196 1.59731 5.93289 2.21841C5.83836 2.21841 5.74709 2.21841 5.65582 2.21841C4.22152 2.21516 3.2664 2.2054 3.13275 2.1989C3.07081 2.19565 3.07733 2.25093 3.03169 2.33873C2.94368 2.50782 3.03495 2.40051 3.03821 2.40051C3.16534 2.39726 4.11394 2.43628 5.49283 2.43953C5.5515 2.43953 5.85466 2.40376 5.91333 2.40376C5.74056 2.96307 5.49934 3.65897 5.32331 4.21828C3.65105 4.20853 2.25261 4.18251 2.13199 4.18902C2.09288 4.19227 2.07984 4.2378 2.04725 4.3321C2.01791 4.41665 2.00812 4.41014 2.03094 4.41339C2.15481 4.42965 3.40983 4.42965 5.25486 4.4394C5.04298 5.11253 4.78219 5.8507 4.58987 6.42628C3.41961 6.41652 2.25587 6.39375 1.27468 6.36774C1.2649 6.36774 1.2486 6.40351 1.21274 6.52383C1.18667 6.60838 1.1997 6.59537 1.216 6.59862C2.17763 6.6474 3.37071 6.63764 4.51163 6.6474C4.1661 7.67823 3.79122 8.62451 3.68365 8.76109C3.68039 8.76759 3.79774 8.78385 3.8662 8.78385C3.90531 8.78385 4.04875 8.80661 4.06505 8.77734C4.11068 8.69279 4.1498 8.72207 4.83435 6.67016C5.4863 6.67342 6.14478 6.68316 6.81955 6.68316C7.22702 6.68316 7.74532 6.68316 8.15279 6.68316C8.01914 7.74326 7.8529 8.6928 7.77141 8.84564C7.76489 8.85864 7.8203 8.85213 7.88224 8.85213C7.92788 8.85213 8.09086 8.86189 8.1039 8.84238C8.15606 8.76109 8.21147 8.7871 8.47877 6.69943C9.53494 6.69618 10.6856 6.69292 11.6734 6.68642C11.7809 7.49287 11.895 8.26681 12.0189 8.84889C12.0222 8.87165 12.0613 8.84889 12.1199 8.84889C12.234 8.84889 12.3253 8.85539 12.322 8.83913C12.208 8.27006 12.0841 7.47336 11.9765 6.68642C12.4231 6.68317 12.8567 6.67991 13.2706 6.67341C13.8965 6.6669 14.6463 6.6539 15.2265 6.6474C15.8719 8.75458 15.885 8.70255 15.9469 8.77734C15.9632 8.79685 16.0349 8.79685 16.1066 8.7936C16.211 8.79034 16.2631 8.78059 16.2566 8.77409C16.1523 8.63426 15.8491 7.71399 15.5231 6.6539C17.14 6.64414 18.4993 6.6409 18.6721 6.67992C18.6949 6.68317 18.6525 6.66366 18.6297 6.57586C18.6069 6.49456 18.5743 6.41326 18.5612 6.40676ZM12.1428 2.44603C12.7621 2.44603 13.4728 2.44279 13.9976 2.43953C14.1475 2.97283 14.3105 3.66222 14.4833 4.27031C13.6651 4.26381 12.6317 4.25731 11.6799 4.2508C11.6212 3.64596 11.5723 2.96633 11.5267 2.44279C11.7418 2.43954 11.9439 2.44603 12.1428 2.44603ZM11.2626 2.41677C11.305 2.93706 11.318 3.6362 11.3767 4.24429C10.5487 4.23779 9.59688 4.23779 8.75912 4.23454C8.82105 3.64271 8.92211 2.94357 8.97426 2.42002C9.72727 2.42002 10.565 2.41352 11.2626 2.41677ZM6.24584 2.40701C7.03144 2.41026 7.93113 2.42002 8.70696 2.42327C8.65154 2.98583 8.51137 3.67848 8.44944 4.24105C7.74532 4.2378 6.94017 4.22478 6.28495 4.22153C6.06655 4.22153 5.8514 4.21828 5.63951 4.21828C5.82858 3.62645 6.08611 2.92731 6.24584 2.40701ZM4.93215 6.43278C5.0984 5.932 5.29072 5.33041 5.5189 4.602C5.52542 4.57923 5.5515 4.44591 5.56128 4.42315C5.79924 4.42315 6.05677 4.45241 6.31429 4.45241C6.94994 4.45567 7.73229 4.43615 8.43966 4.4394C8.36794 5.10928 8.27341 5.86046 8.2017 6.43603C7.14227 6.44579 5.96224 6.44253 4.93215 6.43278ZM8.51137 6.43603C8.57331 5.92549 8.64502 5.31415 8.72326 4.57273C8.72326 4.56623 8.74281 4.45241 8.74281 4.44591C9.59361 4.44916 10.5487 4.4394 11.4028 4.44591C11.4647 5.0605 11.543 5.80843 11.6212 6.41327C10.6596 6.42302 9.5382 6.43278 8.51137 6.43603ZM13.2576 6.40026C12.8306 6.40351 12.384 6.40676 11.9244 6.41327C11.8494 5.81168 11.7744 5.07677 11.7092 4.46217C12.6806 4.46867 13.7368 4.47518 14.5713 4.48168C14.5713 4.48818 14.5778 4.59875 14.5811 4.60525C14.7832 5.30765 14.9722 5.89622 15.1222 6.38725C14.6071 6.3905 13.8933 6.39375 13.2576 6.40026Z" fill="#EFEFF0"/>
</svg>
