<svg width="20" height="16" viewBox="0 0 20 16" fill="none" xmlns="http://www.w3.org/2000/svg">
<path d="M13.6697 14.9131C13.5426 14.8936 12.0496 14.8091 11.0195 14.8091C11.0782 14.2595 11.0423 9.38504 10.9511 9.33301C10.8663 9.28424 10.2893 9.29399 10.2698 9.33301C10.1752 9.50861 10.1524 14.2595 10.2078 14.8188C9.20708 14.8254 7.80864 14.9717 7.67825 14.9912C7.48918 15.0172 7.01977 14.7245 6.72313 15.3847C6.47865 15.9277 7.0002 15.8497 7.52503 15.8757C7.8999 15.8952 13.3014 15.8757 13.8588 15.8367C14.4162 15.7944 14.9019 15.8107 14.6672 15.3489C14.2239 14.4904 13.937 14.9587 13.6697 14.9131Z" fill="#898989"/>
<path d="M4.44774 1.19366C3.60672 1.40178 -0.259369 9.45014 1.30207 9.75581C3.33943 10.1525 19.0939 10.042 19.7948 9.78509C20.4956 9.52819 17.3239 1.38877 16.0819 1.15464C14.8367 0.920502 5.618 0.904241 4.44774 1.19366Z" fill="#ACCDDB"/>
<path d="M4.72497 1.4929C3.92306 1.68801 0.23625 9.177 1.72597 9.45991C3.6688 9.82736 18.6899 9.72654 19.3581 9.48591C20.0264 9.24852 17.0045 1.67176 15.818 1.45388C14.6314 1.23926 5.84307 1.21975 4.72497 1.4929Z" fill="#BBDFEF"/>
<path d="M18.9733 7.26163C18.7712 7.19984 17.8585 7.2226 15.8276 7.23561C15.6614 6.6893 15.443 5.99339 15.2604 5.35928C16.7436 5.37228 17.7053 5.36904 17.9921 5.3853C17.9987 5.3853 18.2171 5.42433 18.2529 5.41132C18.2725 5.40481 18.2529 5.41132 18.2268 5.33002C18.1975 5.24222 18.191 5.18043 18.1584 5.17717C17.8552 5.16091 16.7534 5.14141 15.2083 5.12515C15.042 4.54957 14.879 3.86668 14.7193 3.2911C16.134 3.28785 17.1315 3.24883 17.2913 3.24883C17.3141 3.24883 17.2522 3.27809 17.2196 3.19355C17.187 3.10249 17.1511 3.03746 17.1185 3.04071C16.9751 3.04721 16.02 3.06347 14.6248 3.06997C14.452 2.44562 14.3053 1.89605 14.1521 1.35625C14.1423 1.31722 14.0673 1.33348 13.9239 1.33348C13.8098 1.33348 13.849 1.29771 13.8587 1.32698C13.862 1.33999 14.0641 2.07165 14.3379 3.05696C13.6371 3.05696 12.7178 3.07323 11.9126 3.07323C11.8279 2.02288 11.7823 1.31397 11.779 1.29446C11.7757 1.27495 11.6779 1.2782 11.5671 1.28145C11.453 1.2847 11.4856 1.2782 11.4856 1.29446C11.4856 1.31397 11.5345 2.02938 11.6192 3.07323C10.9119 3.07323 10.0741 3.06997 9.37654 3.06997C9.47759 2.03913 9.54603 1.30421 9.54603 1.29446C9.54603 1.2782 9.44172 1.29121 9.32437 1.28796C9.17442 1.28471 9.24288 1.2782 9.24288 1.29446C9.18094 1.84402 9.13856 2.42611 9.07336 3.06347C8.25516 3.06022 7.35872 3.06347 6.67091 3.06347C6.97081 2.08141 7.18922 1.34323 7.19248 1.33022C7.19574 1.31071 7.0849 1.33348 6.98059 1.33022C6.8665 1.32697 6.86976 1.33023 6.86324 1.35625C6.71329 1.89605 6.534 2.45212 6.34493 3.07323C6.2504 3.07323 6.15913 3.07323 6.06786 3.07323C4.63355 3.06998 3.67844 3.06022 3.54479 3.05372C3.48285 3.05047 3.48937 3.10575 3.44374 3.19355C3.35572 3.36264 3.44698 3.25533 3.45024 3.25533C3.57737 3.25208 4.52598 3.2911 5.90487 3.29435C5.96354 3.29435 6.26669 3.25859 6.32537 3.25859C6.1526 3.81791 5.91138 4.51381 5.73535 5.07313C4.06308 5.06338 2.66465 5.03735 2.54403 5.04386C2.50492 5.04711 2.49187 5.09264 2.45928 5.18694C2.42994 5.27149 2.42016 5.26498 2.44298 5.26824C2.56685 5.28449 3.82187 5.2845 5.66691 5.29426C5.45502 5.96739 5.19097 6.70556 5.0019 7.28114C3.83164 7.27138 2.6679 7.24862 1.68671 7.22261C1.67693 7.22261 1.66063 7.25837 1.62477 7.37869C1.5987 7.46324 1.61174 7.45023 1.62804 7.45348C2.58967 7.50226 3.78275 7.49251 4.92367 7.50226C4.57813 8.5331 4.20327 9.4794 4.09569 9.61597C4.09243 9.62248 4.20978 9.63874 4.27824 9.63874C4.31736 9.63874 4.46078 9.6615 4.47708 9.63223C4.52272 9.54768 4.56183 9.57695 5.24638 7.52503C5.89834 7.52828 6.55682 7.53803 7.2316 7.53803C7.63907 7.53803 8.15737 7.53803 8.56484 7.53803C8.43119 8.59814 8.26494 9.54769 8.18345 9.70053C8.17693 9.71353 8.23235 9.70704 8.29429 9.70704C8.33993 9.70704 8.50291 9.71678 8.51595 9.69727C8.56811 9.61597 8.62351 9.64198 8.89082 7.55428C9.94698 7.55103 11.0977 7.54779 12.0854 7.54128C12.193 8.34775 12.3071 9.1217 12.431 9.70378C12.4342 9.72654 12.4733 9.70378 12.532 9.70378C12.6461 9.70378 12.7374 9.71028 12.7341 9.69402C12.62 9.12494 12.4961 8.32824 12.3886 7.54128C12.8352 7.53803 13.2687 7.53479 13.6827 7.52828C14.3086 7.52178 15.0583 7.50877 15.6386 7.50226C16.284 9.60947 16.297 9.55744 16.359 9.63223C16.3753 9.65174 16.447 9.65174 16.5187 9.64849C16.623 9.64523 16.6752 9.63548 16.6687 9.62897C16.5644 9.48914 16.2612 8.56888 15.9352 7.50877C17.5521 7.49902 18.9114 7.49575 19.0842 7.53477C19.107 7.53803 19.0646 7.51853 19.0418 7.43073C19.019 7.34944 18.9896 7.26813 18.9733 7.26163ZM12.5581 3.29761C13.1774 3.29761 13.8881 3.29435 14.4129 3.2911C14.5628 3.8244 14.7258 4.5138 14.8986 5.1219C14.0804 5.11539 13.047 5.10889 12.0952 5.10239C12.0365 4.49754 11.9876 3.8179 11.942 3.29435C12.1571 3.29435 12.356 3.29761 12.5581 3.29761ZM11.6779 3.26834C11.7203 3.78864 11.7334 4.48778 11.792 5.09588C10.964 5.08937 10.0122 5.08938 9.17442 5.08613C9.23635 4.49429 9.33742 3.79514 9.38957 3.27159C10.1426 3.27484 10.9771 3.26834 11.6779 3.26834ZM6.66114 3.26183C7.44674 3.26508 8.34644 3.27485 9.12227 3.2781C9.06685 3.84067 8.92669 4.53331 8.86475 5.09588C8.16064 5.09263 7.35547 5.07962 6.70025 5.07637C6.48185 5.07637 6.26671 5.07313 6.05482 5.07313C6.24063 4.47804 6.50141 3.78213 6.66114 3.26183ZM5.34744 7.28765C5.51369 6.78686 5.70603 6.18527 5.93421 5.45685C5.94073 5.43409 5.96679 5.30074 5.97657 5.27798C6.21454 5.27798 6.47206 5.30726 6.72958 5.30726C7.36524 5.31051 8.14759 5.291 8.85496 5.29426C8.78325 5.96414 8.68872 6.7153 8.61701 7.29088C7.55432 7.29739 6.37427 7.29415 5.34744 7.28765ZM8.92343 7.29088C8.98536 6.78034 9.05706 6.169 9.1353 5.42757C9.1353 5.42107 9.15486 5.30725 9.15486 5.30075C10.0057 5.304 10.9608 5.29424 11.8148 5.30075C11.8768 5.91535 11.955 6.66329 12.0332 7.26814C11.0749 7.27789 9.95026 7.28763 8.92343 7.29088ZM13.6697 7.25512C13.2426 7.25837 12.796 7.26164 12.3364 7.26814C12.2614 6.66654 12.1865 5.93162 12.1213 5.31702C13.0927 5.32353 14.1488 5.33003 14.9833 5.33653C14.9866 5.34304 14.9899 5.45358 14.9931 5.46008C15.1952 6.16249 15.3843 6.75109 15.5342 7.24212C15.0192 7.24537 14.3053 7.24862 13.6697 7.25512Z" fill="#EFEFF0"/>
</svg>
