<svg width="25" height="53" viewBox="0 0 25 53" fill="none" xmlns="http://www.w3.org/2000/svg">
<path d="M24.4104 22.1077C24.958 26.4847 23.7715 30.7543 19.2958 32.6176C11.7462 35.7654 0.483629 33.8111 0.363017 23.3011C0.310861 18.7843 2.80459 14.7423 5.20379 11.0059C6.69024 8.69384 9.42194 2.06985 11.8407 0.970728C14.3181 -0.154409 16.7597 3.16246 17.8419 5.04203C20.4172 9.51006 22.4382 14.326 23.8464 19.3306C24.1007 20.2444 24.2963 21.1777 24.4104 22.1077Z" fill="#00A07B"/>
<path d="M19.599 21.0899C19.1622 20.7452 18.5298 20.82 18.1843 21.2557C17.0173 22.7255 15.5862 24.0718 14.2008 25.3758C14.1259 25.4473 14.0541 25.5189 13.9792 25.5904C13.9564 25.0604 13.9335 24.5336 13.9009 24.0165C13.8162 22.6605 13.8814 21.3045 13.9466 19.8672C13.9922 18.9241 14.0346 17.9811 14.0346 17.0348C14.0378 15.7211 14.0085 14.4041 13.9792 13.0903C13.9531 11.8254 13.9238 10.5571 13.9238 9.29217C13.9238 8.73611 13.4739 8.28735 12.9165 8.28735C12.3591 8.28735 11.9092 8.73611 11.9092 9.29217C11.9092 10.5734 11.9353 11.8546 11.9646 13.1359C11.994 14.4366 12.02 15.7341 12.02 17.0348C12.02 17.6722 11.9972 18.3095 11.9679 18.9469C11.7462 18.742 11.5246 18.5372 11.3062 18.3355C10.1 17.2364 8.96237 16.2023 8.08223 14.8788C7.77581 14.4171 7.14993 14.287 6.68704 14.5959C6.22415 14.9016 6.09702 15.526 6.40344 15.9877C7.42049 17.5161 8.70484 18.6867 9.94682 19.8184C10.5108 20.3322 11.0812 20.8492 11.6256 21.4053C11.6941 21.4768 11.7788 21.5191 11.8636 21.5646C11.8408 22.4199 11.8342 23.2816 11.8897 24.1401C11.9614 25.3042 12.0037 26.5009 12.0233 27.7334C11.994 27.8765 11.994 28.0195 12.0298 28.1594C12.0429 29.4276 12.0266 30.7381 11.9809 32.1136C11.906 34.3964 11.9092 36.5719 11.9125 38.8742L11.9157 51.9661C11.9157 52.5222 12.3656 52.9709 12.923 52.9709C13.4804 52.9709 13.9303 52.5222 13.9303 51.9661L13.927 38.8709C13.9238 36.5849 13.9205 34.4289 13.9955 32.1786C14.0411 30.8356 14.0541 29.5577 14.0444 28.3122C14.5529 27.8147 15.0647 27.3236 15.5862 26.8326C17.0238 25.4798 18.5103 24.0815 19.7653 22.4979C20.1076 22.0687 20.0326 21.4346 19.599 21.0899Z" fill="#736357"/>
</svg>
