<svg width="25" height="53" viewBox="0 0 25 53" fill="none" xmlns="http://www.w3.org/2000/svg">
<path d="M0.313547 21.4193C-0.234097 25.7962 0.952466 30.0659 5.42815 31.9292C12.9778 35.077 24.2404 33.1226 24.361 22.6127C24.4132 18.0959 21.9194 14.0538 19.5202 10.3175C18.0337 8.00543 15.3021 1.38143 12.8833 0.282312C10.4059 -0.842825 7.96427 2.47405 6.88202 4.35361C4.30679 8.82164 2.28572 13.6376 0.877494 18.6422C0.62323 19.556 0.430899 20.4892 0.313547 21.4193Z" fill="#00A07B"/>
<path d="M5.12831 20.4014C5.56511 20.0567 6.19751 20.1315 6.54304 20.5673C7.71004 22.0371 9.14107 23.3834 10.5265 24.6874C10.6014 24.7589 10.6732 24.8304 10.7481 24.902C10.771 24.3719 10.7938 23.8451 10.8264 23.3281C10.9111 21.9721 10.8459 20.6161 10.7807 19.1787C10.7351 18.2357 10.6927 17.2927 10.6927 16.3464C10.6895 15.0326 10.7188 13.7156 10.7481 12.4019C10.7742 11.1369 10.8036 9.86872 10.8036 8.60375C10.8036 8.04769 11.2534 7.59894 11.8108 7.59894C12.3682 7.59894 12.8181 8.04769 12.8181 8.60375C12.8181 9.88498 12.792 11.1662 12.7627 12.4474C12.7333 13.7482 12.704 15.0456 12.7073 16.3464C12.7073 16.9837 12.7301 17.6211 12.7594 18.2585C12.9811 18.0536 13.2027 17.8487 13.4211 17.6471C14.6273 16.548 15.7649 15.5139 16.645 14.1904C16.9515 13.7287 17.5773 13.5986 18.0402 13.9075C18.5031 14.2132 18.6302 14.8375 18.3238 15.2993C17.3068 16.8277 16.0224 17.9983 14.7805 19.13C14.2165 19.6437 13.6461 20.1608 13.1017 20.7169C13.0332 20.7884 12.9485 20.8307 12.8637 20.8762C12.8865 21.7314 12.8931 22.5932 12.8376 23.4516C12.7659 24.6158 12.7236 25.8125 12.704 27.0449C12.7333 27.188 12.7333 27.3311 12.6975 27.4709C12.6844 28.7391 12.7007 30.0496 12.7464 31.4252C12.8213 33.7079 12.8181 35.8834 12.8148 38.1857L12.8116 51.2776C12.8116 51.8337 12.3617 52.2825 11.8043 52.2825C11.2469 52.2825 10.797 51.8337 10.797 51.2776L10.8003 38.1825C10.8036 35.8964 10.8068 33.7405 10.7318 31.4902C10.6862 30.1472 10.6732 28.8692 10.6829 27.6238C10.1744 27.1262 9.66264 26.6352 9.14107 26.1442C7.70352 24.7914 6.21706 23.3931 4.96205 21.8095C4.61978 21.377 4.6915 20.7461 5.12831 20.4014Z" fill="#736357"/>
</svg>
