<svg width="21" height="61" viewBox="0 0 21 61" fill="none" xmlns="http://www.w3.org/2000/svg">
<path d="M19.6115 18.846C18.9922 18.355 18.0925 18.4623 17.6002 19.0801C15.9443 21.1678 13.9102 23.0831 11.9413 24.9367C11.8337 25.0375 11.7326 25.1416 11.6251 25.2424C11.5957 24.4912 11.5599 23.74 11.5142 23.0051C11.3936 21.0768 11.4849 19.1517 11.5827 17.1095C11.6446 15.7698 11.7098 14.4267 11.7098 13.0837C11.7131 11.2139 11.6707 9.34735 11.6316 7.47754C11.5925 5.67602 11.5533 3.87775 11.5533 2.07948C11.5533 1.29253 10.9144 0.651917 10.1223 0.651917C9.33018 0.651917 8.69126 1.29253 8.69126 2.07948C8.69126 3.90052 8.73038 5.72154 8.7695 7.53932C8.80861 9.38637 8.85099 11.2334 8.84773 13.0805C8.84773 13.9877 8.81187 14.895 8.77275 15.799C8.45981 15.5096 8.14362 15.2202 7.83068 14.9308C6.1193 13.3699 4.49918 11.8968 3.25069 10.0172C2.81388 9.36036 1.92722 9.17501 1.26875 9.61726C0.610271 10.053 0.43098 10.9375 0.86779 11.5944C2.31187 13.7666 4.13735 15.4283 5.90415 17.038C6.70931 17.7696 7.51448 18.5046 8.28705 19.2915C8.38484 19.3923 8.50545 19.4541 8.62607 19.5191C8.59347 20.7321 8.58694 21.958 8.66192 23.1807C8.76623 24.8359 8.82491 26.5334 8.85099 28.2861C8.80861 28.4877 8.81187 28.6926 8.85751 28.8942C8.87381 30.6957 8.85425 32.559 8.78905 34.5134C8.68148 37.7587 8.68474 40.8512 8.69126 44.1226L8.69452 58.7461C8.69452 59.5363 9.33343 60.1737 10.1256 60.1737C10.9177 60.1737 11.5566 59.5363 11.5566 58.7461L11.5533 44.1193C11.5501 40.8708 11.5436 37.8043 11.6511 34.611C11.7131 32.7021 11.7359 30.8843 11.7229 29.1186C12.4433 28.4129 13.1735 27.7138 13.9134 27.0179C15.954 25.096 18.0664 23.1059 19.8527 20.8556C20.3352 20.2313 20.2309 19.3338 19.6115 18.846Z" fill="#736357"/>
</svg>
