<svg width="20" height="44" viewBox="0 0 20 44" fill="none" xmlns="http://www.w3.org/2000/svg">
<path d="M11.3906 41.8795C11.6938 38.6504 11.997 25.3895 11.4754 22.1864C11.3059 21.1491 9.82919 19.7377 9.20005 21.3637C8.96208 21.975 8.96533 22.6384 8.96859 23.2887C8.98489 25.6723 9.0012 38.0521 9.0175 40.4325C9.02076 41.1283 8.64261 42.7705 9.48039 43.1282C10.3573 43.4989 11.3254 42.5754 11.3906 41.8795Z" fill="#A08675"/>
<path d="M19.0837 21.2693C18.3307 19.8092 17.2941 18.567 16.2249 17.3671C17.017 17.2565 17.7113 17.0159 17.8645 16.4468C18.021 15.8712 17.7472 15.2729 17.4115 14.7656C16.6715 13.6535 15.6218 12.7462 14.5852 11.8487C14.4548 11.7381 14.3277 11.6243 14.1973 11.5138C15.0351 11.2471 15.7 10.7463 15.9478 9.85204C16.1369 9.17241 15.8272 8.46676 15.5077 7.83916C14.8199 6.48639 12.0263 -0.0855983 9.93675 0.58103C9.51624 0.714356 9.24895 1.11434 9.01424 1.4883C7.58972 3.75809 6.74868 6.20022 5.35675 8.49603C4.69502 9.58865 4.08218 11.4747 5.88484 11.6861C5.94677 11.6926 6.00872 11.6893 6.07391 11.6926C5.43499 12.2942 4.81238 12.912 4.22236 13.5526C3.4726 14.3624 1.81337 15.6696 2.44577 16.8012C2.74567 17.3378 3.32591 17.6045 4.01372 17.728C3.66167 18.1508 3.31287 18.5768 2.97385 19.0093C2.03503 20.2059 -0.0316675 22.118 0.714823 23.848C1.70254 26.1438 5.43825 25.3243 7.25395 25.4121C9.73465 25.5292 12.2251 25.4804 14.7026 25.2691C15.3154 25.217 16.3814 25.2886 17.3691 25.178C18.422 25.0577 19.3836 24.7292 19.602 23.8155C19.8009 22.9537 19.4814 22.0432 19.0837 21.2693Z" fill="#518267"/>
</svg>
