<svg width="27" height="53" viewBox="0 0 27 53" fill="none" xmlns="http://www.w3.org/2000/svg">
<path d="M15.3775 50.8521C15.8013 46.3483 16.2218 35.2953 15.4981 30.8208C15.2634 29.3737 13.2032 27.4031 12.3264 29.6729C11.9971 30.5281 12.0004 31.4516 12.0037 32.3556C12.0265 35.679 12.0493 45.5061 12.0721 48.8295C12.0786 49.7985 11.5505 52.0878 12.7175 52.5886C13.94 53.1121 15.2862 51.8244 15.3775 50.8521Z" fill="#A08675"/>
<path d="M26.1119 29.5428C25.0622 27.5039 23.6149 25.7707 22.1219 24.0992C23.227 23.9464 24.1951 23.6114 24.4103 22.8147C24.6287 22.0115 24.2473 21.1791 23.7746 20.4702C22.7445 18.919 21.2776 17.6508 19.8303 16.4021C19.651 16.246 19.4685 16.0899 19.2892 15.9338C20.4594 15.5631 21.3852 14.8607 21.7307 13.6153C21.9915 12.669 21.5645 11.6837 21.1179 10.8057C20.1595 8.91961 16.2608 -0.250587 13.3434 0.682692C12.7566 0.871299 12.385 1.42737 12.059 1.94766C10.0738 5.11171 8.89703 8.51964 6.95421 11.7227C6.02843 13.2478 5.17437 15.8753 7.68766 16.1745C7.77567 16.1842 7.86368 16.181 7.94844 16.1842C7.05526 17.0232 6.19142 17.8849 5.36344 18.7792C4.31705 19.9108 2.0026 21.7319 2.886 23.3123C3.30325 24.0602 4.11494 24.4309 5.07332 24.6032C4.58109 25.1918 4.09864 25.7869 3.62271 26.3918C2.31229 28.0632 -0.569346 30.7297 0.470521 33.1393C1.8494 36.3456 7.05851 35.201 9.59462 35.3181C13.0565 35.4807 16.5282 35.4156 19.9868 35.1165C20.8408 35.0417 22.3305 35.1457 23.7094 34.9896C25.1796 34.8238 26.5194 34.3653 26.8225 33.0905C27.1159 31.8939 26.6693 30.6257 26.1119 29.5428Z" fill="#447A5D"/>
</svg>
