<svg width="18" height="38" viewBox="0 0 18 38" fill="none" xmlns="http://www.w3.org/2000/svg">
<path d="M10.0602 35.8792C10.3209 33.1021 10.5817 21.6979 10.1351 18.9403C9.99171 18.0493 8.7204 16.8331 8.17927 18.2314C7.97716 18.7582 7.97715 19.3273 7.98041 19.8866C7.99345 21.9353 8.00975 32.5851 8.02279 34.6337C8.02605 35.2321 7.70008 36.6434 8.42049 36.9523C9.1735 37.2742 10.0047 36.4808 10.0602 35.8792Z" fill="#A08675"/>
<path d="M16.6773 18.1534C16.0319 16.8949 15.1387 15.8283 14.2162 14.7975C14.8975 14.7032 15.494 14.4951 15.6277 14.0073C15.7613 13.513 15.5266 12.9992 15.2365 12.5635C14.6009 11.6074 13.6979 10.8237 12.8047 10.0563C12.6939 9.95873 12.5831 9.86444 12.469 9.76689C13.1894 9.53601 13.7631 9.10676 13.975 8.33607C14.138 7.75399 13.8707 7.14264 13.5969 6.60283C13.0068 5.44192 10.6011 -0.213039 8.805 0.362537C8.44316 0.479604 8.21498 0.821056 8.01288 1.14299C6.79046 3.0941 6.06353 5.19478 4.86719 7.1719C4.29673 8.11169 3.76866 9.73111 5.32031 9.91646C5.37572 9.92297 5.42788 9.91972 5.48329 9.92297C4.93239 10.44 4.39779 10.9733 3.88926 11.5229C3.24383 12.2188 1.81605 13.3439 2.36043 14.3162C2.61795 14.778 3.1167 15.0056 3.70672 15.1129C3.40356 15.4739 3.10366 15.8413 2.81354 16.2153C2.00512 17.2461 0.228541 18.8883 0.870715 20.3776C1.72151 22.3548 4.93239 21.6491 6.49381 21.7207C8.62896 21.8215 10.7706 21.7792 12.8993 21.5971C13.4241 21.5516 14.3433 21.6133 15.1941 21.519C16.1004 21.4182 16.9251 21.1353 17.1141 20.3484C17.2967 19.6005 17.0196 18.82 16.6773 18.1534Z" fill="#4D8A69"/>
</svg>
