<svg width="34" height="22" viewBox="0 0 34 22" fill="none" xmlns="http://www.w3.org/2000/svg">
<path d="M24.3077 21.3513C23.4667 21.3578 22.6093 21.335 21.7814 21.3155C21.074 21.2992 20.3699 21.2797 19.6723 21.2797C18.4042 21.2765 17.1134 21.2147 15.8681 21.1562C15.2651 21.1269 14.6588 21.0976 14.059 21.0781C13.5472 21.0586 13.0452 21.0554 12.5562 21.0489C11.1447 21.0326 9.81148 21.0196 8.39022 20.7042C8.13596 20.6489 7.32753 20.5773 6.67558 20.5221C6.29418 20.4895 5.94214 20.457 5.72699 20.4343C5.42383 20.5253 5.12068 20.5708 4.83056 20.5741C4.00257 20.5806 3.23978 20.2359 2.56501 19.553C1.35238 18.3271 0.654779 16.1581 0.684117 14.7728C0.713455 13.2737 2.76713 11.1502 4.22424 10.2885C5.29345 9.6609 7.15151 9.45278 7.96645 9.391C7.71871 7.82361 8.27286 6.09363 9.54743 4.48071C11.6043 1.87924 15.1054 0.220797 17.9511 0.52647C20.5524 0.806129 22.9679 2.45807 24.412 4.94573C25.5138 6.8448 25.8854 8.90647 25.4682 10.643C25.8365 10.5031 26.3092 10.4316 26.8764 10.4283C27.8478 10.4218 28.8974 10.6202 29.3897 10.8088C31.4727 11.6055 32.4897 12.7014 33.6371 14.4541C34.5075 15.7809 33.5817 18.2913 32.581 19.592C31.766 20.6489 30.4491 20.7855 29.1778 20.922C28.8062 20.9611 28.4215 21.0001 28.0597 21.0651C26.9742 21.2505 25.7844 21.3415 24.3077 21.3513Z" fill="#F1F5F1"/>
</svg>
