<svg width="19" height="27" viewBox="0 0 19 27" fill="none" xmlns="http://www.w3.org/2000/svg">
<path opacity="0.49" d="M18.3118 9.3565C18.2726 7.51596 17.6565 5.68192 16.4798 4.16006C14.136 1.13259 8.76382 0.28711 5.165 1.79597C1.43578 3.35685 -0.132178 6.75503 0.441547 10.3158C0.829463 12.7222 2.08448 14.8229 3.63615 16.6634C4.47392 17.6552 5.4486 18.5104 6.30593 19.4795C7.46968 20.7965 9.47119 22.0582 11.2934 21.0599C11.7042 20.8355 12.0236 20.4778 12.3333 20.1266C13.7448 18.5267 15.1693 16.9105 16.2646 15.0732C17.3175 13.3075 18.3541 11.4572 18.3118 9.3565Z" fill="#F2F2EA"/>
<path d="M2.57992 3.84551C3.271 3.58211 3.98489 3.38375 4.71508 3.25367C6.26022 2.98052 7.83144 2.92199 9.39939 2.95451C11.6421 3.00328 13.8881 3.13986 16.0396 3.69268C13.5589 1.1725 8.8322 0.382296 5.49417 1.61149C3.93926 2.18382 2.73639 3.08458 1.88232 4.19021C2.11377 4.06664 2.34522 3.93656 2.57992 3.84551Z" fill="#708F3B"/>
<path d="M1.91825 6.04376C2.80817 5.74459 3.72091 5.52021 4.64668 5.36413C6.4363 5.0617 8.24549 4.94789 10.0579 4.89586C12.5875 4.82107 15.0649 5.11698 17.4609 5.79337C17.2457 5.33486 16.9915 4.89261 16.6948 4.47312C16.5807 4.31053 16.4536 4.15444 16.3232 4.0016C13.8979 3.31546 11.3195 3.18864 8.80617 3.18214C7.1502 3.17888 5.46163 3.25368 3.85456 3.68292C3.09829 3.88453 2.42678 4.16419 1.73897 4.53165C1.69007 4.55767 1.64117 4.58368 1.58901 4.60645C1.2011 5.18852 0.904463 5.81938 0.699097 6.48601C1.10331 6.33642 1.50752 6.18359 1.91825 6.04376Z" fill="#708F3B"/>
<path opacity="0.8" d="M3.97844 8.77527C6.05167 8.4761 8.11838 8.26147 10.2177 8.32001C12.1899 8.37529 14.1522 8.64844 16.0951 8.96387C16.8285 9.08419 17.5783 9.23703 18.2954 9.48417C18.2889 8.32326 18.0542 7.1591 17.5881 6.06973C15.1497 5.36083 12.6267 5.0454 10.0514 5.12669C8.12164 5.18523 6.17553 5.28929 4.27507 5.6665C3.00702 5.91689 1.82045 6.38516 0.607809 6.78514C0.366584 7.68915 0.288359 8.6517 0.373113 9.637C1.47166 9.08744 2.75928 8.95087 3.97844 8.77527Z" fill="#708F3B"/>
<path opacity="0.6" d="M5.15539 15.9586C6.41365 15.7928 7.68496 15.7082 8.95301 15.7603C10.208 15.8123 11.4663 15.9586 12.6887 16.248C13.4286 16.4236 14.149 16.6708 14.8727 16.8919C15.2671 16.4009 15.6453 15.8936 15.9908 15.3668C16.0658 15.2562 16.1375 15.1424 16.2125 15.0286C13.6927 13.7994 11.0816 13.0808 8.23586 13.2206C6.05508 13.3279 3.90691 13.7376 1.7457 14.0173C2.19554 14.8498 2.72362 15.64 3.30711 16.3944C3.89387 16.157 4.54255 16.0399 5.15539 15.9586Z" fill="#708F3B"/>
<path opacity="0.5" d="M9.41259 18.4983C10.6024 18.5374 11.8509 18.6804 13.0375 18.9894C13.621 18.3683 14.1914 17.7342 14.7293 17.074C14.2436 16.9212 13.7612 16.7619 13.2657 16.6318C12.0661 16.3196 10.8404 16.105 9.60493 16.0269C8.28797 15.9456 6.9645 15.9684 5.65733 16.1277C4.94343 16.2155 4.15457 16.3066 3.45697 16.583C4.16108 17.4643 4.95646 18.261 5.68013 19.1259C6.77542 18.5244 8.23907 18.4561 9.41259 18.4983Z" fill="#708F3B"/>
<path d="M9.68641 18.7389C8.50637 18.6868 6.95796 18.6933 5.82355 19.2982C5.83333 19.3079 5.83985 19.3177 5.84963 19.3275C6.9547 20.6932 8.89754 22.0427 10.7621 21.1257C11.1827 20.9209 11.5152 20.5762 11.8411 20.238C12.1801 19.8835 12.5224 19.5291 12.8582 19.1714C11.8183 18.9145 10.7263 18.7844 9.68641 18.7389Z" fill="white"/>
<path opacity="0.7" d="M1.63141 13.8059C4.0469 13.4938 6.44936 12.9962 8.89093 12.9767C11.5477 12.954 13.9892 13.6856 16.3395 14.84C17.3435 13.2791 18.2497 11.6305 18.2921 9.74764C18.2921 9.74114 18.2921 9.73463 18.2921 9.72813C17.3696 9.39969 16.3689 9.2306 15.4333 9.10378C13.6209 8.85338 11.8182 8.57698 9.98295 8.55421C7.97819 8.52495 6.01256 8.72656 4.02736 9.00622C2.80494 9.17857 1.48798 9.30864 0.3927 9.89397C0.3927 9.90373 0.395963 9.91348 0.395963 9.92649C0.558952 11.302 1.00553 12.593 1.63141 13.8059Z" fill="#708F3B"/>
<g opacity="0.06">
<path opacity="0.06" d="M9.82975 1.09443C9.69936 1.02289 9.57223 1.22125 9.70588 1.28954C12.9559 3.01627 13.9957 6.82093 13.7349 10.2549C13.5785 12.3003 12.995 14.3099 12.3398 16.248C12.004 17.2366 11.6226 18.2056 11.2086 19.1617C10.8501 19.9909 10.3676 20.8884 9.4451 21.1681C9.30167 21.2103 9.35382 21.438 9.50051 21.3924C11.1108 20.9047 11.665 18.7487 12.1866 17.3667C12.9982 15.2204 13.6567 12.9832 13.9273 10.7004C14.351 7.08107 13.2688 2.92196 9.82975 1.09443Z" fill="black"/>
<path opacity="0.06" d="M9.52329 21.3502C8.08901 20.212 7.51204 18.4137 6.96115 16.7423C6.3255 14.8237 5.80394 12.8661 5.55294 10.8565C5.11288 7.34448 5.64747 2.17079 9.80689 1.15297C9.95358 1.1172 9.89817 0.892823 9.75148 0.928593C5.61162 1.94317 4.94988 6.90548 5.27586 10.4532C5.48122 12.6905 6.10056 14.8757 6.80141 17.0024C7.35556 18.6739 7.97166 20.4169 9.39942 21.5485C9.51677 21.6396 9.63738 21.4412 9.52329 21.3502Z" fill="black"/>
<path opacity="0.06" d="M9.40936 11.2759C9.3246 7.89722 9.14532 4.47628 9.72232 1.13014C9.7484 0.983804 9.52673 0.915516 9.50065 1.06185C8.93343 4.35922 9.09316 7.71187 9.1714 11.0418C9.25289 14.4757 9.38981 17.9096 9.58214 21.3403C9.59192 21.4899 9.82338 21.4964 9.8136 21.3468C9.62779 17.9909 9.49412 14.635 9.40936 11.2759Z" fill="black"/>
<path opacity="0.06" d="M9.67977 21.2583C8.60079 21.4665 7.65872 19.8535 7.15346 19.1414C6.53737 18.2667 5.98646 17.3496 5.4812 16.4066C4.46742 14.5043 3.69811 12.4556 3.21893 10.3549C2.72345 8.18594 2.74627 5.82185 4.05995 3.93578C5.2791 2.18304 7.52834 1.68876 9.48746 1.27578C9.63415 1.24326 9.57872 1.01888 9.43203 1.0514C7.3523 1.4904 5.20087 2.02695 3.86111 3.81546C2.4529 5.69503 2.52134 8.23147 2.99074 10.4135C3.50252 12.7971 4.46741 15.1059 5.66049 17.2228C6.22442 18.2211 6.86334 19.1739 7.5544 20.0877C8.03685 20.725 8.82247 21.6616 9.73194 21.4892C9.88189 21.4567 9.82972 21.2291 9.67977 21.2583Z" fill="black"/>
<path opacity="0.06" d="M14.6379 3.81622C13.1645 2.11225 11.3944 0.707455 9.02131 0.961099C8.87136 0.977358 8.92679 1.20173 9.07674 1.18547C11.4433 0.935082 13.1482 2.44719 14.5956 4.11864C16.1146 5.87138 16.3656 8.26474 16.0429 10.476C15.7332 12.5995 14.9085 14.6774 13.8654 16.5407C13.3797 17.4057 12.819 18.2219 12.2061 19.0023C11.502 19.9031 10.7001 20.8364 9.58853 21.2233C9.44836 21.2721 9.50051 21.4998 9.64394 21.4477C10.6317 21.103 11.3423 20.3876 12.0073 19.6072C12.744 18.7454 13.3894 17.8122 13.9632 16.8334C15.1791 14.7652 16.0331 12.4206 16.3363 10.037C16.6166 7.80623 16.1309 5.54295 14.6379 3.81622Z" fill="black"/>
</g>
<path d="M10.5241 26.8719C10.4198 26.9239 10.2959 26.9564 10.1493 26.9662C9.34083 27.015 8.21947 27.0898 8.06952 26.2735C7.99129 25.8508 7.73378 24.9923 8.28141 24.7647C8.88447 24.5143 10.0319 24.6151 10.7002 24.5696C10.7425 24.5663 10.7882 24.5631 10.824 24.5793C10.8664 24.5956 10.8925 24.6314 10.9153 24.6671C11.062 24.898 11.0652 25.1712 11.0587 25.4346C11.0457 25.9223 11.0327 26.6215 10.5241 26.8719Z" fill="#B3B3B3"/>
<path d="M9.57231 25.054C9.14528 24.6183 8.99207 23.7728 8.78019 23.2102C8.54222 22.5794 8.19344 21.9062 8.10217 21.2396C8.08261 21.0933 7.85768 21.1356 7.87724 21.2819C7.97178 21.9778 8.32708 22.6574 8.57482 23.311C8.79648 23.9029 8.9497 24.7419 9.39955 25.2036C9.50061 25.3109 9.67662 25.1613 9.57231 25.054Z" fill="#B3B3B3"/>
<path d="M9.85266 21.3015C9.51038 22.6054 9.32129 23.9355 9.28543 25.285C9.28218 25.4313 9.51036 25.4313 9.51362 25.285C9.54948 23.955 9.7353 22.6477 10.0711 21.3632C10.1134 21.2202 9.89177 21.1584 9.85266 21.3015Z" fill="#B3B3B3"/>
<path d="M11.1077 20.7844C10.6513 22.2998 10.1233 23.7891 9.5235 25.2525C9.46808 25.389 9.68974 25.4476 9.74515 25.3142C10.3482 23.8509 10.8762 22.3616 11.3293 20.8462C11.3717 20.7031 11.1501 20.6446 11.1077 20.7844Z" fill="#B3B3B3"/>
</svg>
