<svg width="21" height="14" viewBox="0 0 21 14" fill="none" xmlns="http://www.w3.org/2000/svg">
<path d="M14.4519 13.1235C13.9597 13.1268 13.4577 13.1137 12.972 13.1007C12.558 13.091 12.1473 13.0812 11.7365 13.078C10.9933 13.0747 10.2403 13.039 9.51011 13.0064C9.15479 12.9902 8.80274 12.9739 8.45068 12.9609C8.15078 12.9512 7.8574 12.9479 7.57054 12.9447C6.74581 12.9349 5.96347 12.9251 5.13223 12.743C4.98228 12.7105 4.50961 12.6682 4.12822 12.6357C3.90329 12.6162 3.69792 12.6 3.57405 12.5837C3.39802 12.6357 3.21874 12.665 3.04923 12.665C2.56352 12.6682 2.11693 12.4666 1.7225 12.0667C1.01187 11.348 0.604396 10.0798 0.620695 9.26682C0.636994 8.38882 1.83985 7.14661 2.69391 6.64258C3.31978 6.27512 4.40856 6.1548 4.88449 6.11903C4.7378 5.19876 5.06376 4.18744 5.81025 3.2444C7.01637 1.72254 9.06351 0.750239 10.7293 0.929091C12.2516 1.09168 13.6663 2.06073 14.5139 3.51756C15.1593 4.62969 15.3744 5.83612 15.13 6.85395C15.3451 6.77265 15.6222 6.73038 15.9547 6.72713C16.5251 6.72388 17.138 6.83769 17.4248 6.94825C18.644 7.41327 19.2405 8.05713 19.912 9.08146C20.4206 9.85865 19.8795 11.3285 19.2927 12.0894C18.8168 12.7073 18.0442 12.7886 17.2977 12.8666C17.0793 12.8894 16.8544 12.9121 16.6425 12.9479C16.0134 13.0617 15.3158 13.117 14.4519 13.1235Z" fill="#F1F5F1"/>
</svg>
