<svg width="1" height="1" viewBox="0 0 1 1" fill="none" xmlns="http://www.w3.org/2000/svg">
<path d="M0.977018 0.597972C0.973126 0.67563 0.961416 0.768819 0.895244 0.803766C0.875781 0.815414 0.852457 0.819301 0.829102 0.819301C0.63837 0.842598 0.447602 0.854249 0.25687 0.858132C0.198483 0.858132 0.136233 0.858126 0.0934159 0.815414C0.054491 0.772702 0.0467042 0.710582 0.0428117 0.652338C0.0272417 0.450427 0.01557 0.248516 4.11185e-09 0.0466049C4.11185e-09 0.0349562 -3.99087e-05 0.0194221 0.00774507 0.00777341C0.01553 7.58399e-06 0.0311342 0 0.0428117 0C0.299716 0.0271804 0.583879 0.0233017 0.832998 0.0893112C1.07044 0.151438 0.988696 0.372763 0.977018 0.597972Z" fill="#CAD1D8"/>
</svg>
