<svg width="21" height="9" viewBox="0 0 21 9" fill="none" xmlns="http://www.w3.org/2000/svg">
<path d="M0.000991369 1.19379C-0.00565367 0.882238 0.0142668 0.514333 0.276746 0.341983C0.426259 0.24255 0.618968 0.235925 0.798383 0.232611C7.02146 0.156379 13.2412 0.0768285 19.4643 0.000596553C19.8098 -0.00271788 20.1853 0.000598179 20.461 0.209407C20.8166 0.477876 20.8764 0.978357 20.9029 1.42249C21.0392 3.76248 21.0325 6.11241 20.8797 8.4524C16.7498 8.79047 12.6066 8.12427 8.46011 8.12096C6.98159 8.12096 5.50306 8.20382 4.03119 8.32977C3.12746 8.406 1.37982 8.97276 0.612323 8.30656C-0.0654703 7.71991 0.103976 6.37094 0.0906856 5.59536C0.0574604 4.12707 0.030894 2.65877 0.000991369 1.19379Z" fill="#C3D1DD"/>
</svg>
