<svg width="21" height="57" viewBox="0 0 21 57" fill="none" xmlns="http://www.w3.org/2000/svg">
<path d="M0.0640139 1.51751C0.0574769 1.11972 0.0770734 0.65347 0.335283 0.431754C0.482365 0.304594 0.671939 0.298068 0.848437 0.294808C6.9703 0.196992 13.0889 0.0991778 19.2108 0.00136193C19.5507 -0.00515913 19.92 0.00136114 20.1913 0.265464C20.541 0.60782 20.5999 1.24363 20.626 1.81096C20.76 4.78783 20.4397 53.8066 20.2926 56.7802C16.2299 57.2106 12.1541 56.3629 8.07504 56.3564C6.62057 56.3531 5.16611 56.4607 3.71817 56.6205C2.82915 56.7183 1.10991 57.4389 0.354893 56.5944C-0.311876 55.851 0.168592 8.10052 0.152249 7.11258C0.122833 5.24755 0.0934302 3.38253 0.0640139 1.51751Z" fill="#C3D1DD"/>
</svg>
