<svg width="2" height="1" viewBox="0 0 2 1" fill="none" xmlns="http://www.w3.org/2000/svg">
<path d="M0.0289583 0.693686C0.0322607 0.785915 0.0487719 0.894617 0.131332 0.934144C0.157751 0.947319 0.187476 0.950612 0.217198 0.953906C0.454971 0.980257 0.696044 0.996722 0.937119 1.00002C1.00977 1.00002 1.08903 1.00002 1.14187 0.950609C1.1914 0.904495 1.20131 0.82874 1.20461 0.759568C1.22112 0.522408 1.24093 0.288544 1.25744 0.0513844C1.25744 0.034915 1.25745 0.0184439 1.24755 0.00856225C1.23764 -0.00131941 1.22112 -0.00132585 1.20461 0.00196804C0.880977 0.0349069 0.521009 0.0283183 0.207281 0.104078C-0.0899354 0.173249 0.0157487 0.433469 0.0289583 0.693686Z" fill="#CAD1D8"/>
</svg>
